<svg width="80" height="81" viewBox="0 0 80 81" fill="none" xmlns="http://www.w3.org/2000/svg">
<circle cx="57" cy="26.9688" r="15.5" stroke="white" stroke-opacity="0.3" stroke-dasharray="3 3"/>
<path opacity="0.5" fill-rule="evenodd" clip-rule="evenodd" d="M55.5 31.4688C55.5 32.2972 56.1716 32.9688 57 32.9688C57.8284 32.9688 58.5 32.2972 58.5 31.4688V28.4746H61.5C62.3284 28.4746 63 27.803 63 26.9746C63 26.1462 62.3284 25.4746 61.5 25.4746H58.5V22.4688C58.5 21.6403 57.8284 20.9688 57 20.9688C56.1716 20.9688 55.5 21.6403 55.5 22.4688V25.4746H52.5C51.6716 25.4746 51 26.1462 51 26.9746C51 27.803 51.6716 28.4746 52.5 28.4746H55.5V31.4688Z" fill="url(#paint0_linear_14059_149978)"/>
<path opacity="0.8" d="M7.5 38.4688H50.5V63.9688C50.5 64.7972 49.8284 65.4688 49 65.4688H9C8.17157 65.4688 7.5 64.7972 7.5 63.9688V38.4688Z" fill="url(#paint1_linear_14059_149978)" stroke="url(#paint2_linear_14059_149978)"/>
<g opacity="0.8">
<mask id="path-4-inside-1_14059_149978" fill="white">
<path fill-rule="evenodd" clip-rule="evenodd" d="M9 29.9688C7.89543 29.9688 7 30.8642 7 31.9688V37.9688H27H51V35.9688C51 34.8642 50.1046 33.9688 49 33.9688H27V31.9688C27 30.8642 26.1046 29.9688 25 29.9688H9Z"/>
</mask>
<path fill-rule="evenodd" clip-rule="evenodd" d="M9 29.9688C7.89543 29.9688 7 30.8642 7 31.9688V37.9688H27H51V35.9688C51 34.8642 50.1046 33.9688 49 33.9688H27V31.9688C27 30.8642 26.1046 29.9688 25 29.9688H9Z" fill="url(#paint3_linear_14059_149978)"/>
<path d="M7 37.9688H6V38.9688H7V37.9688ZM51 37.9688V38.9688H52V37.9688H51ZM27 33.9688H26V34.9688H27V33.9688ZM8 31.9688C8 31.4165 8.44772 30.9688 9 30.9688V28.9688C7.34315 28.9688 6 30.3119 6 31.9688H8ZM8 37.9688V31.9688H6V37.9688H8ZM27 36.9688H7V38.9688H27V36.9688ZM51 36.9688H27V38.9688H51V36.9688ZM50 35.9688V37.9688H52V35.9688H50ZM49 34.9688C49.5523 34.9688 50 35.4165 50 35.9688H52C52 34.3119 50.6569 32.9688 49 32.9688V34.9688ZM27 34.9688H49V32.9688H27V34.9688ZM26 31.9688V33.9688H28V31.9688H26ZM25 30.9688C25.5523 30.9688 26 31.4165 26 31.9688H28C28 30.3119 26.6569 28.9688 25 28.9688V30.9688ZM9 30.9688H25V28.9688H9V30.9688Z" fill="url(#paint4_linear_14059_149978)" mask="url(#path-4-inside-1_14059_149978)"/>
</g>
<mask id="path-6-inside-2_14059_149978" fill="white">
<path fill-rule="evenodd" clip-rule="evenodd" d="M30.9393 49.8934C31.5251 50.4792 32.4749 50.4792 33.0607 49.8934C33.6464 49.3076 33.6464 48.3578 33.0607 47.7721C32.4749 47.1863 31.5251 47.1863 30.9393 47.7721C30.3536 48.3578 30.3536 49.3076 30.9393 49.8934ZM35.182 52.0147C33.7912 53.4054 31.7166 53.6956 30.0406 52.8851C29.9929 52.9519 29.939 53.0157 29.879 53.0757L26.9284 56.0264L27.9889 57.0869C28.5747 57.6727 28.5747 58.6225 27.9889 59.2083C27.4031 59.7941 26.4534 59.7941 25.8676 59.2083L24.807 58.1477L23.5151 59.4397C22.9293 60.0255 21.9795 60.0255 21.3937 59.4397C20.808 58.8539 20.808 57.9042 21.3937 57.3184L27.7577 50.9544C27.8176 50.8945 27.8813 50.8407 27.9481 50.7931C27.137 49.1168 27.427 47.0417 28.818 45.6507C30.5754 43.8934 33.4246 43.8934 35.182 45.6507C36.9393 47.4081 36.9393 50.2573 35.182 52.0147Z"/>
</mask>
<path fill-rule="evenodd" clip-rule="evenodd" d="M30.9393 49.8934C31.5251 50.4792 32.4749 50.4792 33.0607 49.8934C33.6464 49.3076 33.6464 48.3578 33.0607 47.7721C32.4749 47.1863 31.5251 47.1863 30.9393 47.7721C30.3536 48.3578 30.3536 49.3076 30.9393 49.8934ZM35.182 52.0147C33.7912 53.4054 31.7166 53.6956 30.0406 52.8851C29.9929 52.9519 29.939 53.0157 29.879 53.0757L26.9284 56.0264L27.9889 57.0869C28.5747 57.6727 28.5747 58.6225 27.9889 59.2083C27.4031 59.7941 26.4534 59.7941 25.8676 59.2083L24.807 58.1477L23.5151 59.4397C22.9293 60.0255 21.9795 60.0255 21.3937 59.4397C20.808 58.8539 20.808 57.9042 21.3937 57.3184L27.7577 50.9544C27.8176 50.8945 27.8813 50.8407 27.9481 50.7931C27.137 49.1168 27.427 47.0417 28.818 45.6507C30.5754 43.8934 33.4246 43.8934 35.182 45.6507C36.9393 47.4081 36.9393 50.2573 35.182 52.0147Z" fill="url(#paint5_linear_14059_149978)"/>
<path d="M30.0406 52.8851L30.6936 51.5347L29.5545 50.9839L28.8196 52.0137L30.0406 52.8851ZM26.9284 56.0264L25.8677 54.9657L24.807 56.0264L25.8677 57.0871L26.9284 56.0264ZM24.807 58.1477L25.8677 57.0871L24.807 56.0264L23.7464 57.0871L24.807 58.1477ZM27.9481 50.7931L28.8197 52.0138L29.8494 51.2786L29.2983 50.1397L27.9481 50.7931ZM32 48.8327L29.8787 50.954C31.0503 52.1256 32.9497 52.1256 34.1213 50.954L32 48.8327ZM32 48.8327L34.1213 50.954C35.2929 49.7825 35.2929 47.883 34.1213 46.7114L32 48.8327ZM32 48.8327L34.1213 46.7114C32.9497 45.5398 31.0503 45.5398 29.8787 46.7114L32 48.8327ZM32 48.8327L29.8787 46.7114C28.7071 47.883 28.7071 49.7825 29.8787 50.954L32 48.8327ZM29.3876 54.2355C31.6205 55.3152 34.3867 54.9313 36.2426 53.0754L34.1213 50.954C33.1958 51.8795 31.8128 52.0759 30.6936 51.5347L29.3876 54.2355ZM30.9397 54.1364C31.0585 54.0175 31.1659 53.8904 31.2615 53.7564L28.8196 52.0137C28.8198 52.0135 28.8195 52.0139 28.8184 52.0151L30.9397 54.1364ZM27.989 57.0871L30.9397 54.1364L28.8184 52.0151L25.8677 54.9657L27.989 57.0871ZM25.8677 57.0871L26.9282 58.1476L29.0496 56.0263L27.989 54.9657L25.8677 57.0871ZM26.9282 58.1476L29.0496 60.2689C30.2211 59.0974 30.2211 57.1979 29.0496 56.0263L26.9282 58.1476ZM26.9282 58.1476L24.8069 60.2689C25.9785 61.4405 27.878 61.4405 29.0496 60.2689L26.9282 58.1476ZM26.9282 58.1476L25.8677 57.0871L23.7464 59.2084L24.8069 60.2689L26.9282 58.1476ZM24.5757 60.5004L25.8677 59.2084L23.7464 57.0871L22.4544 58.379L24.5757 60.5004ZM20.3331 60.5004C21.5047 61.6719 23.4041 61.6719 24.5757 60.5004L22.4544 58.379L20.3331 60.5004ZM20.3331 56.2577C19.1615 57.4293 19.1615 59.3288 20.3331 60.5004L22.4544 58.379L20.3331 56.2577ZM26.697 49.8937L20.3331 56.2577L22.4544 58.379L28.8184 52.0151L26.697 49.8937ZM27.0765 49.5723C26.9427 49.6678 26.8157 49.7751 26.697 49.8937L28.8184 52.0151C28.8195 52.0139 28.82 52.0136 28.8197 52.0138L27.0765 49.5723ZM27.7574 44.5901C25.901 46.4464 25.5173 49.2133 26.5978 51.4464L29.2983 50.1397C28.7567 49.0204 28.953 47.6371 29.8787 46.7114L27.7574 44.5901ZM36.2426 44.5901C33.8995 42.2469 30.1005 42.2469 27.7574 44.5901L29.8787 46.7114C31.0503 45.5398 32.9497 45.5398 34.1213 46.7114L36.2426 44.5901ZM36.2426 53.0754C38.5858 50.7322 38.5858 46.9332 36.2426 44.5901L34.1213 46.7114C35.2929 47.883 35.2929 49.7825 34.1213 50.954L36.2426 53.0754Z" fill="url(#paint6_linear_14059_149978)" mask="url(#path-6-inside-2_14059_149978)"/>
<defs>
<linearGradient id="paint0_linear_14059_149978" x1="57" y1="20.9688" x2="57" y2="32.9688" gradientUnits="userSpaceOnUse">
<stop stop-color="white"/>
<stop offset="1" stop-color="white" stop-opacity="0.5"/>
</linearGradient>
<linearGradient id="paint1_linear_14059_149978" x1="29" y1="37.9688" x2="29" y2="65.9688" gradientUnits="userSpaceOnUse">
<stop stop-color="white" stop-opacity="0.8"/>
<stop offset="1" stop-color="white" stop-opacity="0.4"/>
</linearGradient>
<linearGradient id="paint2_linear_14059_149978" x1="29" y1="37.9688" x2="29" y2="65.9688" gradientUnits="userSpaceOnUse">
<stop stop-color="white"/>
<stop offset="1" stop-color="white" stop-opacity="0"/>
</linearGradient>
<linearGradient id="paint3_linear_14059_149978" x1="29" y1="29.9688" x2="29" y2="37.9688" gradientUnits="userSpaceOnUse">
<stop stop-color="white" stop-opacity="0.8"/>
<stop offset="1" stop-color="white" stop-opacity="0.4"/>
</linearGradient>
<linearGradient id="paint4_linear_14059_149978" x1="29" y1="29.9688" x2="29" y2="37.9688" gradientUnits="userSpaceOnUse">
<stop stop-color="white"/>
<stop offset="1" stop-color="white" stop-opacity="0"/>
</linearGradient>
<linearGradient id="paint5_linear_14059_149978" x1="35.1821" y1="45.6509" x2="21.3935" y2="59.4395" gradientUnits="userSpaceOnUse">
<stop stop-color="white" stop-opacity="0.8"/>
<stop offset="1" stop-color="white" stop-opacity="0.4"/>
</linearGradient>
<linearGradient id="paint6_linear_14059_149978" x1="35.1821" y1="45.6509" x2="21.3935" y2="59.4395" gradientUnits="userSpaceOnUse">
<stop stop-color="white"/>
<stop offset="1" stop-color="white" stop-opacity="0"/>
</linearGradient>
</defs>
</svg>
