<svg width="25" height="26" viewBox="0 0 25 26" fill="none" xmlns="http://www.w3.org/2000/svg">
<g filter="url(#filter0_d_12786_68339)">
<path fill-rule="evenodd" clip-rule="evenodd" d="M13.9125 9.98821C13.2247 9.30047 13.2247 8.18544 13.9125 7.4977L15.8241 5.58611C16.5119 4.89838 17.627 4.89838 18.3147 5.58611L20.2264 7.4977C20.9141 8.18544 20.9141 9.30047 20.2264 9.98821L18.3147 11.8998C17.627 12.5875 16.5119 12.5875 15.8241 11.8998L13.9125 9.98821ZM6.50327 5.2181C5.53065 5.2181 4.74219 6.00656 4.74219 6.97918V10.5012C4.74219 11.4738 5.53065 12.2623 6.50327 12.2623H10.0255C10.9982 12.2623 11.7866 11.4738 11.7866 10.5012V6.97918C11.7866 6.00656 10.9982 5.2181 10.0255 5.2181H6.50327ZM6.50327 14.0261C5.53065 14.0261 4.74219 14.8146 4.74219 15.7872V19.3092C4.74219 20.2818 5.53065 21.0703 6.50327 21.0703H10.0255C10.9982 21.0703 11.7866 20.2818 11.7866 19.3092V15.7872C11.7866 14.8146 10.9982 14.0261 10.0255 14.0261H6.50327ZM15.3074 14.0261C14.3348 14.0261 13.5464 14.8146 13.5464 15.7872V19.3092C13.5464 20.2818 14.3348 21.0703 15.3074 21.0703H18.8297C19.8023 21.0703 20.5908 20.2818 20.5908 19.3092V15.7872C20.5908 14.8146 19.8023 14.0261 18.8297 14.0261H15.3074Z" fill="url(#paint0_linear_12786_68339)" shape-rendering="crispEdges"/>
</g>
<defs>
<filter id="filter0_d_12786_68339" x="0.515595" y="0.84372" width="24.4532" height="24.4532" filterUnits="userSpaceOnUse" color-interpolation-filters="sRGB">
<feFlood flood-opacity="0" result="BackgroundImageFix"/>
<feColorMatrix in="SourceAlpha" type="matrix" values="0 0 0 0 0 0 0 0 0 0 0 0 0 0 0 0 0 0 127 0" result="hardAlpha"/>
<feOffset/>
<feGaussianBlur stdDeviation="2.1133"/>
<feComposite in2="hardAlpha" operator="out"/>
<feColorMatrix type="matrix" values="0 0 0 0 0 0 0 0 0 0 0 0 0 0 0 0 0 0 0.2 0"/>
<feBlend mode="normal" in2="BackgroundImageFix" result="effect1_dropShadow_12786_68339"/>
<feBlend mode="normal" in="SourceGraphic" in2="effect1_dropShadow_12786_68339" result="shape"/>
</filter>
<linearGradient id="paint0_linear_12786_68339" x1="12.7422" y1="5.07031" x2="12.7422" y2="21.0703" gradientUnits="userSpaceOnUse">
<stop stop-color="white" stop-opacity="0.8"/>
<stop offset="1" stop-color="white" stop-opacity="0.4"/>
</linearGradient>
</defs>
</svg>
