<svg width="17" height="16" viewBox="0 0 17 16" fill="none" xmlns="http://www.w3.org/2000/svg">
<path d="M10.6119 11.24L12.5986 10.0482C12.7311 9.96866 12.8122 9.82542 12.8122 9.67084V4.88916C12.8122 4.73458 12.7311 4.59134 12.5986 4.51182L8.63804 2.13581C8.4987 2.05221 8.32463 2.05221 8.18529 2.13581L4.22476 4.51182C4.09221 4.59134 4.01111 4.73458 4.01111 4.88916V7.28" stroke="white" stroke-opacity="0.9" stroke-width="1.39472" stroke-linecap="square"/>
<path d="M9.10534 11.2727C9.16728 11.38 9.16728 11.5122 9.10534 11.6195L7.70533 14.044C7.64339 14.1513 7.52895 14.2174 7.40509 14.2174L4.60499 14.2174C4.48113 14.2174 4.36669 14.1513 4.30475 14.044L2.90474 11.6195C2.8428 11.5122 2.8428 11.38 2.90474 11.2727L4.30475 8.84814C4.36669 8.74088 4.48113 8.67481 4.60499 8.67481L7.40509 8.67481C7.52895 8.67481 7.64339 8.74088 7.70533 8.84814L9.10534 11.2727Z" fill="white" fill-opacity="0.9"/>
</svg>
