<svg width="16" height="16" viewBox="0 0 16 16" fill="none" xmlns="http://www.w3.org/2000/svg">
<path d="M11.0597 5.05203L6.66634 9.44536L4.27301 7.0587L3.33301 7.9987L6.66634 11.332L11.9997 5.9987L11.0597 5.05203ZM7.99967 1.33203C4.31967 1.33203 1.33301 4.3187 1.33301 7.9987C1.33301 11.6787 4.31967 14.6654 7.99967 14.6654C11.6797 14.6654 14.6663 11.6787 14.6663 7.9987C14.6663 4.3187 11.6797 1.33203 7.99967 1.33203ZM7.99967 13.332C5.05301 13.332 2.66634 10.9454 2.66634 7.9987C2.66634 5.05203 5.05301 2.66536 7.99967 2.66536C10.9463 2.66536 13.333 5.05203 13.333 7.9987C13.333 10.9454 10.9463 13.332 7.99967 13.332Z" fill="white" fill-opacity="0.7"/>
</svg>
