<svg width="16" height="16" viewBox="0 0 16 16" fill="none" xmlns="http://www.w3.org/2000/svg">
<path fill-rule="evenodd" clip-rule="evenodd" d="M10.9395 7.5911L7.9394 4.59099C7.6465 4.2981 7.6465 3.82322 7.9394 3.53033C8.23229 3.23744 8.70716 3.23744 9.00006 3.53033L13.0608 7.5911L9.00006 11.6519C8.70716 11.9448 8.23229 11.9448 7.9394 11.6519C7.6465 11.359 7.6465 10.8841 7.9394 10.5912L10.9395 7.5911Z" fill="white"/>
<path fill-rule="evenodd" clip-rule="evenodd" d="M1 7.75C1 8.16421 1.33579 8.5 1.75 8.5H11.25C11.6642 8.5 12 8.16421 12 7.75C12 7.33579 11.6642 7 11.25 7H1.75C1.33579 7 1 7.33579 1 7.75Z" fill="white"/>
<path fill-rule="evenodd" clip-rule="evenodd" d="M13.75 14C14.1642 14 14.5 13.6642 14.5 13.25L14.5 2.75C14.5 2.33579 14.1642 2 13.75 2C13.3358 2 13 2.33579 13 2.75L13 13.25C13 13.6642 13.3358 14 13.75 14Z" fill="white"/>
</svg>
