<svg width="24" height="24" viewBox="0 0 24 24" fill="none" xmlns="http://www.w3.org/2000/svg">
<path fill-rule="evenodd" clip-rule="evenodd" d="M10.9189 1.73588C11.5881 1.36929 12.4126 1.36929 13.0819 1.73588L20.5189 5.80978C21.1881 6.17637 21.6004 6.85386 21.6004 7.58703V15.7348C21.6004 16.468 21.1881 17.1455 20.5189 17.5121L13.0819 21.586C12.4126 21.9526 11.5881 21.9526 10.9189 21.586L3.48187 17.5121C2.81265 17.1455 2.40039 16.468 2.40039 15.7348V7.58703C2.40039 6.85386 2.81265 6.17637 3.48187 5.80978L10.9189 1.73588ZM6.90198 8.41881C6.99735 8.22653 7.23896 8.144 7.44162 8.23449L11.8626 10.2084L16.1494 8.23642C16.3509 8.1437 16.5935 8.22356 16.6912 8.41478C16.7889 8.606 16.7048 8.83617 16.5032 8.92889L12.2461 10.8872C12.2621 10.9285 12.2708 10.9731 12.2708 11.0196V15.124C12.2708 15.3365 12.0892 15.5088 11.8652 15.5088C11.6412 15.5088 11.4597 15.3365 11.4597 15.124V11.0196C11.4597 10.974 11.468 10.9302 11.4834 10.8896L7.09625 8.93081C6.89359 8.84033 6.80661 8.6111 6.90198 8.41881Z" fill="url(#paint0_linear_11251_184682)"/>
<defs>
<linearGradient id="paint0_linear_11251_184682" x1="12.0004" y1="1.46094" x2="12.0004" y2="21.8609" gradientUnits="userSpaceOnUse">
<stop stop-color="white"/>
<stop offset="1" stop-color="white" stop-opacity="0.5"/>
</linearGradient>
</defs>
</svg>
