<svg width="16" height="16" viewBox="0 0 16 16" fill="none" xmlns="http://www.w3.org/2000/svg">
<path fill-rule="evenodd" clip-rule="evenodd" d="M11 4V2C11 1.44772 10.5523 1 10 1H5.25147C5.1715 1 5.09243 1.00958 5.01582 1.02816V4.03673C5.01582 4.58902 4.5681 5.03673 4.01582 5.03673H1V12C1 12.5523 1.44772 13 2 13H4V14H2C0.895431 14 0 13.1046 0 12V5.03673V4.85062V4.84504C0 4.26831 0.24896 3.71966 0.68299 3.33988L3.93446 0.494847C4.29904 0.175836 4.76702 0 5.25147 0H10C11.1046 0 12 0.895431 12 2V4H11ZM11.9764 6.62498C11.9764 6.27981 11.6965 6 11.3514 6H10.1015C9.75632 6 9.47651 6.27981 9.47651 6.62498V7.46328C9.03853 7.61805 8.6379 7.85187 8.29175 8.14761L7.56252 7.72657C7.2636 7.55398 6.88138 7.65639 6.7088 7.95532L6.08383 9.03787C5.91125 9.3368 6.01368 9.71904 6.3126 9.89163L7.03946 10.3113C6.99802 10.5346 6.97636 10.7647 6.97636 11C6.97636 11.2333 6.99765 11.4615 7.0384 11.683L6.3135 12.1016C6.01458 12.2741 5.91216 12.6564 6.08473 12.9553L6.7097 14.0379C6.88228 14.3368 7.26451 14.4392 7.56343 14.2666L8.28736 13.8486C8.63451 14.1461 9.03668 14.3813 9.4765 14.5367V15.375C9.4765 15.7202 9.75632 16 10.1015 16H11.3514C11.6965 16 11.9764 15.7202 11.9764 15.375V14.5365C12.4161 14.381 12.8182 14.1458 13.1653 13.8483L13.8899 14.2666C14.1888 14.4392 14.571 14.3368 14.7436 14.0379L15.3685 12.9553C15.5411 12.6564 15.4387 12.2741 15.1398 12.1016L14.414 11.6825C14.4547 11.4612 14.4759 11.2331 14.4759 11C14.4759 10.7649 14.4543 10.5349 14.4129 10.3118L15.1407 9.89163C15.4396 9.71904 15.542 9.3368 15.3694 9.03787L14.7445 7.95532C14.5719 7.65639 14.1897 7.55398 13.8908 7.72657L13.1609 8.14796C12.8148 7.85219 12.4143 7.61832 11.9764 7.46349V6.62498ZM12.5105 10.9956C12.5105 11.9813 11.7116 12.7803 10.726 12.7803C9.74038 12.7803 8.94141 11.9813 8.94141 10.9956C8.94141 10.01 9.74038 9.21094 10.726 9.21094C11.7116 9.21094 12.5105 10.01 12.5105 10.9956Z" fill="#538BFF"/>
</svg>
