<svg width="16" height="17" viewBox="0 0 16 17" fill="none" xmlns="http://www.w3.org/2000/svg">
<path d="M5.848 3.93359H4C2.89543 3.93359 2 4.82902 2 5.93359V12.9336C2 14.0382 2.89543 14.9336 4 14.9336H11C12.1046 14.9336 13 14.0382 13 12.9336V10.7431" stroke="#D9D9D9" stroke-width="1.2" stroke-linecap="round"/>
<mask id="path-2-inside-1_13437_17987" fill="white">
<path fill-rule="evenodd" clip-rule="evenodd" d="M12.8045 6.29991L10.5748 4.07031L5.37264 9.27217L5.3726 9.27213L5.37258 9.27222L5.37209 9.27271L5.37246 9.27308L5.22386 10.3132L5.12492 11.0058L5.00098 11.8733L5.86859 11.7494L6.56118 11.6505L7.60136 11.5019L7.60181 11.5023L12.8045 6.29991Z"/>
</mask>
<path d="M10.5748 4.07031L11.2819 3.36319L10.5748 2.65614L9.86768 3.36319L10.5748 4.07031ZM12.8045 6.29991L13.5116 7.00704L14.2187 6.29991L13.5116 5.59279L12.8045 6.29991ZM5.37264 9.27217L4.66527 9.97902L5.37236 10.6866L6.07972 9.97929L5.37264 9.27217ZM5.3726 9.27213L6.07996 8.56528L4.66585 7.15013L4.38267 9.13058L5.3726 9.27213ZM5.37258 9.27222L6.07971 9.97931L6.31534 9.74366L6.36251 9.41378L5.37258 9.27222ZM5.37209 9.27271L4.66496 8.56563L3.95781 9.27282L4.66507 9.97991L5.37209 9.27271ZM5.37246 9.27308L6.36241 9.41451L6.43313 8.91945L6.07948 8.56589L5.37246 9.27308ZM5.22386 10.3132L4.23391 10.1718L5.22386 10.3132ZM5.12492 11.0058L6.11487 11.1472L5.12492 11.0058ZM5.00098 11.8733L4.01103 11.7319L3.82246 13.0518L5.14239 12.8633L5.00098 11.8733ZM5.86859 11.7494L5.72717 10.7594H5.72717L5.86859 11.7494ZM6.56118 11.6505L6.70259 12.6404H6.7026L6.56118 11.6505ZM7.60136 11.5019L8.30847 10.7948L7.95492 10.4412L7.45995 10.5119L7.60136 11.5019ZM7.60181 11.5023L6.8947 12.2094L7.60179 12.9165L8.3089 12.2094L7.60181 11.5023ZM9.86768 4.77744L12.0974 7.00704L13.5116 5.59279L11.2819 3.36319L9.86768 4.77744ZM6.07972 9.97929L11.2819 4.77744L9.86768 3.36319L4.66555 8.56504L6.07972 9.97929ZM6.08 8.56532L6.07996 8.56528L4.66523 9.97897L4.66527 9.97902L6.08 8.56532ZM4.38267 9.13058L4.38265 9.13067L6.36251 9.41378L6.36253 9.41368L4.38267 9.13058ZM6.07922 9.9798L6.07971 9.97931L4.66545 8.56514L4.66496 8.56563L6.07922 9.9798ZM6.07948 8.56589L6.07911 8.56552L4.66507 9.97991L4.66544 9.98027L6.07948 8.56589ZM4.38251 9.13165L4.23391 10.1718L6.21381 10.4546L6.36241 9.41451L4.38251 9.13165ZM4.23391 10.1718L4.13497 10.8643L6.11487 11.1472L6.21381 10.4546L4.23391 10.1718ZM4.13497 10.8643L4.01103 11.7319L5.99092 12.0148L6.11487 11.1472L4.13497 10.8643ZM5.14239 12.8633L6.01 12.7393L5.72717 10.7594L4.85956 10.8834L5.14239 12.8633ZM6.01 12.7393L6.70259 12.6404L6.41977 10.6605L5.72717 10.7594L6.01 12.7393ZM6.7026 12.6404L7.74278 12.4918L7.45995 10.5119L6.41977 10.6605L6.7026 12.6404ZM8.30892 10.7952L8.30847 10.7948L6.89426 12.209L6.8947 12.2094L8.30892 10.7952ZM12.0974 5.59279L6.89472 10.7952L8.3089 12.2094L13.5116 7.00704L12.0974 5.59279Z" fill="#D9D9D9" mask="url(#path-2-inside-1_13437_17987)"/>
<path d="M12.1756 2.5285C12.5041 2.19994 13.0369 2.19994 13.3654 2.5285L14.4053 3.56829C14.7339 3.89685 14.7339 4.42954 14.4053 4.7581L13.5137 5.64959L11.284 3.41999L12.1756 2.5285Z" fill="#D9D9D9"/>
</svg>
