<svg width="20" height="20" viewBox="0 0 20 20" fill="none" xmlns="http://www.w3.org/2000/svg">
<path d="M2.508 5.50044V5.5C2.508 4.97789 2.96861 4.5 3.6 4.5H16.4C17.0347 4.5 17.5 4.98105 17.5 5.5V14.5C17.5 15.019 17.0347 15.5 16.4 15.5H3.6C2.96533 15.5 2.50011 15.0191 2.5 14.5002C2.5 14.5001 2.5 14.5001 2.5 14.5L2.508 5.50044ZM16.2236 8.44721L16.5 8.30902V8V6V5.19098L15.7764 5.55279L10 8.44098L4.22361 5.55279L3.5 5.19098V6V8V8.30902L3.77639 8.44721L9.77639 11.4472L10 11.559L10.2236 11.4472L16.2236 8.44721Z" fill="url(#paint0_linear_11250_182554)" fill-opacity="0.8" stroke="url(#paint1_linear_11250_182554)"/>
<defs>
<linearGradient id="paint0_linear_11250_182554" x1="10" y1="4" x2="10" y2="16" gradientUnits="userSpaceOnUse">
<stop stop-color="white"/>
<stop offset="1" stop-color="white" stop-opacity="0.5"/>
</linearGradient>
<linearGradient id="paint1_linear_11250_182554" x1="10" y1="4" x2="10" y2="16" gradientUnits="userSpaceOnUse">
<stop stop-color="white"/>
<stop offset="1" stop-color="white" stop-opacity="0"/>
</linearGradient>
</defs>
</svg>
