<svg width="16" height="16" viewBox="0 0 16 16" fill="none" xmlns="http://www.w3.org/2000/svg">
<g clip-path="url(#clip0_3100_48723)">
<path d="M7.88602 6L9.99935 8.10667V8C9.99935 7.46957 9.78864 6.96086 9.41356 6.58579C9.03849 6.21071 8.52978 6 7.99935 6H7.88602ZM5.01935 6.53333L6.05268 7.56667C6.01935 7.70667 5.99935 7.84667 5.99935 8C5.99935 8.53043 6.21006 9.03914 6.58514 9.41421C6.96021 9.78929 7.46892 10 7.99935 10C8.14602 10 8.29268 9.98 8.43268 9.94667L9.46602 10.98C9.01935 11.2 8.52602 11.3333 7.99935 11.3333C7.11529 11.3333 6.26745 10.9821 5.64233 10.357C5.01721 9.7319 4.66602 8.88406 4.66602 8C4.66602 7.47333 4.79935 6.98 5.01935 6.53333ZM1.33268 2.84667L2.85268 4.36667L3.15268 4.66667C2.05268 5.53333 1.18602 6.66667 0.666016 8C1.81935 10.9267 4.66602 13 7.99935 13C9.03268 13 10.0193 12.8 10.9193 12.44L11.206 12.72L13.1527 14.6667L13.9993 13.82L2.17935 2M7.99935 4.66667C8.8834 4.66667 9.73125 5.01786 10.3564 5.64298C10.9815 6.2681 11.3327 7.11595 11.3327 8C11.3327 8.42667 11.246 8.84 11.0927 9.21333L13.046 11.1667C14.046 10.3333 14.846 9.24 15.3327 8C14.1793 5.07333 11.3327 3 7.99935 3C7.06602 3 6.17268 3.16667 5.33268 3.46667L6.77935 4.9C7.15935 4.75333 7.56602 4.66667 7.99935 4.66667Z" fill="white" fill-opacity="0.4"/>
</g>
<defs>
<clipPath id="clip0_3100_48723">
<rect width="16" height="16" fill="white"/>
</clipPath>
</defs>
</svg>
