<svg width="16" height="16" viewBox="0 0 16 16" fill="none" xmlns="http://www.w3.org/2000/svg">
<path d="M7.99967 1.33594C4.31967 1.33594 1.33301 4.3226 1.33301 8.0026C1.33301 11.6826 4.31967 14.6693 7.99967 14.6693C11.6797 14.6693 14.6663 11.6826 14.6663 8.0026C14.6663 4.3226 11.6797 1.33594 7.99967 1.33594ZM2.66634 8.0026C2.66634 5.05594 5.05301 2.66927 7.99967 2.66927C9.23301 2.66927 10.3663 3.08927 11.2663 3.79594L3.79301 11.2693C3.08634 10.3693 2.66634 9.23594 2.66634 8.0026ZM7.99967 13.3359C6.76634 13.3359 5.63301 12.9159 4.73301 12.2093L12.2063 4.73594C12.913 5.63594 13.333 6.76927 13.333 8.0026C13.333 10.9493 10.9463 13.3359 7.99967 13.3359Z" fill="#FFA800"/>
</svg>
