<svg width="28" height="28" viewBox="0 0 28 28" fill="none" xmlns="http://www.w3.org/2000/svg">
<g filter="url(#filter0_d_12786_39570)">
<path fill-rule="evenodd" clip-rule="evenodd" d="M12.7645 4.26426C13.4138 3.91191 14.2137 3.91191 14.863 4.26427L22.0782 8.17998C22.7275 8.53233 23.1275 9.1835 23.1275 9.88821V17.7196C23.1275 18.4243 22.7275 19.0755 22.0782 19.4279L14.863 23.3436C14.2137 23.6959 13.4138 23.6959 12.7645 23.3436L5.54923 19.4279C4.89996 19.0755 4.5 18.4243 4.5 17.7196V9.88821C4.5 9.1835 4.89996 8.53233 5.54923 8.17998L12.7645 4.26426ZM8.86735 10.6877C8.95988 10.5029 9.19428 10.4236 9.3909 10.5105L13.68 12.4078L17.839 10.5124C18.0345 10.4233 18.2699 10.5 18.3647 10.6838C18.4595 10.8676 18.3778 11.0888 18.1823 11.178L14.0521 13.0603C14.0676 13.0999 14.076 13.1428 14.076 13.1875V17.1325C14.076 17.3368 13.8999 17.5024 13.6826 17.5024C13.4653 17.5024 13.2891 17.3368 13.2891 17.1325V13.1875C13.2891 13.1437 13.2972 13.1016 13.3121 13.0626L9.05583 11.1798C8.85921 11.0928 8.77483 10.8725 8.86735 10.6877Z" fill="url(#paint0_linear_12786_39570)" shape-rendering="crispEdges"/>
</g>
<defs>
<filter id="filter0_d_12786_39570" x="0.5" y="0" width="26.6279" height="27.6094" filterUnits="userSpaceOnUse" color-interpolation-filters="sRGB">
<feFlood flood-opacity="0" result="BackgroundImageFix"/>
<feColorMatrix in="SourceAlpha" type="matrix" values="0 0 0 0 0 0 0 0 0 0 0 0 0 0 0 0 0 0 127 0" result="hardAlpha"/>
<feOffset/>
<feGaussianBlur stdDeviation="2"/>
<feComposite in2="hardAlpha" operator="out"/>
<feColorMatrix type="matrix" values="0 0 0 0 0 0 0 0 0 0 0 0 0 0 0 0 0 0 0.2 0"/>
<feBlend mode="normal" in2="BackgroundImageFix" result="effect1_dropShadow_12786_39570"/>
<feBlend mode="normal" in="SourceGraphic" in2="effect1_dropShadow_12786_39570" result="shape"/>
</filter>
<linearGradient id="paint0_linear_12786_39570" x1="13.8137" y1="4" x2="13.8137" y2="23.6078" gradientUnits="userSpaceOnUse">
<stop stop-color="white" stop-opacity="0.8"/>
<stop offset="1" stop-color="white" stop-opacity="0.4"/>
</linearGradient>
</defs>
</svg>
