<svg width="49" height="48" viewBox="0 0 49 48" fill="none" xmlns="http://www.w3.org/2000/svg">
<rect x="0.5" width="48" height="48" rx="24" fill="#125AED"/>
<mask id="path-2-inside-1_12641_193830" fill="white">
<path fill-rule="evenodd" clip-rule="evenodd" d="M30.5198 17.2929C30.9104 17.6834 30.9104 18.3166 30.5198 18.7071L25.5708 23.6561L30.5213 28.6066C30.9119 28.9971 30.9119 29.6303 30.5213 30.0208C30.1308 30.4113 29.4977 30.4113 29.1071 30.0208L24.1566 25.0703L19.2061 30.0208C18.8156 30.4113 18.1824 30.4113 17.7919 30.0208C17.4014 29.6303 17.4014 28.9971 17.7919 28.6066L22.7424 23.6561L17.7934 18.7071C17.4029 18.3166 17.4029 17.6834 17.7934 17.2929C18.184 16.9024 18.8171 16.9024 19.2076 17.2929L24.1566 22.2419L29.1056 17.2929C29.4961 16.9024 30.1293 16.9024 30.5198 17.2929Z"/>
</mask>
<path fill-rule="evenodd" clip-rule="evenodd" d="M30.5198 17.2929C30.9104 17.6834 30.9104 18.3166 30.5198 18.7071L25.5708 23.6561L30.5213 28.6066C30.9119 28.9971 30.9119 29.6303 30.5213 30.0208C30.1308 30.4113 29.4977 30.4113 29.1071 30.0208L24.1566 25.0703L19.2061 30.0208C18.8156 30.4113 18.1824 30.4113 17.7919 30.0208C17.4014 29.6303 17.4014 28.9971 17.7919 28.6066L22.7424 23.6561L17.7934 18.7071C17.4029 18.3166 17.4029 17.6834 17.7934 17.2929C18.184 16.9024 18.8171 16.9024 19.2076 17.2929L24.1566 22.2419L29.1056 17.2929C29.4961 16.9024 30.1293 16.9024 30.5198 17.2929Z" fill="url(#paint0_linear_12641_193830)"/>
<path d="M30.5198 18.7071L29.8127 18L29.8127 18L30.5198 18.7071ZM30.5198 17.2929L31.2269 16.5858L31.2269 16.5858L30.5198 17.2929ZM25.5708 23.6561L24.8637 22.949L24.1566 23.6561L24.8637 24.3632L25.5708 23.6561ZM30.5213 28.6066L31.2285 27.8995V27.8995L30.5213 28.6066ZM30.5213 30.0208L29.8142 29.3137H29.8142L30.5213 30.0208ZM29.1071 30.0208L29.8142 29.3137L29.8142 29.3137L29.1071 30.0208ZM24.1566 25.0703L24.8637 24.3632L24.1566 23.6561L23.4495 24.3632L24.1566 25.0703ZM19.2061 30.0208L18.499 29.3137H18.499L19.2061 30.0208ZM17.7919 30.0208L18.499 29.3137L18.499 29.3137L17.7919 30.0208ZM17.7919 28.6066L18.499 29.3137H18.499L17.7919 28.6066ZM22.7424 23.6561L23.4495 24.3632L24.1566 23.6561L23.4495 22.949L22.7424 23.6561ZM17.7934 18.7071L17.0863 19.4142H17.0863L17.7934 18.7071ZM17.7934 17.2929L18.5005 18H18.5005L17.7934 17.2929ZM19.2076 17.2929L18.5005 18L19.2076 17.2929ZM24.1566 22.2419L23.4495 22.949L24.1566 23.6561L24.8637 22.949L24.1566 22.2419ZM29.1056 17.2929L28.3985 16.5858L28.3985 16.5858L29.1056 17.2929ZM31.2269 19.4142C32.008 18.6332 32.008 17.3668 31.2269 16.5858L29.8127 18V18L31.2269 19.4142ZM26.278 24.3632L31.2269 19.4142L29.8127 18L24.8637 22.949L26.278 24.3632ZM24.8637 24.3632L29.8142 29.3137L31.2285 27.8995L26.278 22.949L24.8637 24.3632ZM29.8142 29.3137L31.2285 30.7279C32.0095 29.9469 32.0095 28.6805 31.2285 27.8995L29.8142 29.3137ZM29.8142 29.3137H29.8142L28.4 30.7279C29.1811 31.509 30.4474 31.509 31.2285 30.7279L29.8142 29.3137ZM29.8142 29.3137L24.8637 24.3632L23.4495 25.7774L28.4 30.7279L29.8142 29.3137ZM19.9132 30.7279L24.8637 25.7774L23.4495 24.3632L18.499 29.3137L19.9132 30.7279ZM17.0848 30.7279C17.8659 31.509 19.1322 31.509 19.9132 30.7279L18.499 29.3137H18.499L17.0848 30.7279ZM17.0848 27.8995C16.3038 28.6805 16.3038 29.9469 17.0848 30.7279L18.499 29.3137L18.499 29.3137L17.0848 27.8995ZM22.0353 22.949L17.0848 27.8995L18.499 29.3137L23.4495 24.3632L22.0353 22.949ZM23.4495 22.949L18.5005 18L17.0863 19.4142L22.0353 24.3632L23.4495 22.949ZM18.5005 18L18.5005 18L17.0863 16.5858C16.3053 17.3668 16.3053 18.6332 17.0863 19.4142L18.5005 18ZM18.5005 18L19.9147 16.5858C19.1337 15.8047 17.8674 15.8047 17.0863 16.5858L18.5005 18ZM18.5005 18L23.4495 22.949L24.8637 21.5348L19.9147 16.5858L18.5005 18ZM28.3985 16.5858L23.4495 21.5348L24.8637 22.949L29.8127 18L28.3985 16.5858ZM31.2269 16.5858C30.4459 15.8047 29.1796 15.8047 28.3985 16.5858L29.8127 18H29.8127L31.2269 16.5858Z" fill="url(#paint1_linear_12641_193830)" mask="url(#path-2-inside-1_12641_193830)"/>
<defs>
<linearGradient id="paint0_linear_12641_193830" x1="24.1566" y1="17" x2="24.1566" y2="30.3137" gradientUnits="userSpaceOnUse">
<stop stop-color="white" stop-opacity="0.8"/>
<stop offset="1" stop-color="white" stop-opacity="0.4"/>
</linearGradient>
<linearGradient id="paint1_linear_12641_193830" x1="24.1566" y1="17" x2="24.1566" y2="30.3137" gradientUnits="userSpaceOnUse">
<stop stop-color="white"/>
<stop offset="1" stop-color="white" stop-opacity="0"/>
</linearGradient>
</defs>
</svg>
