<svg width="20" height="20" viewBox="0 0 20 20" fill="none" xmlns="http://www.w3.org/2000/svg">
<mask id="path-1-inside-1_12679_189182" fill="white">
<path fill-rule="evenodd" clip-rule="evenodd" d="M8.86338 2.73438C8.45895 2.73438 8.10642 3.00962 8.00833 3.40198L7.26692 6.36762H5.28073C4.86362 6.36762 4.50009 6.65165 4.39921 7.05638C4.25632 7.62962 4.68995 8.1846 5.28073 8.1846H6.81268L5.90382 11.82H3.90503C3.48792 11.82 3.1244 12.104 3.02351 12.5088C2.88062 13.082 3.31425 13.637 3.90503 13.637H5.44958L4.81505 16.1751C4.67598 16.7314 5.09671 17.2702 5.6701 17.2702C6.07453 17.2702 6.42706 16.995 6.52515 16.6026L7.26656 13.637H10.5543L9.91974 16.1751C9.78067 16.7314 10.2014 17.2702 10.7748 17.2702C11.1792 17.2702 11.5317 16.995 11.6298 16.6026L12.3712 13.637H14.7141C15.1312 13.637 15.4947 13.353 15.5956 12.9482C15.7385 12.375 15.3049 11.82 14.7141 11.82H12.8255L13.7343 8.1846H16.0898C16.5069 8.1846 16.8704 7.90057 16.9713 7.49585C17.1142 6.92261 16.6806 6.36762 16.0898 6.36762H14.1886L14.8231 3.8295C14.9622 3.27323 14.5415 2.73438 13.9681 2.73438C13.5636 2.73438 13.2111 3.00962 13.113 3.40198L12.3716 6.36762H9.0839L9.71843 3.8295C9.8575 3.27323 9.43677 2.73438 8.86338 2.73438ZM11.0085 11.82L11.9174 8.1846H8.62966L7.72081 11.82H11.0085Z"/>
</mask>
<path fill-rule="evenodd" clip-rule="evenodd" d="M8.86338 2.73438C8.45895 2.73438 8.10642 3.00962 8.00833 3.40198L7.26692 6.36762H5.28073C4.86362 6.36762 4.50009 6.65165 4.39921 7.05638C4.25632 7.62962 4.68995 8.1846 5.28073 8.1846H6.81268L5.90382 11.82H3.90503C3.48792 11.82 3.1244 12.104 3.02351 12.5088C2.88062 13.082 3.31425 13.637 3.90503 13.637H5.44958L4.81505 16.1751C4.67598 16.7314 5.09671 17.2702 5.6701 17.2702C6.07453 17.2702 6.42706 16.995 6.52515 16.6026L7.26656 13.637H10.5543L9.91974 16.1751C9.78067 16.7314 10.2014 17.2702 10.7748 17.2702C11.1792 17.2702 11.5317 16.995 11.6298 16.6026L12.3712 13.637H14.7141C15.1312 13.637 15.4947 13.353 15.5956 12.9482C15.7385 12.375 15.3049 11.82 14.7141 11.82H12.8255L13.7343 8.1846H16.0898C16.5069 8.1846 16.8704 7.90057 16.9713 7.49585C17.1142 6.92261 16.6806 6.36762 16.0898 6.36762H14.1886L14.8231 3.8295C14.9622 3.27323 14.5415 2.73438 13.9681 2.73438C13.5636 2.73438 13.2111 3.00962 13.113 3.40198L12.3716 6.36762H9.0839L9.71843 3.8295C9.8575 3.27323 9.43677 2.73438 8.86338 2.73438ZM11.0085 11.82L11.9174 8.1846H8.62966L7.72081 11.82H11.0085Z" fill="url(#paint0_linear_12679_189182)"/>
<path d="M8.00833 3.40198L8.97847 3.64451L8.97847 3.64451L8.00833 3.40198ZM7.26692 6.36762V7.36762H8.0477L8.23706 6.61016L7.26692 6.36762ZM4.39921 7.05638L3.4289 6.81451L3.4289 6.81451L4.39921 7.05638ZM6.81268 8.1846L7.78282 8.42714L8.09345 7.1846H6.81268V8.1846ZM5.90382 11.82V12.82H6.6846L6.87397 12.0625L5.90382 11.82ZM3.02351 12.5088L3.99382 12.7506L3.99382 12.7506L3.02351 12.5088ZM5.44958 13.637L6.41972 13.8795L6.73035 12.637H5.44958V13.637ZM4.81505 16.1751L5.78519 16.4176L5.78519 16.4176L4.81505 16.1751ZM7.26656 13.637V12.637H6.48578L6.29642 13.3945L7.26656 13.637ZM10.5543 13.637L11.5244 13.8795L11.835 12.637H10.5543V13.637ZM9.91974 16.1751L10.8899 16.4176L10.8899 16.4176L9.91974 16.1751ZM11.6298 16.6026L10.6597 16.3601L10.6597 16.3601L11.6298 16.6026ZM12.3712 13.637V12.637H11.5905L11.4011 13.3945L12.3712 13.637ZM15.5956 12.9482L16.5659 13.1901L16.5659 13.1901L15.5956 12.9482ZM12.8255 11.82L11.8553 11.5775L11.5447 12.82H12.8255V11.82ZM13.7343 8.1846V7.1846H12.9536L12.7642 7.94207L13.7343 8.1846ZM16.9713 7.49585L17.9416 7.73772L17.9416 7.73771L16.9713 7.49585ZM14.1886 6.36762L13.2184 6.12509L12.9078 7.36762H14.1886V6.36762ZM14.8231 3.8295L15.7933 4.07204L15.7933 4.07204L14.8231 3.8295ZM13.113 3.40198L14.0832 3.64451L14.0832 3.64451L13.113 3.40198ZM12.3716 6.36762V7.36762H13.1524L13.3417 6.61016L12.3716 6.36762ZM9.0839 6.36762L8.11376 6.12509L7.80313 7.36762H9.0839V6.36762ZM9.71843 3.8295L8.74829 3.58697L8.74829 3.58697L9.71843 3.8295ZM11.0085 11.82V12.82H11.7893L11.9787 12.0625L11.0085 11.82ZM11.9174 8.1846L12.8875 8.42714L13.1981 7.1846H11.9174V8.1846ZM8.62966 8.1846V7.1846H7.84888L7.65951 7.94207L8.62966 8.1846ZM7.72081 11.82L6.75066 11.5775L6.44003 12.82H7.72081V11.82ZM8.97847 3.64451C8.96527 3.69733 8.91782 3.73438 8.86338 3.73438V1.73438C8.00008 1.73438 7.24757 2.32192 7.03819 3.15944L8.97847 3.64451ZM8.23706 6.61016L8.97847 3.64451L7.03819 3.15944L6.29678 6.12509L8.23706 6.61016ZM5.28073 7.36762H7.26692V5.36762H5.28073V7.36762ZM5.36952 7.29825C5.35936 7.33901 5.32274 7.36762 5.28073 7.36762V5.36762C4.40449 5.36762 3.64083 5.96429 3.4289 6.81451L5.36952 7.29825ZM5.28073 7.1846C5.34023 7.1846 5.38391 7.24051 5.36952 7.29825L3.4289 6.81451C3.12873 8.01873 4.03966 9.1846 5.28073 9.1846V7.1846ZM6.81268 7.1846H5.28073V9.1846H6.81268V7.1846ZM6.87397 12.0625L7.78282 8.42714L5.84253 7.94207L4.93368 11.5775L6.87397 12.0625ZM3.90503 12.82H5.90382V10.82H3.90503V12.82ZM3.99382 12.7506C3.98366 12.7914 3.94704 12.82 3.90503 12.82V10.82C3.0288 10.82 2.26514 11.4167 2.0532 12.2669L3.99382 12.7506ZM3.90503 12.637C3.96454 12.637 4.00822 12.6929 3.99382 12.7506L2.0532 12.2669C1.75303 13.4711 2.66396 14.637 3.90503 14.637V12.637ZM5.44958 12.637H3.90503V14.637H5.44958V12.637ZM5.78519 16.4176L6.41972 13.8795L4.47944 13.3945L3.84491 15.9326L5.78519 16.4176ZM5.6701 16.2702C5.74728 16.2702 5.80391 16.3428 5.78519 16.4176L3.84491 15.9326C3.54805 17.12 4.44614 18.2702 5.6701 18.2702V16.2702ZM5.55501 16.3601C5.56821 16.3073 5.61566 16.2702 5.6701 16.2702V18.2702C6.5334 18.2702 7.28591 17.6827 7.49529 16.8452L5.55501 16.3601ZM6.29642 13.3945L5.55501 16.3601L7.49529 16.8452L8.2367 13.8795L6.29642 13.3945ZM10.5543 12.637H7.26656V14.637H10.5543V12.637ZM10.8899 16.4176L11.5244 13.8795L9.58412 13.3945L8.94959 15.9326L10.8899 16.4176ZM10.7748 16.2702C10.852 16.2702 10.9086 16.3428 10.8899 16.4176L8.94959 15.9326C8.65274 17.12 9.55082 18.2702 10.7748 18.2702V16.2702ZM10.6597 16.3601C10.6729 16.3073 10.7204 16.2702 10.7748 16.2702V18.2702C11.6381 18.2702 12.3906 17.6827 12.6 16.8452L10.6597 16.3601ZM11.4011 13.3945L10.6597 16.3601L12.6 16.8452L13.3414 13.8795L11.4011 13.3945ZM14.7141 12.637H12.3712V14.637H14.7141V12.637ZM14.6253 12.7064C14.6355 12.6656 14.6721 12.637 14.7141 12.637V14.637C15.5904 14.637 16.354 14.0403 16.5659 13.1901L14.6253 12.7064ZM14.7141 12.82C14.6546 12.82 14.6109 12.7641 14.6253 12.7064L16.5659 13.1901C16.8661 11.9859 15.9552 10.82 14.7141 10.82V12.82ZM12.8255 12.82H14.7141V10.82H12.8255V12.82ZM12.7642 7.94207L11.8553 11.5775L13.7956 12.0625L14.7045 8.42714L12.7642 7.94207ZM16.0898 7.1846H13.7343V9.1846H16.0898V7.1846ZM16.001 7.25398C16.0112 7.21321 16.0478 7.1846 16.0898 7.1846V9.1846C16.966 9.1846 17.7297 8.58793 17.9416 7.73772L16.001 7.25398ZM16.0898 7.36762C16.0303 7.36762 15.9866 7.31172 16.001 7.25398L17.9416 7.73771C18.2418 6.5335 17.3309 5.36762 16.0898 5.36762V7.36762ZM14.1886 7.36762H16.0898V5.36762H14.1886V7.36762ZM13.853 3.58697L13.2184 6.12509L15.1587 6.61016L15.7933 4.07204L13.853 3.58697ZM13.9681 3.73438C13.8909 3.73438 13.8343 3.66184 13.853 3.58697L15.7933 4.07204C16.0901 2.88462 15.192 1.73438 13.9681 1.73438V3.73438ZM14.0832 3.64451C14.07 3.69733 14.0225 3.73438 13.9681 3.73438V1.73438C13.1048 1.73438 12.3523 2.32192 12.1429 3.15944L14.0832 3.64451ZM13.3417 6.61016L14.0832 3.64451L12.1429 3.15944L11.4015 6.12509L13.3417 6.61016ZM9.0839 7.36762H12.3716V5.36762H9.0839V7.36762ZM8.74829 3.58697L8.11376 6.12509L10.054 6.61016L10.6886 4.07204L8.74829 3.58697ZM8.86338 3.73438C8.7862 3.73438 8.72957 3.66184 8.74829 3.58697L10.6886 4.07204C10.9854 2.88462 10.0873 1.73438 8.86338 1.73438V3.73438ZM11.9787 12.0625L12.8875 8.42714L10.9472 7.94207L10.0384 11.5775L11.9787 12.0625ZM11.9174 7.1846H8.62966V9.1846H11.9174V7.1846ZM7.65951 7.94207L6.75066 11.5775L8.69095 12.0625L9.5998 8.42714L7.65951 7.94207ZM7.72081 12.82H11.0085V10.82H7.72081V12.82Z" fill="url(#paint1_linear_12679_189182)" mask="url(#path-1-inside-1_12679_189182)"/>
<defs>
<linearGradient id="paint0_linear_12679_189182" x1="9.99742" y1="2.73438" x2="9.99742" y2="17.2702" gradientUnits="userSpaceOnUse">
<stop stop-color="white" stop-opacity="0.8"/>
<stop offset="1" stop-color="white" stop-opacity="0.4"/>
</linearGradient>
<linearGradient id="paint1_linear_12679_189182" x1="9.99742" y1="2.73438" x2="9.99742" y2="17.2702" gradientUnits="userSpaceOnUse">
<stop stop-color="white"/>
<stop offset="1" stop-color="white" stop-opacity="0"/>
</linearGradient>
</defs>
</svg>
