<svg width="16" height="16" viewBox="0 0 16 16" fill="none" xmlns="http://www.w3.org/2000/svg">
<g id="LibraryBooks">
<path id="Vector" d="M2.66671 4.0026H1.33337V13.3359C1.33337 14.0693 1.93337 14.6693 2.66671 14.6693H12V13.3359H2.66671V4.0026ZM13.3334 1.33594H5.33337C4.60004 1.33594 4.00004 1.93594 4.00004 2.66927V10.6693C4.00004 11.4026 4.60004 12.0026 5.33337 12.0026H13.3334C14.0667 12.0026 14.6667 11.4026 14.6667 10.6693V2.66927C14.6667 1.93594 14.0667 1.33594 13.3334 1.33594ZM12.6667 7.33594H6.00004V6.0026H12.6667V7.33594ZM10 10.0026H6.00004V8.66927H10V10.0026ZM12.6667 4.66927H6.00004V3.33594H12.6667V4.66927Z" fill="white" fill-opacity="0.4"/>
</g>
</svg>
