<svg width="288" height="476" viewBox="0 0 288 476" fill="none" xmlns="http://www.w3.org/2000/svg">
<rect width="288" height="476" fill="#1E2533"/>
<rect x="172" y="277" width="56" height="216" rx="28" transform="rotate(-180 172 277)" fill="url(#paint0_linear_12842_188946)" fill-opacity="0.2"/>
<rect x="171.5" y="276.5" width="55" height="215" rx="27.5" transform="rotate(-180 171.5 276.5)" stroke="url(#paint1_linear_12842_188946)" stroke-opacity="0.2"/>
<path d="M145.098 172.352C131.545 166.281 122.719 169.823 120 172.352V247.918C120 252.345 123.137 271 145.098 271C162.667 271 167.686 255.612 168 247.918V170.136C166.013 173.404 158.651 178.423 145.098 172.352Z" fill="url(#paint2_linear_12842_188946)"/>
<circle cx="151.5" cy="21" r="4" fill="url(#paint3_radial_12842_188946)" fill-opacity="0.5"/>
<circle cx="146" cy="147" r="4" fill="url(#paint4_radial_12842_188946)" fill-opacity="0.5"/>
<circle cx="145" cy="79" r="4" fill="url(#paint5_radial_12842_188946)" fill-opacity="0.5"/>
<circle cx="145" cy="109" r="4" fill="url(#paint6_radial_12842_188946)" fill-opacity="0.5"/>
<ellipse cx="155" cy="293" rx="4" ry="4" transform="rotate(90 155 293)" fill="url(#paint7_radial_12842_188946)"/>
<path d="M134 5C136.209 5 138 3.20914 138 1H130C130 3.20914 131.791 5 134 5Z" fill="url(#paint8_radial_12842_188946)" fill-opacity="0.5"/>
<ellipse cx="133" cy="297" rx="4" ry="4" transform="rotate(90 133 297)" fill="url(#paint9_radial_12842_188946)"/>
<circle cx="143" cy="41" r="4" fill="url(#paint10_radial_12842_188946)" fill-opacity="0.5"/>
<circle cx="145" cy="69" r="4" fill="url(#paint11_radial_12842_188946)" fill-opacity="0.5"/>
<ellipse cx="141" cy="330" rx="4" ry="4" transform="rotate(90 141 330)" fill="url(#paint12_radial_12842_188946)"/>
<path d="M87.125 189.375V212H84.2812V192.312H84.1562L78.6562 195.969V193.125L84.2812 189.375H87.125ZM115.188 186.781V207.344H112.719V196.656H106.156V202.594H93.5625V188.625H96V193.562H103.75V188.625H106.156V194.594H112.719V186.781H115.188ZM96 200.562H103.75V195.5H96V200.562ZM97.2188 213.938V205.312H99.6875V211.875H115.812V213.938H97.2188ZM142.719 186.75V214.594H140.25V186.75H142.719ZM120.844 198.594C120.859 192.688 123.797 188.922 127.938 188.906C132.062 188.922 135.047 192.688 135.031 198.594C135.047 204.516 132.062 208.266 127.938 208.25C123.797 208.266 120.859 204.516 120.844 198.594ZM123.219 198.594C123.219 203.109 125.156 206.078 127.938 206.062C130.734 206.078 132.656 203.109 132.656 198.594C132.656 194.078 130.734 191.109 127.938 191.094C125.156 191.109 123.219 194.078 123.219 198.594ZM161.938 189.5V207.562H149.094V189.5H161.938ZM151.5 205.562H159.531V191.469H151.5V205.562ZM167.906 214.594V186.75H170.375V214.594H167.906ZM185.062 195.281C185.078 200 188.5 204.797 192.594 206.562L191.219 208.5C187.969 207.031 185.172 203.828 183.875 199.984C182.578 204.062 179.766 207.594 176.594 209.188L175.125 207.25C179.109 205.344 182.578 200.094 182.594 195.281V191.656H176.031V189.625H191.688V191.656H185.062V195.281ZM195.562 214.531V186.75H198.031V214.531H195.562Z" fill="white"/>
<defs>
<linearGradient id="paint0_linear_12842_188946" x1="200" y1="277" x2="200" y2="493" gradientUnits="userSpaceOnUse">
<stop stop-color="white" stop-opacity="0.8"/>
<stop offset="0.489583" stop-color="white" stop-opacity="0"/>
<stop offset="1" stop-color="white" stop-opacity="0.8"/>
</linearGradient>
<linearGradient id="paint1_linear_12842_188946" x1="200" y1="277" x2="200" y2="493" gradientUnits="userSpaceOnUse">
<stop stop-color="white"/>
<stop offset="1" stop-color="white" stop-opacity="0"/>
</linearGradient>
<linearGradient id="paint2_linear_12842_188946" x1="144" y1="172.2" x2="144" y2="270.998" gradientUnits="userSpaceOnUse">
<stop stop-color="#EB4E87"/>
<stop offset="0.604167" stop-color="#9463FF"/>
<stop offset="1" stop-color="#125AED"/>
</linearGradient>
<radialGradient id="paint3_radial_12842_188946" cx="0" cy="0" r="1" gradientUnits="userSpaceOnUse" gradientTransform="translate(151.5 21) rotate(90) scale(4)">
<stop stop-color="white" stop-opacity="0.5"/>
<stop offset="1" stop-color="white" stop-opacity="0.8"/>
</radialGradient>
<radialGradient id="paint4_radial_12842_188946" cx="0" cy="0" r="1" gradientUnits="userSpaceOnUse" gradientTransform="translate(146 147) rotate(90) scale(4)">
<stop stop-color="white" stop-opacity="0.5"/>
<stop offset="1" stop-color="white" stop-opacity="0.8"/>
</radialGradient>
<radialGradient id="paint5_radial_12842_188946" cx="0" cy="0" r="1" gradientUnits="userSpaceOnUse" gradientTransform="translate(145 79) rotate(90) scale(4)">
<stop stop-color="white" stop-opacity="0.5"/>
<stop offset="1" stop-color="white" stop-opacity="0.8"/>
</radialGradient>
<radialGradient id="paint6_radial_12842_188946" cx="0" cy="0" r="1" gradientUnits="userSpaceOnUse" gradientTransform="translate(145 109) rotate(90) scale(4)">
<stop stop-color="white" stop-opacity="0.5"/>
<stop offset="1" stop-color="white" stop-opacity="0.8"/>
</radialGradient>
<radialGradient id="paint7_radial_12842_188946" cx="0" cy="0" r="1" gradientUnits="userSpaceOnUse" gradientTransform="translate(155 293) rotate(90) scale(4)">
<stop stop-color="#9882FF" stop-opacity="0.5"/>
<stop offset="1" stop-color="#9882FF"/>
</radialGradient>
<radialGradient id="paint8_radial_12842_188946" cx="0" cy="0" r="1" gradientUnits="userSpaceOnUse" gradientTransform="translate(134 1) rotate(90) scale(4)">
<stop stop-color="white" stop-opacity="0.5"/>
<stop offset="1" stop-color="white" stop-opacity="0.8"/>
</radialGradient>
<radialGradient id="paint9_radial_12842_188946" cx="0" cy="0" r="1" gradientUnits="userSpaceOnUse" gradientTransform="translate(133 297) rotate(90) scale(4)">
<stop stop-color="#FE327E" stop-opacity="0.5"/>
<stop offset="1" stop-color="#FE327E"/>
</radialGradient>
<radialGradient id="paint10_radial_12842_188946" cx="0" cy="0" r="1" gradientUnits="userSpaceOnUse" gradientTransform="translate(143 41) rotate(90) scale(4)">
<stop stop-color="white" stop-opacity="0.5"/>
<stop offset="1" stop-color="white" stop-opacity="0.8"/>
</radialGradient>
<radialGradient id="paint11_radial_12842_188946" cx="0" cy="0" r="1" gradientUnits="userSpaceOnUse" gradientTransform="translate(145 69) rotate(90) scale(4)">
<stop stop-color="white" stop-opacity="0.5"/>
<stop offset="1" stop-color="white" stop-opacity="0.8"/>
</radialGradient>
<radialGradient id="paint12_radial_12842_188946" cx="0" cy="0" r="1" gradientUnits="userSpaceOnUse" gradientTransform="translate(141 330) rotate(90) scale(4)">
<stop stop-color="#3591FF" stop-opacity="0.5"/>
<stop offset="1" stop-color="#3591FF"/>
</radialGradient>
</defs>
</svg>
