<svg width="16" height="16" viewBox="0 0 16 16" fill="none" xmlns="http://www.w3.org/2000/svg">
<path fill-rule="evenodd" clip-rule="evenodd" d="M7.33183 1.11666C7.78204 0.846531 8.34448 0.846531 8.79469 1.11666L10.3671 2.06012L9.47021 3.55498L8.06326 2.71081L6.65632 3.55498L5.7594 2.06012L7.33183 1.11666ZM12.1723 3.1432L13.7447 4.08666C14.1729 4.34358 14.4349 4.80634 14.4349 5.30571V7.17799H12.6916V5.48782L11.2753 4.63806L12.1723 3.1432ZM14.4349 9.43722V11.3095C14.4349 11.7712 14.2107 12.2041 13.8337 12.4705L12.0077 13.9237L11.0016 12.5L12.6916 11.1429V9.43722H14.4349Z" fill="#FFA800"/>
<path d="M2.63209 4.08604C2.20388 4.34296 1.94188 4.80572 1.94188 5.30509V7.17737H3.68517V5.4872L5.10144 4.63744L4.20452 3.14258L2.63209 4.08604Z" fill="#FFA800"/>
<path fill-rule="evenodd" clip-rule="evenodd" d="M2.9165 13.5323L2.38617 14.0626L3.44683 15.1233L3.97716 14.5929L5.47808 13.092L6.979 14.5929L7.50933 15.1233L8.56999 14.0626L8.03966 13.5323L6.53874 12.0314L8.03966 10.5304L8.56999 10.0001L7.50933 8.93945L6.979 9.46978L5.47808 10.9707L3.97716 9.46978L3.44683 8.93945L2.38617 10.0001L2.9165 10.5304L4.41742 12.0314L2.9165 13.5323Z" fill="#FFA800"/>
</svg>
