<svg width="16" height="16" viewBox="0 0 16 16" fill="none" xmlns="http://www.w3.org/2000/svg">
<path fill-rule="evenodd" clip-rule="evenodd" d="M7.3128 1.66209C7.67302 1.44597 8.12304 1.44597 8.48325 1.66209L9.74137 2.4169L9.02374 3.61287L7.89803 2.93749L6.77232 3.61287L6.05469 2.4169L7.3128 1.66209ZM11.1857 3.28342L12.4438 4.03824C12.7864 4.24379 12.996 4.61402 12.996 5.01354V6.51146H11.6012V5.15924L10.468 4.47939L11.1857 3.28342ZM12.996 8.31896V9.81688C12.996 10.1862 12.8167 10.5326 12.515 10.7457L11.054 11.9084L10.249 10.7693L11.6012 9.68363V8.31896H12.996Z" fill="#5E636B"/>
<path d="M3.5516 4.03802C3.20898 4.24357 2.99935 4.6138 2.99935 5.01332V6.51124H4.39417V5.15902L5.52734 4.47917L4.80971 3.2832L3.5516 4.03802Z" fill="#5E636B"/>
<path fill-rule="evenodd" clip-rule="evenodd" d="M3.42274 12.5345L2.99841 12.9588L3.84706 13.8074L4.27138 13.3831L5.8451 11.8095L7.41883 13.3831L7.84315 13.8074L8.69179 12.9588L8.26747 12.5345L6.69375 10.9609L8.26473 9.39006L8.68905 8.96577L7.84041 8.11719L7.41609 8.54148L5.8451 10.1123L4.27412 8.54148L3.8498 8.11719L3.00115 8.96577L3.42548 9.39006L4.99646 10.9609L3.42274 12.5345Z" fill="#5E636B"/>
</svg>
