<svg width="20" height="20" viewBox="0 0 20 20" fill="none" xmlns="http://www.w3.org/2000/svg">
<path d="M12.5 5C12.5 6.38071 11.3807 7.5 10 7.5C8.61929 7.5 7.5 6.38071 7.5 5C7.5 3.61929 8.61929 2.5 10 2.5C11.3807 2.5 12.5 3.61929 12.5 5Z" fill="url(#paint0_linear_10781_85123)" fill-opacity="0.8" stroke="url(#paint1_linear_10781_85123)"/>
<path d="M7.51878 10.5H12.4812C14.6747 10.5 16.5 12.4004 16.5 14.7945V16.5H3.5V14.7945C3.5 12.3929 5.3324 10.5 7.51878 10.5Z" fill="url(#paint2_linear_10781_85123)" fill-opacity="0.8" stroke="url(#paint3_linear_10781_85123)"/>
<defs>
<linearGradient id="paint0_linear_10781_85123" x1="10" y1="2" x2="10" y2="8" gradientUnits="userSpaceOnUse">
<stop stop-color="white"/>
<stop offset="1" stop-color="white" stop-opacity="0.5"/>
</linearGradient>
<linearGradient id="paint1_linear_10781_85123" x1="10" y1="2" x2="10" y2="8" gradientUnits="userSpaceOnUse">
<stop stop-color="white"/>
<stop offset="1" stop-color="white" stop-opacity="0"/>
</linearGradient>
<linearGradient id="paint2_linear_10781_85123" x1="10" y1="10" x2="10" y2="17" gradientUnits="userSpaceOnUse">
<stop stop-color="white"/>
<stop offset="1" stop-color="white" stop-opacity="0.5"/>
</linearGradient>
<linearGradient id="paint3_linear_10781_85123" x1="10" y1="10" x2="10" y2="17" gradientUnits="userSpaceOnUse">
<stop stop-color="white"/>
<stop offset="1" stop-color="white" stop-opacity="0"/>
</linearGradient>
</defs>
</svg>
