<svg width="16" height="16" viewBox="0 0 16 16" fill="none" xmlns="http://www.w3.org/2000/svg">
<path d="M6 2C6 1.44772 6.44772 1 7 1H9C9.55228 1 10 1.44772 10 2H6Z" fill="white" fill-opacity="0.7"/>
<path fill-rule="evenodd" clip-rule="evenodd" d="M3 3C3 2.44772 3.44772 2 4 2H12C12.5523 2 13 2.44772 13 3V14H13.5C13.7761 14 14 14.2239 14 14.5C14 14.7761 13.7761 15 13.5 15H2.5C2.22386 15 2 14.7761 2 14.5C2 14.2239 2.22386 14 2.5 14H3V3ZM7 9C6.44772 9 6 9.44772 6 10V14H10V10C10 9.44772 9.55228 9 9 9H7ZM4.27441 4.35082C4.27441 3.99311 4.5644 3.70312 4.92211 3.70312H6.98903C7.34674 3.70312 7.63672 3.99311 7.63672 4.35082C7.63672 4.70853 7.34674 4.99851 6.98903 4.99851H4.92211C4.5644 4.99851 4.27441 4.70853 4.27441 4.35082ZM4.92211 5.875C4.5644 5.875 4.27441 6.16498 4.27441 6.52269C4.27441 6.8804 4.5644 7.17038 4.92211 7.17038H6.98903C7.34674 7.17038 7.63672 6.8804 7.63672 6.52269C7.63672 6.16498 7.34674 5.875 6.98903 5.875H4.92211ZM8.63672 4.35082C8.63672 3.99311 8.9267 3.70312 9.28441 3.70312H11.3513C11.709 3.70312 11.999 3.99311 11.999 4.35082C11.999 4.70853 11.709 4.99851 11.3513 4.99851H9.28441C8.9267 4.99851 8.63672 4.70853 8.63672 4.35082ZM9.28441 5.875C8.9267 5.875 8.63672 6.16498 8.63672 6.52269C8.63672 6.8804 8.9267 7.17038 9.28441 7.17038H11.3513C11.709 7.17038 11.999 6.8804 11.999 6.52269C11.999 6.16498 11.709 5.875 11.3513 5.875H9.28441Z" fill="white" fill-opacity="0.7"/>
</svg>
