<svg width="20" height="20" viewBox="0 0 20 20" fill="none" xmlns="http://www.w3.org/2000/svg">
<path d="M4.82609 8.5H15.1739C15.9148 8.5 16.5 9.08756 16.5 9.79348V16.2065C16.5 16.9124 15.9148 17.5 15.1739 17.5H4.82609C4.08518 17.5 3.5 16.9124 3.5 16.2065V9.79348C3.5 9.08756 4.08518 8.5 4.82609 8.5Z" fill="url(#paint0_linear_10781_85124)" fill-opacity="0.8" stroke="url(#paint1_linear_10781_85124)"/>
<path d="M7 8V6C7 4.34315 8.34315 3 10 3V3C11.6569 3 13 4.34315 13 6V8" stroke="white" stroke-linecap="round"/>
<circle cx="10" cy="13" r="1" fill="#1C222F"/>
<defs>
<linearGradient id="paint0_linear_10781_85124" x1="10" y1="8" x2="10" y2="18" gradientUnits="userSpaceOnUse">
<stop stop-color="white"/>
<stop offset="1" stop-color="white" stop-opacity="0.5"/>
</linearGradient>
<linearGradient id="paint1_linear_10781_85124" x1="10" y1="8" x2="10" y2="18" gradientUnits="userSpaceOnUse">
<stop stop-color="white"/>
<stop offset="1" stop-color="white" stop-opacity="0"/>
</linearGradient>
</defs>
</svg>
