<svg width="20" height="20" viewBox="0 0 20 20" fill="none" xmlns="http://www.w3.org/2000/svg">
<path d="M10.833 2.5C6.69134 2.5 3.33301 5.85833 3.33301 10H0.833008L4.07467 13.2417L4.13301 13.3583L7.49967 10H4.99967C4.99967 6.775 7.60801 4.16667 10.833 4.16667C14.058 4.16667 16.6663 6.775 16.6663 10C16.6663 13.225 14.058 15.8333 10.833 15.8333C9.22467 15.8333 7.76634 15.175 6.71634 14.1167L5.53301 15.3C6.89134 16.6583 8.75801 17.5 10.833 17.5C14.9747 17.5 18.333 14.1417 18.333 10C18.333 5.85833 14.9747 2.5 10.833 2.5ZM9.99967 6.66667V10.8333L13.5663 12.95L14.1663 11.9417L11.2497 10.2083V6.66667H9.99967Z" fill="white" fill-opacity="0.7"/>
</svg>
