<svg width="32" height="32" viewBox="0 0 32 32" fill="none" xmlns="http://www.w3.org/2000/svg">
<rect width="32" height="32" rx="16" fill="#125AED"/>
<path fill-rule="evenodd" clip-rule="evenodd" d="M13 9.99609H19V11.4961H13V9.99609ZM12 9.99609C12 9.44381 12.4477 8.99609 13 8.99609H19C19.5523 8.99609 20 9.44381 20 9.99609V11.4961V11.5H20.3904H21.3931H22.25C22.5261 11.5 22.75 11.7239 22.75 12C22.75 12.2761 22.5261 12.5 22.25 12.5H21.32L20.7235 20.6576C20.6471 21.7028 19.7768 22.5117 18.7288 22.5117H13.2718C12.2233 22.5117 11.3528 21.702 11.277 20.6563L10.6858 12.5H9.75C9.47386 12.5 9.25 12.2761 9.25 12C9.25 11.7239 9.47386 11.5 9.75 11.5H10.6133H11.6159H12V11.4961V9.99609ZM11.6884 12.5H20.3173L19.7262 20.5846C19.688 21.1072 19.2528 21.5117 18.7288 21.5117H13.2718C12.7476 21.5117 12.3123 21.1069 12.2744 20.584L11.6884 12.5ZM14.5 20C14.2239 20 14 19.7761 14 19.5V14.5C14 14.2239 14.2239 14 14.5 14C14.7761 14 15 14.2239 15 14.5V19.5C15 19.7761 14.7761 20 14.5 20ZM17 19.5C17 19.7761 17.2239 20 17.5 20C17.7761 20 18 19.7761 18 19.5V14.5C18 14.2239 17.7761 14 17.5 14C17.2239 14 17 14.2239 17 14.5V19.5Z" fill="white" fill-opacity="0.7"/>
</svg>
