<svg width="16" height="16" viewBox="0 0 16 16" fill="none" xmlns="http://www.w3.org/2000/svg">
<path d="M10.1119 11.24L12.0985 10.0482C12.2311 9.96866 12.3122 9.82542 12.3122 9.67084V4.88916C12.3122 4.73458 12.2311 4.59134 12.0985 4.51182L8.13801 2.13581C7.99867 2.05221 7.8246 2.05221 7.68526 2.13581L3.72473 4.51182C3.59218 4.59134 3.51108 4.73458 3.51108 4.88916V7.28" stroke="white" stroke-opacity="0.7" stroke-width="1.39472" stroke-linecap="square"/>
<path d="M8.6054 11.2727C8.66735 11.38 8.66734 11.5122 8.6054 11.6195L7.20539 14.044C7.14345 14.1513 7.02901 14.2174 6.90515 14.2174L4.10505 14.2174C3.98119 14.2174 3.86675 14.1513 3.80481 14.044L2.4048 11.6195C2.34286 11.5122 2.34286 11.38 2.4048 11.2727L3.80481 8.84814C3.86675 8.74088 3.98119 8.67481 4.10505 8.67481L6.90515 8.67481C7.02901 8.67481 7.14345 8.74088 7.20539 8.84814L8.6054 11.2727Z" fill="url(#paint0_linear_8300_2240)"/>
<defs>
<linearGradient id="paint0_linear_8300_2240" x1="8.70551" y1="11.4461" x2="2.3047" y2="11.4461" gradientUnits="userSpaceOnUse">
<stop stop-color="white" stop-opacity="0.8"/>
<stop offset="1" stop-color="white" stop-opacity="0.4"/>
</linearGradient>
</defs>
</svg>
