<svg width="20" height="20" viewBox="0 0 20 20" fill="none" xmlns="http://www.w3.org/2000/svg">
<path d="M11.4008 11.4008L11.1157 11.6458C10.2528 12.3876 9.13407 12.8333 7.91667 12.8333C5.20114 12.8333 3 10.6322 3 7.91667C3 5.20114 5.20114 3 7.91667 3C10.6322 3 12.8333 5.20114 12.8333 7.91667C12.8333 9.13407 12.3876 10.2528 11.6458 11.1157L11.4008 11.4008ZM12.1667 12.1667H12.2583H12.7093L16.3682 15.833L15.833 16.3682L12.1667 12.7093V12.2583V12.1667ZM3.66667 7.91667C3.66667 10.2678 5.56552 12.1667 7.91667 12.1667C10.2678 12.1667 12.1667 10.2678 12.1667 7.91667C12.1667 5.56552 10.2678 3.66667 7.91667 3.66667C5.56552 3.66667 3.66667 5.56552 3.66667 7.91667Z" fill="url(#paint0_linear_10781_85112)" stroke="url(#paint1_linear_10781_85112)"/>
<defs>
<linearGradient id="paint0_linear_10781_85112" x1="9.7875" y1="2.5" x2="9.7875" y2="17.075" gradientUnits="userSpaceOnUse">
<stop stop-color="white" stop-opacity="0.8"/>
<stop offset="1" stop-color="white" stop-opacity="0.4"/>
</linearGradient>
<linearGradient id="paint1_linear_10781_85112" x1="9.7875" y1="2.5" x2="9.7875" y2="17.075" gradientUnits="userSpaceOnUse">
<stop stop-color="white"/>
<stop offset="1" stop-color="white" stop-opacity="0"/>
</linearGradient>
</defs>
</svg>
