<svg width="16" height="16" viewBox="0 0 16 16" fill="none" xmlns="http://www.w3.org/2000/svg">
<path d="M12.9552 8.65398C12.9818 8.44065 13.0018 8.22732 13.0018 8.00065C13.0018 7.77398 12.9818 7.56065 12.9552 7.34732L14.3618 6.24732C14.4885 6.14732 14.5218 5.96732 14.4418 5.82065L13.1085 3.51398C13.0485 3.40732 12.9352 3.34732 12.8152 3.34732C12.7752 3.34732 12.7352 3.35398 12.7018 3.36732L11.0418 4.03398C10.6952 3.76732 10.3218 3.54732 9.91518 3.38065L9.66185 1.61398C9.64185 1.45398 9.50185 1.33398 9.33518 1.33398H6.66851C6.50185 1.33398 6.36185 1.45398 6.34185 1.61398L6.08851 3.38065C5.68185 3.54732 5.30851 3.77398 4.96185 4.03398L3.30185 3.36732C3.26185 3.35398 3.22185 3.34732 3.18185 3.34732C3.06851 3.34732 2.95518 3.40732 2.89518 3.51398L1.56185 5.82065C1.47518 5.96732 1.51518 6.14732 1.64185 6.24732L3.04851 7.34732C3.02185 7.56065 3.00185 7.78065 3.00185 8.00065C3.00185 8.22065 3.02185 8.44065 3.04851 8.65398L1.64185 9.75398C1.51518 9.85398 1.48185 10.034 1.56185 10.1807L2.89518 12.4873C2.95518 12.594 3.06851 12.654 3.18851 12.654C3.22851 12.654 3.26851 12.6473 3.30185 12.634L4.96185 11.9673C5.30851 12.234 5.68185 12.454 6.08851 12.6207L6.34185 14.3873C6.36185 14.5473 6.50185 14.6673 6.66851 14.6673H9.33518C9.50185 14.6673 9.64185 14.5473 9.66185 14.3873L9.91518 12.6207C10.3218 12.454 10.6952 12.2273 11.0418 11.9673L12.7018 12.634C12.7418 12.6473 12.7818 12.654 12.8218 12.654C12.9352 12.654 13.0485 12.594 13.1085 12.4873L14.4418 10.1807C14.5218 10.034 14.4885 9.85398 14.3618 9.75398L12.9552 8.65398ZM11.6352 7.51398C11.6618 7.72065 11.6685 7.86065 11.6685 8.00065C11.6685 8.14065 11.6552 8.28732 11.6352 8.48732L11.5418 9.24065L12.1352 9.70732L12.8552 10.2673L12.3885 11.074L11.5418 10.734L10.8485 10.454L10.2485 10.9073C9.96185 11.1207 9.68851 11.2807 9.41518 11.394L8.70851 11.6807L8.60185 12.434L8.46851 13.334H7.53518L7.40851 12.434L7.30185 11.6807L6.59518 11.394C6.30851 11.274 6.04185 11.1207 5.77518 10.9207L5.16851 10.454L4.46185 10.7407L3.61518 11.0807L3.14851 10.274L3.86851 9.71398L4.46185 9.24732L4.36851 8.49398C4.34851 8.28732 4.33518 8.13398 4.33518 8.00065C4.33518 7.86732 4.34851 7.71398 4.36851 7.51398L4.46185 6.76065L3.86851 6.29398L3.14851 5.73398L3.61518 4.92732L4.46185 5.26732L5.15518 5.54732L5.75518 5.09398C6.04185 4.88065 6.31518 4.72065 6.58851 4.60732L7.29518 4.32065L7.40185 3.56732L7.53518 2.66732H8.46185L8.58851 3.56732L8.69518 4.32065L9.40185 4.60732C9.68851 4.72732 9.95518 4.88065 10.2218 5.08065L10.8285 5.54732L11.5352 5.26065L12.3818 4.92065L12.8485 5.72732L12.1352 6.29398L11.5418 6.76065L11.6352 7.51398ZM8.00185 5.33398C6.52851 5.33398 5.33518 6.52732 5.33518 8.00065C5.33518 9.47398 6.52851 10.6673 8.00185 10.6673C9.47518 10.6673 10.6685 9.47398 10.6685 8.00065C10.6685 6.52732 9.47518 5.33398 8.00185 5.33398ZM8.00185 9.33398C7.26851 9.33398 6.66851 8.73398 6.66851 8.00065C6.66851 7.26732 7.26851 6.66732 8.00185 6.66732C8.73518 6.66732 9.33518 7.26732 9.33518 8.00065C9.33518 8.73398 8.73518 9.33398 8.00185 9.33398Z" fill="#538BFF"/>
</svg>
