<svg width="16" height="17" viewBox="0 0 16 17" fill="none" xmlns="http://www.w3.org/2000/svg">
<path d="M12.9532 9.15203C12.9799 8.9387 12.9999 8.72536 12.9999 8.4987C12.9999 8.27203 12.9799 8.0587 12.9532 7.84537L14.3599 6.74536C14.4866 6.64536 14.5199 6.46536 14.4399 6.3187L13.1066 4.01203C13.0466 3.90536 12.9332 3.84536 12.8132 3.84536C12.7732 3.84536 12.7332 3.85203 12.6999 3.86536L11.0399 4.53203C10.6932 4.26536 10.3199 4.04536 9.91323 3.8787L9.65989 2.11203C9.63989 1.95203 9.49989 1.83203 9.33323 1.83203H6.66656C6.49989 1.83203 6.35989 1.95203 6.33989 2.11203L6.08656 3.8787C5.67989 4.04536 5.30656 4.27203 4.95989 4.53203L3.29989 3.86536C3.25989 3.85203 3.21989 3.84536 3.17989 3.84536C3.06656 3.84536 2.95323 3.90536 2.89323 4.01203L1.55989 6.3187C1.47323 6.46536 1.51323 6.64536 1.63989 6.74536L3.04656 7.84537C3.01989 8.0587 2.99989 8.2787 2.99989 8.4987C2.99989 8.7187 3.01989 8.9387 3.04656 9.15203L1.63989 10.252C1.51323 10.352 1.47989 10.532 1.55989 10.6787L2.89323 12.9854C2.95323 13.092 3.06656 13.152 3.18656 13.152C3.22656 13.152 3.26656 13.1454 3.29989 13.132L4.95989 12.4654C5.30656 12.732 5.67989 12.952 6.08656 13.1187L6.33989 14.8854C6.35989 15.0454 6.49989 15.1654 6.66656 15.1654H9.33323C9.49989 15.1654 9.63989 15.0454 9.65989 14.8854L9.91323 13.1187C10.3199 12.952 10.6932 12.7254 11.0399 12.4654L12.6999 13.132C12.7399 13.1454 12.7799 13.152 12.8199 13.152C12.9332 13.152 13.0466 13.092 13.1066 12.9854L14.4399 10.6787C14.5199 10.532 14.4866 10.352 14.3599 10.252L12.9532 9.15203ZM11.6332 8.01203C11.6599 8.2187 11.6666 8.3587 11.6666 8.4987C11.6666 8.6387 11.6532 8.78536 11.6332 8.98536L11.5399 9.7387L12.1332 10.2054L12.8532 10.7654L12.3866 11.572L11.5399 11.232L10.8466 10.952L10.2466 11.4054C9.95989 11.6187 9.68656 11.7787 9.41323 11.892L8.70656 12.1787L8.59989 12.932L8.46656 13.832H7.53323L7.40656 12.932L7.29989 12.1787L6.59323 11.892C6.30656 11.772 6.03989 11.6187 5.77323 11.4187L5.16656 10.952L4.45989 11.2387L3.61323 11.5787L3.14656 10.772L3.86656 10.212L4.45989 9.74536L4.36656 8.99203C4.34656 8.78536 4.33323 8.63203 4.33323 8.4987C4.33323 8.36536 4.34656 8.21203 4.36656 8.01203L4.45989 7.2587L3.86656 6.79203L3.14656 6.23203L3.61323 5.42536L4.45989 5.76536L5.15323 6.04536L5.75323 5.59203C6.03989 5.3787 6.31323 5.2187 6.58656 5.10536L7.29323 4.8187L7.39989 4.06536L7.53323 3.16536H8.45989L8.58656 4.06536L8.69323 4.8187L9.39989 5.10536C9.68656 5.22536 9.95323 5.3787 10.2199 5.5787L10.8266 6.04536L11.5332 5.7587L12.3799 5.4187L12.8466 6.22536L12.1332 6.79203L11.5399 7.2587L11.6332 8.01203ZM7.99989 5.83203C6.52656 5.83203 5.33323 7.02536 5.33323 8.4987C5.33323 9.97203 6.52656 11.1654 7.99989 11.1654C9.47323 11.1654 10.6666 9.97203 10.6666 8.4987C10.6666 7.02536 9.47323 5.83203 7.99989 5.83203ZM7.99989 9.83203C7.26656 9.83203 6.66656 9.23203 6.66656 8.4987C6.66656 7.76536 7.26656 7.16536 7.99989 7.16536C8.73323 7.16536 9.33323 7.76536 9.33323 8.4987C9.33323 9.23203 8.73323 9.83203 7.99989 9.83203Z" fill="white" fill-opacity="0.9"/>
</svg>
