<svg width="72" height="72" viewBox="0 0 72 72" fill="none" xmlns="http://www.w3.org/2000/svg">
<g clip-path="url(#clip0_11250_181442)">
<path d="M35.7894 25.9596L25.5615 36.1875L35.7894 46.4154L46.0172 36.1875L35.7894 25.9596Z" fill="#4262A5"/>
<path d="M36.0101 72.0201C55.8979 72.0201 72.0201 55.8979 72.0201 36.0101C72.0201 16.1223 55.8979 0 36.0101 0C16.1223 0 0 16.1223 0 36.0101C0 55.8979 16.1223 72.0201 36.0101 72.0201Z" fill="#326DE6"/>
<path d="M36.01 65.1802C19.9161 65.1802 6.83984 52.1039 6.83984 36.01C6.83984 19.9161 19.9161 6.83984 36.01 6.83984C52.1039 6.83984 65.1802 19.9161 65.1802 36.01C65.1802 52.1039 52.1039 65.1802 36.01 65.1802ZM36.01 11.2455C22.3503 11.2455 11.2455 22.3503 11.2455 36.01C11.2455 49.6697 22.3503 60.7745 36.01 60.7745C49.6697 60.7745 60.7745 49.6697 60.7745 36.01C60.7745 22.3503 49.6697 11.2455 36.01 11.2455Z" fill="white"/>
<path d="M52.2242 36.192L56.2275 32.1887C58.4203 29.9959 59.6273 27.0789 59.6273 23.9607C59.6273 20.8425 58.4203 17.9255 56.2275 15.7327C51.7011 11.2063 44.318 11.2063 39.7916 15.7327L35.7883 19.736L31.7849 15.7327C27.2585 11.2063 19.8755 11.2063 15.3491 15.7327C13.1563 17.9255 11.9492 20.8425 11.9492 23.9607C11.9492 27.0789 13.1563 29.9959 15.3491 32.1887L19.3524 36.192L15.3491 40.1954C10.8226 44.7218 10.8226 52.1049 15.3491 56.6313C17.6223 58.9045 20.5997 60.0311 23.577 60.0311C26.5544 60.0311 29.5318 58.9045 31.805 56.6313L35.8084 52.6279L39.8118 56.6313C42.085 58.9045 45.0624 60.0311 48.0397 60.0311C51.0171 60.0311 53.9945 58.9045 56.2677 56.6313C60.7941 52.1049 60.7941 44.7218 56.2677 40.1954L52.2644 36.192H52.2242ZM42.9098 18.8509C44.318 17.4427 46.1688 16.7386 48.0196 16.7386C49.8704 16.7386 51.7212 17.4427 53.1294 18.8509C54.4974 20.2189 55.2418 22.0294 55.2418 23.9607C55.2418 25.892 54.4974 27.7025 53.1294 29.0705L49.1261 33.0739L38.9065 22.8542L42.9098 18.8509ZM18.4471 29.0705C17.0791 27.7025 16.3348 25.892 16.3348 23.9607C16.3348 22.0294 17.0791 20.2189 18.4471 18.8509C19.8553 17.4427 21.7061 16.7386 23.5569 16.7386C25.4077 16.7386 27.2585 17.4427 28.6667 18.8509L32.6701 22.8542L22.4505 33.0739L18.4471 29.0705ZM28.6667 53.5332C25.8503 56.3496 21.2636 56.3496 18.4471 53.5332C15.6307 50.7168 15.6307 46.13 18.4471 43.3136L22.4505 39.3102L32.6701 49.5298L28.6667 53.5332ZM35.748 46.3714V46.291L31.5234 42.0663H36.0096L36.0498 41.4829L26.1118 35.6489L35.8084 25.9523L36.0699 26.2138L36.3113 26.4552L40.0934 30.2373H35.7883V30.2775L45.847 35.9707L46.028 36.1518L35.8084 46.3714L35.7682 46.3312L35.748 46.3714ZM53.1496 53.5332C50.3331 56.3496 45.7464 56.3496 42.9299 53.5332L38.9266 49.5298L49.1462 39.3102L53.1496 43.3136C55.966 46.13 55.966 50.7168 53.1496 53.5332Z" fill="white"/>
</g>
<defs>
<clipPath id="clip0_11250_181442">
<rect width="72" height="72" fill="white"/>
</clipPath>
</defs>
</svg>
