<svg width="16" height="16" viewBox="0 0 16 16" fill="none" xmlns="http://www.w3.org/2000/svg">
<g clip-path="url(#clip0_12829_174322)">
<rect width="16" height="16" rx="8" fill="#125AED"/>
<g clip-path="url(#clip1_12829_174322)">
<path d="M7.94766 5.77011L5.6748 8.04297L7.94766 10.3158L10.2205 8.04297L7.94766 5.77011Z" fill="#125AED"/>
<path d="M8.00081 14.484C4.42439 14.484 1.51855 11.5782 1.51855 8.00179C1.51855 4.42537 4.42439 1.51953 8.00081 1.51953C11.5772 1.51953 14.4831 4.42537 14.4831 8.00179C14.4831 11.5782 11.5772 14.484 8.00081 14.484ZM8.00081 2.49858C4.96533 2.49858 2.4976 4.9663 2.4976 8.00179C2.4976 11.0373 4.96533 13.505 8.00081 13.505C11.0363 13.505 13.504 11.0373 13.504 8.00179C13.504 4.9663 11.0363 2.49858 8.00081 2.49858Z" fill="white"/>
<path d="M11.6062 8.04311L12.4959 7.15348C12.9832 6.66619 13.2514 6.01796 13.2514 5.32503C13.2514 4.6321 12.9832 3.98388 12.4959 3.49659C11.49 2.49072 9.84932 2.49072 8.84345 3.49659L7.95382 4.38622L7.06419 3.49659C6.05832 2.49072 4.41764 2.49072 3.41177 3.49659C2.92448 3.98388 2.65625 4.6321 2.65625 5.32503C2.65625 6.01796 2.92448 6.66619 3.41177 7.15348L4.3014 8.04311L3.41177 8.93274C2.4059 9.93861 2.4059 11.5793 3.41177 12.5852C3.91694 13.0903 4.57857 13.3407 5.24021 13.3407C5.90185 13.3407 6.56349 13.0903 7.06866 12.5852L7.95829 11.6955L8.84792 12.5852C9.35309 13.0903 10.0147 13.3407 10.6764 13.3407C11.338 13.3407 11.9996 13.0903 12.5048 12.5852C13.5107 11.5793 13.5107 9.93861 12.5048 8.93274L11.6152 8.04311H11.6062ZM9.53638 4.18952C9.84932 3.87658 10.2606 3.72011 10.6719 3.72011C11.0832 3.72011 11.4945 3.87658 11.8074 4.18952C12.1114 4.49351 12.2768 4.89586 12.2768 5.32503C12.2768 5.7542 12.1114 6.15655 11.8074 6.46054L10.9178 7.35018L8.64675 5.07915L9.53638 4.18952ZM4.10023 6.46054C3.79623 6.15655 3.63082 5.7542 3.63082 5.32503C3.63082 4.89586 3.79623 4.49351 4.10023 4.18952C4.41317 3.87658 4.82445 3.72011 5.23574 3.72011C5.64703 3.72011 6.05832 3.87658 6.37125 4.18952L7.26089 5.07915L4.98986 7.35018L4.10023 6.46054ZM6.37125 11.8967C5.74538 12.5226 4.7261 12.5226 4.10023 11.8967C3.47436 11.2708 3.47436 10.2515 4.10023 9.62567L4.98986 8.73604L7.26089 11.0071L6.37125 11.8967ZM7.94488 10.3052V10.2873L7.00607 9.3485H8.00299L8.01194 9.21886L5.8035 7.9224L7.95829 5.76761L8.01641 5.82573L8.07005 5.87938L8.91051 6.71983H7.95382V6.72878L10.1891 7.99393L10.2293 8.03417L7.95829 10.3052L7.94935 10.2963L7.94488 10.3052ZM11.8119 11.8967C11.186 12.5226 10.1667 12.5226 9.54085 11.8967L8.65122 11.0071L10.9222 8.73604L11.8119 9.62567C12.4378 10.2515 12.4378 11.2708 11.8119 11.8967Z" fill="white"/>
</g>
</g>
<defs>
<clipPath id="clip0_12829_174322">
<rect width="16" height="16" rx="8" fill="white"/>
</clipPath>
<clipPath id="clip1_12829_174322">
<rect width="16" height="16" fill="white"/>
</clipPath>
</defs>
</svg>
