<svg width="156" height="116" viewBox="0 0 156 116" fill="none" xmlns="http://www.w3.org/2000/svg">
<g filter="url(#filter0_d_11803_261146)">
<rect x="8" y="4" width="140" height="100" rx="12" fill="#125AED"/>
<mask id="mask0_11803_261146" style="mask-type:alpha" maskUnits="userSpaceOnUse" x="8" y="4" width="140" height="100">
<rect x="8" y="4" width="140" height="100" rx="12" fill="#125AED"/>
</mask>
<g mask="url(#mask0_11803_261146)">
<g filter="url(#filter1_d_11803_261146)">
<path d="M56.9399 55.7592C68.6198 44.2462 87.3802 44.2462 99.06 55.7592L148 104L8 104L56.9399 55.7592Z" fill="url(#paint0_linear_11803_261146)"/>
</g>
<g filter="url(#filter2_d_11803_261146)">
<path d="M92.4485 62.0409C84.5733 70.2689 71.4267 70.2689 63.5515 62.0409L7.99999 4.0006L148 4.00059L92.4485 62.0409Z" fill="url(#paint1_linear_11803_261146)"/>
</g>
<g opacity="0.4" filter="url(#filter3_i_11803_261146)">
<path d="M58.7176 26.4848C58.9753 26.4848 59.1861 26.4658 59.3501 26.4278C59.5219 26.3823 59.6586 26.3253 59.7601 26.257C59.8616 26.181 59.9319 26.0937 59.971 25.9949C60.01 25.8962 60.0295 25.7861 60.0295 25.6646C60.0295 25.4063 59.9046 25.1937 59.6547 25.0266C59.4048 24.8519 58.9753 24.6658 58.3662 24.4684C58.1007 24.3772 57.8352 24.2747 57.5696 24.1608C57.3041 24.0392 57.066 23.8911 56.8551 23.7165C56.6443 23.5342 56.4725 23.3177 56.3397 23.0671C56.2069 22.8089 56.1406 22.4975 56.1406 22.1329C56.1406 21.7684 56.2108 21.4418 56.3514 21.1532C56.492 20.857 56.6911 20.6063 56.9488 20.4013C57.2065 20.1962 57.5189 20.0405 57.8859 19.9342C58.2529 19.8203 58.6668 19.7633 59.1276 19.7633C59.6742 19.7633 60.1467 19.8203 60.5449 19.9342C60.9432 20.0481 61.2712 20.1734 61.5289 20.3101L61.0018 21.7114C60.7753 21.5975 60.5215 21.4987 60.2404 21.4152C59.9671 21.324 59.6352 21.2785 59.2447 21.2785C58.8074 21.2785 58.4911 21.3392 58.2959 21.4608C58.1085 21.5747 58.0148 21.7532 58.0148 21.9962C58.0148 22.1405 58.0499 22.262 58.1202 22.3608C58.1905 22.4595 58.2881 22.5506 58.413 22.6342C58.5458 22.7101 58.6942 22.7823 58.8582 22.8506C59.03 22.9114 59.2174 22.9759 59.4204 23.0443C59.8421 23.1962 60.2091 23.3481 60.5215 23.5C60.8339 23.6443 61.0916 23.8152 61.2946 24.0127C61.5055 24.2101 61.6616 24.4418 61.7632 24.7076C61.8647 24.9734 61.9154 25.2962 61.9154 25.6759C61.9154 26.4127 61.6499 26.9861 61.1189 27.3962C60.5879 27.7987 59.7874 28 58.7176 28C58.3584 28 58.0343 27.9772 57.7453 27.9316C57.4564 27.8937 57.1987 27.8443 56.9722 27.7835C56.7536 27.7228 56.5623 27.6582 56.3983 27.5899C56.2421 27.5215 56.1093 27.457 56 27.3962L56.5154 25.9835C56.7575 26.1127 57.0542 26.2304 57.4057 26.3367C57.7649 26.4354 58.2022 26.4848 58.7176 26.4848Z" fill="white"/>
<path d="M63.0089 23.6709H66.4059V25.2089H63.0089V23.6709Z" fill="white"/>
<path d="M69.2623 24.0127C69.4341 23.8304 69.6098 23.6405 69.7894 23.443C69.9768 23.2456 70.1564 23.0519 70.3282 22.862C70.5 22.6646 70.6601 22.4785 70.8085 22.3038C70.9647 22.1291 71.0974 21.9772 71.2067 21.8481H73.2801C72.8662 22.3114 72.4601 22.7557 72.0618 23.181C71.6714 23.5987 71.2419 24.0316 70.7733 24.4797C71.0076 24.6848 71.2497 24.9316 71.4996 25.2203C71.7495 25.5013 71.9916 25.7937 72.2258 26.0975C72.4601 26.4013 72.6749 26.7051 72.8701 27.0089C73.0653 27.3127 73.2293 27.5899 73.3621 27.8405H71.359C71.2341 27.643 71.0896 27.4266 70.9256 27.1911C70.7694 26.9481 70.6015 26.7089 70.4219 26.4734C70.2423 26.2304 70.051 25.9987 69.8479 25.7785C69.6527 25.5582 69.4575 25.3722 69.2623 25.2203V27.8405H67.5169V19.2734L69.2623 19V24.0127Z" fill="white"/>
<path d="M79.4454 27.6354C79.1487 27.719 78.766 27.7949 78.2975 27.8633C77.8289 27.9392 77.337 27.9772 76.8216 27.9772C76.2984 27.9772 75.861 27.9089 75.5096 27.7722C75.166 27.6354 74.8927 27.4456 74.6897 27.2025C74.4866 26.9519 74.3422 26.6557 74.2563 26.3139C74.1704 25.9722 74.1274 25.5962 74.1274 25.1861V21.8481H75.8727V24.981C75.8727 25.5278 75.9469 25.9228 76.0953 26.1658C76.2437 26.4089 76.5209 26.5304 76.927 26.5304C77.0519 26.5304 77.1847 26.5266 77.3253 26.519C77.4658 26.5038 77.5908 26.4886 77.7001 26.4734V21.8481H79.4454V27.6354Z" fill="white"/>
<path d="M85.0314 24.7987C85.0314 23.7051 84.6175 23.1582 83.7897 23.1582C83.6101 23.1582 83.4305 23.181 83.2509 23.2266C83.0791 23.2722 82.9385 23.3291 82.8292 23.3975V26.4848C82.9151 26.5 83.0244 26.5152 83.1571 26.5304C83.2899 26.538 83.4344 26.5418 83.5906 26.5418C84.0669 26.5418 84.4261 26.3823 84.6682 26.0633C84.9103 25.7443 85.0314 25.3228 85.0314 24.7987ZM86.8118 24.8443C86.8118 25.3228 86.7377 25.7557 86.5893 26.143C86.4487 26.5304 86.2418 26.8608 85.9684 27.1342C85.6951 27.4076 85.3593 27.6203 84.9611 27.7722C84.5628 27.9165 84.1099 27.9886 83.6023 27.9886C83.3914 27.9886 83.1689 27.9772 82.9346 27.9544C82.7081 27.9392 82.4817 27.9165 82.2552 27.8861C82.0365 27.8557 81.8257 27.8215 81.6226 27.7835C81.4196 27.738 81.24 27.6924 81.0838 27.6468V19.2734L82.8292 19V21.9848C83.0244 21.9013 83.2274 21.8367 83.4383 21.7911C83.6491 21.7456 83.8756 21.7228 84.1177 21.7228C84.555 21.7228 84.9415 21.7987 85.2773 21.9506C85.6131 22.0949 85.8943 22.3038 86.1207 22.5772C86.3472 22.8506 86.519 23.181 86.6361 23.5684C86.7533 23.9481 86.8118 24.3734 86.8118 24.8443Z" fill="white"/>
<path d="M87.8604 24.8899C87.8604 24.3582 87.9424 23.8949 88.1064 23.5C88.2782 23.0975 88.5008 22.7633 88.7741 22.4975C89.0474 22.2316 89.3598 22.0304 89.7112 21.8937C90.0704 21.757 90.4374 21.6886 90.8123 21.6886C91.6869 21.6886 92.378 21.9506 92.8856 22.4747C93.3932 22.9911 93.647 23.7544 93.647 24.7646C93.647 24.8633 93.6431 24.9734 93.6353 25.0949C93.6275 25.2089 93.6197 25.3114 93.6119 25.4025H89.6526C89.6917 25.7519 89.8596 26.0291 90.1563 26.2342C90.453 26.4392 90.8513 26.5418 91.3511 26.5418C91.6713 26.5418 91.9836 26.5152 92.2882 26.462C92.6006 26.4013 92.8544 26.3291 93.0496 26.2456L93.2839 27.6241C93.1902 27.6696 93.0652 27.7152 92.909 27.7608C92.7528 27.8063 92.5771 27.8443 92.3819 27.8747C92.1945 27.9127 91.9915 27.943 91.7728 27.9658C91.5541 27.9886 91.3355 28 91.1168 28C90.5624 28 90.0782 27.9203 89.6643 27.7608C89.2582 27.6013 88.9185 27.3848 88.6452 27.1114C88.3797 26.8304 88.1806 26.5 88.0478 26.1203C87.9229 25.7405 87.8604 25.3304 87.8604 24.8899ZM91.9602 24.2405C91.9524 24.0962 91.9251 23.9557 91.8782 23.819C91.8392 23.6823 91.7728 23.5608 91.6791 23.4544C91.5932 23.3481 91.48 23.2608 91.3394 23.1924C91.2066 23.1241 91.0387 23.0899 90.8357 23.0899C90.6405 23.0899 90.4726 23.1241 90.332 23.1924C90.1914 23.2532 90.0743 23.3367 89.9806 23.443C89.8869 23.5494 89.8127 23.6747 89.758 23.819C89.7112 23.9557 89.676 24.0962 89.6526 24.2405H91.9602Z" fill="white"/>
<path d="M98.7072 23.3519C98.551 23.3139 98.3675 23.2759 98.1566 23.238C97.9458 23.1924 97.7193 23.1696 97.4772 23.1696C97.3679 23.1696 97.2351 23.181 97.0789 23.2038C96.9306 23.219 96.8173 23.238 96.7392 23.2608V27.8405H94.9939V22.1671C95.3063 22.0608 95.6733 21.962 96.095 21.8709C96.5245 21.7722 97.0009 21.7228 97.5241 21.7228C97.6178 21.7228 97.731 21.7304 97.8638 21.7456C97.9965 21.7532 98.1293 21.7684 98.262 21.7911C98.3948 21.8063 98.5275 21.8291 98.6603 21.8595C98.7931 21.8823 98.9063 21.9127 99 21.9506L98.7072 23.3519Z" fill="white"/>
</g>
</g>
</g>
<defs>
<filter id="filter0_d_11803_261146" x="0" y="0" width="156" height="116" filterUnits="userSpaceOnUse" color-interpolation-filters="sRGB">
<feFlood flood-opacity="0" result="BackgroundImageFix"/>
<feColorMatrix in="SourceAlpha" type="matrix" values="0 0 0 0 0 0 0 0 0 0 0 0 0 0 0 0 0 0 127 0" result="hardAlpha"/>
<feOffset dy="4"/>
<feGaussianBlur stdDeviation="4"/>
<feComposite in2="hardAlpha" operator="out"/>
<feColorMatrix type="matrix" values="0 0 0 0 0 0 0 0 0 0 0 0 0 0 0 0 0 0 0.25 0"/>
<feBlend mode="normal" in2="BackgroundImageFix" result="effect1_dropShadow_11803_261146"/>
<feBlend mode="normal" in="SourceGraphic" in2="effect1_dropShadow_11803_261146" result="shape"/>
</filter>
<filter id="filter1_d_11803_261146" x="-2" y="37.125" width="160" height="76.875" filterUnits="userSpaceOnUse" color-interpolation-filters="sRGB">
<feFlood flood-opacity="0" result="BackgroundImageFix"/>
<feColorMatrix in="SourceAlpha" type="matrix" values="0 0 0 0 0 0 0 0 0 0 0 0 0 0 0 0 0 0 127 0" result="hardAlpha"/>
<feOffset/>
<feGaussianBlur stdDeviation="5"/>
<feComposite in2="hardAlpha" operator="out"/>
<feColorMatrix type="matrix" values="0 0 0 0 0 0 0 0 0 0 0 0 0 0 0 0 0 0 0.15 0"/>
<feBlend mode="normal" in2="BackgroundImageFix" result="effect1_dropShadow_11803_261146"/>
<feBlend mode="normal" in="SourceGraphic" in2="effect1_dropShadow_11803_261146" result="shape"/>
</filter>
<filter id="filter2_d_11803_261146" x="-2" y="-6" width="160" height="84.2129" filterUnits="userSpaceOnUse" color-interpolation-filters="sRGB">
<feFlood flood-opacity="0" result="BackgroundImageFix"/>
<feColorMatrix in="SourceAlpha" type="matrix" values="0 0 0 0 0 0 0 0 0 0 0 0 0 0 0 0 0 0 127 0" result="hardAlpha"/>
<feOffset/>
<feGaussianBlur stdDeviation="5"/>
<feComposite in2="hardAlpha" operator="out"/>
<feColorMatrix type="matrix" values="0 0 0 0 0 0 0 0 0 0 0 0 0 0 0 0 0 0 0.15 0"/>
<feBlend mode="normal" in2="BackgroundImageFix" result="effect1_dropShadow_11803_261146"/>
<feBlend mode="normal" in="SourceGraphic" in2="effect1_dropShadow_11803_261146" result="shape"/>
</filter>
<filter id="filter3_i_11803_261146" x="56" y="19" width="43" height="9" filterUnits="userSpaceOnUse" color-interpolation-filters="sRGB">
<feFlood flood-opacity="0" result="BackgroundImageFix"/>
<feBlend mode="normal" in="SourceGraphic" in2="BackgroundImageFix" result="shape"/>
<feColorMatrix in="SourceAlpha" type="matrix" values="0 0 0 0 0 0 0 0 0 0 0 0 0 0 0 0 0 0 127 0" result="hardAlpha"/>
<feOffset/>
<feGaussianBlur stdDeviation="0.2"/>
<feComposite in2="hardAlpha" operator="arithmetic" k2="-1" k3="1"/>
<feColorMatrix type="matrix" values="0 0 0 0 0 0 0 0 0 0 0 0 0 0 0 0 0 0 0.5 0"/>
<feBlend mode="normal" in2="shape" result="effect1_innerShadow_11803_261146"/>
</filter>
<linearGradient id="paint0_linear_11803_261146" x1="78" y1="28.9963" x2="78" y2="104" gradientUnits="userSpaceOnUse">
<stop stop-color="#19A5F3"/>
<stop offset="1" stop-color="#0C55EC"/>
</linearGradient>
<linearGradient id="paint1_linear_11803_261146" x1="78" y1="83.5004" x2="78" y2="4.0006" gradientUnits="userSpaceOnUse">
<stop stop-color="#19A5F3"/>
<stop offset="1" stop-color="#0C55EC"/>
</linearGradient>
</defs>
</svg>
