<svg width="18" height="18" viewBox="0 0 18 18" fill="none" xmlns="http://www.w3.org/2000/svg">
<path fill-rule="evenodd" clip-rule="evenodd" d="M9 17.75C13.8325 17.75 17.75 13.8325 17.75 9C17.75 4.16751 13.8325 0.25 9 0.25C4.16751 0.25 0.25 4.16751 0.25 9C0.25 13.8325 4.16751 17.75 9 17.75ZM11.0858 12.3268C11.0731 12.3529 11.0605 12.3789 11.0477 12.4045L10.4227 13.6545C10.3169 13.8662 10.1005 14 9.86373 14H8.13627C7.89954 14 7.68312 13.8662 7.57725 13.6545L6.95225 12.4045C6.93946 12.3789 6.92685 12.3529 6.91418 12.3268C6.83955 12.1729 6.76276 12.0145 6.63209 11.908C5.78864 11.2204 5.25 10.1731 5.25 9C5.25 6.92893 6.92893 5.25 9 5.25C11.0711 5.25 12.75 6.92893 12.75 9C12.75 10.1731 12.2114 11.2204 11.3679 11.908C11.2372 12.0145 11.1605 12.1729 11.0858 12.3268ZM10.25 14.625C10.25 15.3154 9.69036 15.875 9 15.875C8.30964 15.875 7.75 15.3154 7.75 14.625H10.25ZM9 2.125C8.65482 2.125 8.375 2.40482 8.375 2.75V4C8.375 4.34518 8.65482 4.625 9 4.625C9.34518 4.625 9.625 4.34518 9.625 4V2.75C9.625 2.40482 9.34518 2.125 9 2.125ZM13.1831 4.19292C13.4271 3.94884 13.8229 3.94884 14.0669 4.19292C14.311 4.437 14.311 4.83272 14.0669 5.0768L13.1831 5.96069C12.939 6.20476 12.5433 6.20476 12.2992 5.96069C12.0551 5.71661 12.0551 5.32088 12.2992 5.0768L13.1831 4.19292ZM3.69194 4.18306C3.44786 4.42714 3.44786 4.82286 3.69194 5.06694L4.57583 5.95083C4.8199 6.1949 5.21563 6.1949 5.45971 5.95083C5.70379 5.70675 5.70379 5.31102 5.45971 5.06694L4.57583 4.18306C4.33175 3.93898 3.93602 3.93898 3.69194 4.18306ZM15.625 8.375C15.9702 8.375 16.25 8.65482 16.25 9C16.25 9.34518 15.9702 9.625 15.625 9.625H14.375C14.0298 9.625 13.75 9.34518 13.75 9C13.75 8.65482 14.0298 8.375 14.375 8.375H15.625ZM4.375 9C4.375 8.65482 4.09518 8.375 3.75 8.375H2.5C2.15482 8.375 1.875 8.65482 1.875 9C1.875 9.34518 2.15482 9.625 2.5 9.625H3.75C4.09518 9.625 4.375 9.34518 4.375 9Z" fill="#DFBB3C"/>
</svg>
