<svg width="16" height="16" viewBox="0 0 16 16" fill="none" xmlns="http://www.w3.org/2000/svg">
<path fill-rule="evenodd" clip-rule="evenodd" d="M6.5 3.93699C7.36261 3.71497 8 2.93192 8 2C8 0.895431 7.10457 0 6 0C4.89543 0 4 0.895431 4 2C4 2.93192 4.63739 3.71497 5.5 3.93699V5.2375L5.5 12.063C4.63739 12.285 4 13.0681 4 14C4 15.1046 4.89543 16 6 16C7.10457 16 8 15.1046 8 14C8 13.0681 7.36261 12.285 6.5 12.063L6.5 7.76734C7.17508 8.48753 8.13499 8.9375 9.2 8.9375H9.77765C10.0067 9.67814 10.6969 10.2162 11.5128 10.2162C12.5157 10.2162 13.3287 9.4032 13.3287 8.40029C13.3287 7.39739 12.5157 6.58437 11.5128 6.58437C10.6698 6.58437 9.96101 7.15876 9.75638 7.9375H9.2C7.70883 7.9375 6.5 6.72867 6.5 5.2375V3.93699Z" fill="white" fill-opacity="0.7"/>
</svg>
