<svg width="16" height="16" viewBox="0 0 16 16" fill="none" xmlns="http://www.w3.org/2000/svg">
<path d="M8.00033 4.0013C10.527 4.0013 12.7803 5.4213 13.8803 7.66797C12.7803 9.91464 10.527 11.3346 8.00033 11.3346C5.47366 11.3346 3.22033 9.91464 2.12033 7.66797C3.22033 5.4213 5.47366 4.0013 8.00033 4.0013ZM8.00033 2.66797C4.66699 2.66797 1.82033 4.7413 0.666992 7.66797C1.82033 10.5946 4.66699 12.668 8.00033 12.668C11.3337 12.668 14.1803 10.5946 15.3337 7.66797C14.1803 4.7413 11.3337 2.66797 8.00033 2.66797ZM8.00033 6.0013C8.92033 6.0013 9.66699 6.74797 9.66699 7.66797C9.66699 8.58797 8.92033 9.33464 8.00033 9.33464C7.08033 9.33464 6.33366 8.58797 6.33366 7.66797C6.33366 6.74797 7.08033 6.0013 8.00033 6.0013ZM8.00033 4.66797C6.34699 4.66797 5.00033 6.01464 5.00033 7.66797C5.00033 9.3213 6.34699 10.668 8.00033 10.668C9.65366 10.668 11.0003 9.3213 11.0003 7.66797C11.0003 6.01464 9.65366 4.66797 8.00033 4.66797Z" fill="white" fill-opacity="0.7"/>
</svg>
