<svg width="16" height="16" viewBox="0 0 16 16" fill="none" xmlns="http://www.w3.org/2000/svg">
<path fill-rule="evenodd" clip-rule="evenodd" d="M6.36775 5.14107C6.36775 4.18542 7.14245 3.41071 8.0981 3.41071C9.05375 3.41071 9.82846 4.18542 9.82846 5.14107V6.5H6.36775V5.14107ZM5.45703 6.5V5.14107C5.45703 3.68245 6.63948 2.5 8.0981 2.5C9.55673 2.5 10.7392 3.68245 10.7392 5.14107V6.5H11.6957C12.416 6.5 13 7.06208 13 7.75543V12.2446C13 12.9379 12.416 13.5 11.6957 13.5H4.30435C3.58398 13.5 3 12.9379 3 12.2446V7.75543C3 7.06208 3.58398 6.5 4.30435 6.5H5.45703Z" fill="white" fill-opacity="0.7"/>
</svg>
