<svg width="41" height="40" viewBox="0 0 41 40" fill="none" xmlns="http://www.w3.org/2000/svg">
<path fill-rule="evenodd" clip-rule="evenodd" d="M35.0426 10.6521C35.0426 13.9246 28.5302 16.5776 20.4969 16.5776C12.4635 16.5776 5.95117 13.9246 5.95117 10.6521C5.95117 7.3795 12.4635 4.72656 20.4969 4.72656C28.5302 4.72656 35.0426 7.3795 35.0426 10.6521ZM35.0468 13.9511C32.9968 16.4603 27.2572 18.2667 20.4971 18.2667C13.7457 18.2667 8.01205 16.4649 5.95536 13.9607V19.9604V19.9611C5.95626 23.2333 12.4682 25.8859 20.5011 25.8859C28.5339 25.8859 35.0459 23.2333 35.0468 19.9611V19.9604V13.9511ZM20.4971 27.6578C27.2572 27.6578 32.9968 25.8513 35.0468 23.3422V29.3509V29.3516C35.0459 32.6238 28.5339 35.2764 20.5011 35.2764C12.4682 35.2764 5.95626 32.6238 5.95536 29.3516V29.3509V23.3517C8.01205 25.8559 13.7457 27.6578 20.4971 27.6578ZM7.61664 18.5177C7.85448 18.1868 8.30337 18.1205 8.61927 18.3696C9.62736 19.1647 10.8216 19.6954 12.3458 20.0339C12.7326 20.1198 12.9797 20.518 12.8977 20.9232C12.8157 21.3284 12.4357 21.5872 12.0488 21.5013C10.3696 21.1284 8.96942 20.5234 7.75798 19.568C7.44209 19.3188 7.37881 18.8486 7.61664 18.5177ZM8.61927 27.8618C8.30337 27.6127 7.85448 27.679 7.61664 28.0099C7.37881 28.3408 7.44209 28.811 7.75798 29.0601C8.96942 30.0156 10.3696 30.6206 12.0488 30.9935C12.4357 31.0794 12.8157 30.8206 12.8977 30.4153C12.9797 30.0101 12.7326 29.612 12.3458 29.5261C10.8216 29.1876 9.62736 28.6569 8.61927 27.8618Z" fill="url(#paint0_linear_13447_79938)"/>
<defs>
<linearGradient id="paint0_linear_13447_79938" x1="20.499" y1="4.72656" x2="20.499" y2="35.2764" gradientUnits="userSpaceOnUse">
<stop stop-color="white"/>
<stop offset="1" stop-color="white" stop-opacity="0.5"/>
</linearGradient>
</defs>
</svg>
