<svg width="20" height="20" viewBox="0 0 20 20" fill="none" xmlns="http://www.w3.org/2000/svg">
<path fill-rule="evenodd" clip-rule="evenodd" d="M14.9912 2.43583C14.8404 2.43583 14.6958 2.37593 14.5892 2.26932C14.4826 2.1627 14.4227 2.0181 14.4227 1.86733C14.4227 1.71655 14.4826 1.57195 14.5892 1.46534C14.6958 1.35872 14.8404 1.29883 14.9912 1.29883H18.0232C18.1356 1.29893 18.2454 1.33232 18.3388 1.3948C18.4322 1.45727 18.505 1.54602 18.548 1.64984C18.5909 1.75366 18.6022 1.86789 18.5803 1.9781C18.5584 2.08831 18.5043 2.18956 18.4249 2.26907L16.3632 4.33082H18.0232C18.174 4.33082 18.3186 4.39072 18.4252 4.49733C18.5318 4.60395 18.5917 4.74855 18.5917 4.89932C18.5917 5.0501 18.5318 5.1947 18.4252 5.30131C18.3186 5.40792 18.174 5.46782 18.0232 5.46782H14.9912C14.8788 5.46772 14.769 5.43433 14.6756 5.37185C14.5822 5.30938 14.5094 5.22063 14.4665 5.11681C14.4235 5.01299 14.4122 4.89876 14.4341 4.78855C14.456 4.67834 14.5101 4.57709 14.5895 4.49758L16.6512 2.43583H14.9912ZM11.5802 6.98382C11.4294 6.98382 11.2848 6.92392 11.1782 6.81731C11.0716 6.71069 11.0117 6.56609 11.0117 6.41532C11.0117 6.26454 11.0716 6.11994 11.1782 6.01333C11.2848 5.90671 11.4294 5.84682 11.5802 5.84682H13.8542C13.9666 5.84692 14.0764 5.88031 14.1698 5.94279C14.2632 6.00526 14.336 6.09401 14.379 6.19783C14.422 6.30165 14.4332 6.41588 14.4113 6.52609C14.3894 6.6363 14.3354 6.73755 14.256 6.81706L12.9522 8.12081H13.8542C14.005 8.12081 14.1496 8.18071 14.2562 8.28732C14.3628 8.39394 14.4227 8.53854 14.4227 8.68931C14.4227 8.84009 14.3628 8.98469 14.2562 9.0913C14.1496 9.19792 14.005 9.25781 13.8542 9.25781H11.5802C11.4679 9.25771 11.358 9.22432 11.2646 9.16184C11.1712 9.09937 11.0985 9.01062 11.0555 8.9068C11.0125 8.80298 11.0012 8.68875 11.0231 8.57854C11.045 8.46833 11.0991 8.36708 11.1785 8.28757L12.4822 6.98382H11.5802Z" fill="url(#paint0_linear_11394_15819)"/>
<path d="M9.63411 18.5905C14.2366 18.5905 17.9674 14.8597 17.9674 10.2572C17.9674 9.87133 17.3891 9.80716 17.1899 10.138C16.7652 10.8416 16.1858 11.4393 15.4958 11.8859C14.8058 12.3324 14.0232 12.6161 13.2073 12.7154C12.3914 12.8147 11.5636 12.7271 10.7867 12.4591C10.0097 12.1911 9.30386 11.7498 8.72268 11.1686C8.14151 10.5874 7.70021 9.88161 7.43222 9.10462C7.16422 8.32764 7.07656 7.49985 7.17586 6.68397C7.27517 5.86808 7.55884 5.0855 8.00539 4.39548C8.45194 3.70547 9.04966 3.12612 9.75328 2.70133C10.0841 2.50133 10.0199 1.92383 9.63411 1.92383C5.03161 1.92383 1.30078 5.65466 1.30078 10.2572C1.30078 14.8597 5.03161 18.5905 9.63411 18.5905Z" fill="url(#paint1_linear_11394_15819)"/>
<defs>
<linearGradient id="paint0_linear_11394_15819" x1="14.8017" y1="1.29883" x2="14.8017" y2="9.25781" gradientUnits="userSpaceOnUse">
<stop stop-color="white" stop-opacity="0.8"/>
<stop offset="1" stop-color="white" stop-opacity="0.4"/>
</linearGradient>
<linearGradient id="paint1_linear_11394_15819" x1="9.63411" y1="1.92383" x2="9.63411" y2="18.5905" gradientUnits="userSpaceOnUse">
<stop stop-color="white" stop-opacity="0.8"/>
<stop offset="1" stop-color="white" stop-opacity="0.4"/>
</linearGradient>
</defs>
</svg>
