<svg width="24" height="24" viewBox="0 0 24 24" fill="none" xmlns="http://www.w3.org/2000/svg">
<path d="M21.3084 12.5C21.0484 17.5148 16.9 21.5 11.8213 21.5C6.57494 21.5 2.32129 17.2473 2.32129 12C2.32129 6.75274 6.57494 2.5 11.8213 2.5C14.5074 2.5 16.9334 3.61275 18.6611 5.4091L19.0097 5.77151L19.3701 5.42091L21.6713 3.1825L21.6781 8.85103L15.9565 8.84496L17.896 6.72842L18.2167 6.37846L17.8838 6.04003C16.3414 4.47171 14.195 3.5 11.8213 3.5C7.12734 3.5 3.32129 7.30182 3.32129 12C3.32129 16.6982 7.12734 20.5 11.8213 20.5C16.3475 20.5 20.0482 16.965 20.3068 12.5H21.3084ZM10.2961 11.9355H10.1056L10.1097 11.9004H10.3258C10.3157 11.9119 10.3059 11.9236 10.2961 11.9355ZM13.8232 13.3047C13.8232 12.5641 13.4609 11.9538 12.8948 11.6109C13.4883 11.9013 13.8682 12.5054 13.8682 13.2754C13.8682 13.7639 13.7087 14.194 13.4231 14.5202C13.6765 14.1906 13.8232 13.772 13.8232 13.3047ZM10.1174 14.2246C10.1797 14.3713 10.2638 14.5044 10.3653 14.6228C10.2471 14.5034 10.1529 14.3691 10.0846 14.2246H10.1174Z" fill="url(#paint0_linear_12051_236998)" fill-opacity="0.8" stroke="url(#paint1_linear_12051_236998)"/>
<defs>
<linearGradient id="paint0_linear_12051_236998" x1="13.2402" y1="2" x2="13.2402" y2="22" gradientUnits="userSpaceOnUse">
<stop stop-color="white"/>
<stop offset="1" stop-color="white" stop-opacity="0.5"/>
</linearGradient>
<linearGradient id="paint1_linear_12051_236998" x1="13.2402" y1="2" x2="13.2402" y2="22" gradientUnits="userSpaceOnUse">
<stop stop-color="white"/>
<stop offset="1" stop-color="white" stop-opacity="0"/>
</linearGradient>
</defs>
</svg>
