<svg width="16" height="16" viewBox="0 0 16 16" fill="none" xmlns="http://www.w3.org/2000/svg">
<g id="icn/16_tip">
<path id="Subtract" fill-rule="evenodd" clip-rule="evenodd" d="M10.1113 11.3873C10.0981 11.4139 10.0849 11.4403 10.0716 11.4664L9.41939 12.7391C9.30891 12.9547 9.08309 13.0909 8.83606 13.0909H7.0335C6.78647 13.0909 6.56065 12.9547 6.45018 12.7391L5.798 11.4664C5.78465 11.4403 5.7715 11.4139 5.75828 11.3873C5.6804 11.2306 5.60027 11.0693 5.46392 10.9609C4.5838 10.2607 4.02174 9.19441 4.02174 8C4.02174 5.89128 5.77367 4.18182 7.93478 4.18182C10.0959 4.18182 11.8478 5.89128 11.8478 8C11.8478 9.19441 11.2858 10.2607 10.4056 10.9609C10.2693 11.0693 10.1892 11.2306 10.1113 11.3873ZM9.23913 13.7273C9.23913 14.4302 8.65515 15 7.93478 15C7.21441 15 6.63043 14.4302 6.63043 13.7273H9.23913ZM7.93478 1C7.5746 1 7.28261 1.28491 7.28261 1.63636V2.90909C7.28261 3.26054 7.5746 3.54545 7.93478 3.54545C8.29497 3.54545 8.58696 3.26054 8.58696 2.90909V1.63636C8.58696 1.28491 8.29497 1 7.93478 1ZM12.2997 3.10552C12.5544 2.857 12.9673 2.857 13.222 3.10552C13.4767 3.35403 13.4767 3.75696 13.222 4.00547L12.2997 4.90543C12.045 5.15394 11.6321 5.15394 11.3774 4.90543C11.1227 4.65691 11.1227 4.25399 11.3774 4.00547L12.2997 3.10552ZM2.39594 3.09548C2.14125 3.34399 2.14125 3.74692 2.39594 3.99543L3.31825 4.89539C3.57294 5.1439 3.98588 5.1439 4.24057 4.89539C4.49526 4.64687 4.49526 4.24395 4.24057 3.99543L3.31825 3.09548C3.06356 2.84696 2.65063 2.84696 2.39594 3.09548ZM14.8478 7.36364C15.208 7.36364 15.5 7.64855 15.5 8C15.5 8.35145 15.208 8.63636 14.8478 8.63636H13.5435C13.1833 8.63636 12.8913 8.35145 12.8913 8C12.8913 7.64855 13.1833 7.36364 13.5435 7.36364H14.8478ZM3.1087 8C3.1087 7.64855 2.81671 7.36364 2.45652 7.36364H1.15217C0.791988 7.36364 0.5 7.64855 0.5 8C0.5 8.35145 0.791988 8.63636 1.15217 8.63636H2.45652C2.81671 8.63636 3.1087 8.35145 3.1087 8Z" fill="white" fill-opacity="0.4"/>
</g>
</svg>
