<svg width="141" height="140" viewBox="0 0 141 140" fill="none" xmlns="http://www.w3.org/2000/svg">
<g clip-path="url(#clip0_938_55582)">
<g filter="url(#filter0_d_938_55582)">
<path d="M13.001 129.952L97.9986 92.1903C99.5915 91.4826 100.511 89.8313 100.01 88.1617C98.5287 83.2215 93.8735 72.2016 79.6728 58.0009C65.4721 43.8002 54.4523 39.145 49.512 37.6636C47.8424 37.163 46.1911 38.0822 45.4834 39.6751L7.72152 124.673C6.23458 128.02 9.6541 131.439 13.001 129.952Z" fill="url(#paint0_linear_938_55582)"/>
</g>
<g filter="url(#filter1_d_938_55582)">
<path fill-rule="evenodd" clip-rule="evenodd" d="M39.3338 53.5176C48.7714 64.2365 62.596 70.9997 78.0003 70.9997C82.0894 70.9997 86.0673 70.5231 89.8813 69.6225C96.3358 78.1531 98.9643 84.6729 100.01 88.1614C100.511 89.831 99.5918 91.4823 97.9989 92.19L97.2448 92.525C91.1009 94.1398 84.651 94.9997 78.0003 94.9997C59.2752 94.9997 42.1422 88.1829 28.9476 76.8956L39.3338 53.5176ZM22.3762 91.6871L12.1641 114.673C16.533 118.208 21.2184 121.367 26.1711 124.101L57.1169 110.353C43.7819 107.45 31.8262 100.853 22.3762 91.6871Z" fill="url(#paint1_linear_938_55582)"/>
</g>
<path d="M77.4385 59.6045C90.6361 72.8022 98.5737 86.2622 96.1675 88.6685C92.7613 92.0747 80.3012 83.1371 67.1035 69.9395C53.9059 56.7418 44.9683 44.2817 48.3745 40.8755C50.7807 38.4693 64.2408 46.4068 77.4385 59.6045Z" fill="#125AED"/>
<path d="M50.5328 13.4028C79.0538 25.5549 71.3327 42.5285 59.4977 45.8069C47.6627 49.0853 50.5759 63.4723 56.1031 67.5004" stroke="url(#paint2_linear_938_55582)" stroke-width="6" stroke-linecap="square"/>
<path d="M93.5 46.7989C105.177 48.6956 106.667 36.5494 106.667 36.5494C114.467 42.2639 122.902 41.5907 125.5 31" stroke="url(#paint3_linear_938_55582)" stroke-width="6" stroke-linecap="square" stroke-linejoin="round"/>
<path d="M77.4961 81.9443C77.4961 81.9443 89.4961 58.5 103.177 80.2323C103.177 80.2323 111.996 67.9986 123.721 85.1323" stroke="url(#paint4_linear_938_55582)" stroke-width="6" stroke-linecap="square" stroke-linejoin="round"/>
<path d="M87.4961 9L87.4961 18" stroke="url(#paint5_linear_938_55582)" stroke-width="6" stroke-linecap="square"/>
<path d="M123.496 60L132.496 60" stroke="url(#paint6_linear_938_55582)" stroke-width="6" stroke-linecap="square"/>
</g>
<defs>
<filter id="filter0_d_938_55582" x="-2.63574" y="27.5273" width="112.782" height="112.783" filterUnits="userSpaceOnUse" color-interpolation-filters="sRGB">
<feFlood flood-opacity="0" result="BackgroundImageFix"/>
<feColorMatrix in="SourceAlpha" type="matrix" values="0 0 0 0 0 0 0 0 0 0 0 0 0 0 0 0 0 0 127 0" result="hardAlpha"/>
<feOffset/>
<feGaussianBlur stdDeviation="5"/>
<feComposite in2="hardAlpha" operator="out"/>
<feColorMatrix type="matrix" values="0 0 0 0 0 0 0 0 0 0 0 0 0 0 0 0 0 0 0.15 0"/>
<feBlend mode="normal" in2="BackgroundImageFix" result="effect1_dropShadow_938_55582"/>
<feBlend mode="normal" in="SourceGraphic" in2="effect1_dropShadow_938_55582" result="shape"/>
</filter>
<filter id="filter1_d_938_55582" x="2.16406" y="43.5176" width="107.983" height="90.584" filterUnits="userSpaceOnUse" color-interpolation-filters="sRGB">
<feFlood flood-opacity="0" result="BackgroundImageFix"/>
<feColorMatrix in="SourceAlpha" type="matrix" values="0 0 0 0 0 0 0 0 0 0 0 0 0 0 0 0 0 0 127 0" result="hardAlpha"/>
<feOffset/>
<feGaussianBlur stdDeviation="5"/>
<feComposite in2="hardAlpha" operator="out"/>
<feColorMatrix type="matrix" values="0 0 0 0 0 0 0 0 0 0 0 0 0 0 0 0 0 0 0.15 0"/>
<feBlend mode="normal" in2="BackgroundImageFix" result="effect1_dropShadow_938_55582"/>
<feBlend mode="normal" in="SourceGraphic" in2="effect1_dropShadow_938_55582" result="shape"/>
</filter>
<linearGradient id="paint0_linear_938_55582" x1="95.1549" y1="108.192" x2="31.7289" y2="79.284" gradientUnits="userSpaceOnUse">
<stop stop-color="#19A5F3"/>
<stop offset="1" stop-color="#0C55EC"/>
</linearGradient>
<linearGradient id="paint1_linear_938_55582" x1="8.00004" y1="176" x2="163.502" y2="43.0022" gradientUnits="userSpaceOnUse">
<stop stop-color="#19A5F3"/>
<stop offset="1" stop-color="#0C55EC"/>
</linearGradient>
<linearGradient id="paint2_linear_938_55582" x1="41.1201" y1="52.6494" x2="68.1471" y2="25.6225" gradientUnits="userSpaceOnUse">
<stop stop-color="white" stop-opacity="0.8"/>
<stop offset="1" stop-color="white" stop-opacity="0.4"/>
</linearGradient>
<linearGradient id="paint3_linear_938_55582" x1="109.5" y1="31" x2="109.5" y2="47" gradientUnits="userSpaceOnUse">
<stop stop-color="white" stop-opacity="0.8"/>
<stop offset="1" stop-color="white" stop-opacity="0.4"/>
</linearGradient>
<linearGradient id="paint4_linear_938_55582" x1="100.609" y1="70.998" x2="100.609" y2="85.1323" gradientUnits="userSpaceOnUse">
<stop stop-color="white" stop-opacity="0.8"/>
<stop offset="1" stop-color="white" stop-opacity="0.4"/>
</linearGradient>
<linearGradient id="paint5_linear_938_55582" x1="87.9961" y1="9" x2="87.9961" y2="18" gradientUnits="userSpaceOnUse">
<stop stop-color="white" stop-opacity="0.8"/>
<stop offset="1" stop-color="white" stop-opacity="0.4"/>
</linearGradient>
<linearGradient id="paint6_linear_938_55582" x1="131.495" y1="55.3027" x2="121.347" y2="61.3789" gradientUnits="userSpaceOnUse">
<stop stop-color="white" stop-opacity="0.8"/>
<stop offset="1" stop-color="white" stop-opacity="0.4"/>
</linearGradient>
<clipPath id="clip0_938_55582">
<rect width="140" height="140" fill="white" transform="translate(0.5)"/>
</clipPath>
</defs>
</svg>
