<svg width="15" height="18" viewBox="0 0 15 18" fill="none" xmlns="http://www.w3.org/2000/svg">
<path d="M2 1.5H1.5V2V12.5H0.5V1.63636C0.5 0.995523 1.00335 0.5 1.57895 0.5H10.5L10.5 1.5H2ZM13 16.5H13.5V16L13.5 5V4.5H13H5H4.5V5L4.5 16V16.5H5H13ZM4.5 3.5H13.4211C13.9966 3.5 14.5 3.99552 14.5 4.63636L14.5 16.3636C14.5 17.0045 13.9966 17.5 13.4211 17.5H4.5C3.95678 17.5 3.5 17.0392 3.5 16.3636L3.5 4.63636C3.5 3.96075 3.95678 3.5 4.5 3.5Z" fill="url(#paint0_linear_14811_26130)" stroke="url(#paint1_linear_14811_26130)"/>
<defs>
<linearGradient id="paint0_linear_14811_26130" x1="7.5" y1="0" x2="7.5" y2="18" gradientUnits="userSpaceOnUse">
<stop stop-color="white" stop-opacity="0.8"/>
<stop offset="1" stop-color="white" stop-opacity="0.4"/>
</linearGradient>
<linearGradient id="paint1_linear_14811_26130" x1="7.5" y1="0" x2="7.5" y2="18" gradientUnits="userSpaceOnUse">
<stop stop-color="white"/>
<stop offset="1" stop-color="white" stop-opacity="0"/>
</linearGradient>
</defs>
</svg>
