<svg width="26" height="26" viewBox="0 0 26 26" fill="none" xmlns="http://www.w3.org/2000/svg">
<g filter="url(#filter0_d_11394_25909)">
<path fill-rule="evenodd" clip-rule="evenodd" d="M14.2453 9.98723C13.5575 9.2995 13.5575 8.18446 14.2453 7.49673L16.1569 5.58514C16.8447 4.8974 17.9598 4.8974 18.6475 5.58514L20.5592 7.49673C21.2469 8.18446 21.2469 9.2995 20.5592 9.98723L18.6475 11.8988C17.9598 12.5866 16.8447 12.5866 16.1569 11.8988L14.2453 9.98723ZM6.8353 5.21854C5.86268 5.21854 5.07422 6.007 5.07422 6.97962V10.5017C5.07422 11.4743 5.86268 12.2627 6.8353 12.2627H10.3576C11.3302 12.2627 12.1187 11.4743 12.1187 10.5017V6.97962C12.1187 6.007 11.3302 5.21854 10.3576 5.21854H6.8353ZM6.8353 14.0271C5.86268 14.0271 5.07422 14.8156 5.07422 15.7882V19.3103C5.07422 20.2829 5.86268 21.0713 6.8353 21.0713H10.3576C11.3302 21.0713 12.1187 20.2829 12.1187 19.3103V15.7882C12.1187 14.8156 11.3302 14.0271 10.3576 14.0271H6.8353ZM15.64 14.0271C14.6674 14.0271 13.8789 14.8156 13.8789 15.7882V19.3103C13.8789 20.2829 14.6674 21.0713 15.64 21.0713H19.1623C20.1349 21.0713 20.9233 20.2829 20.9233 19.3103V15.7882C20.9233 14.8156 20.1349 14.0271 19.1623 14.0271H15.64Z" fill="url(#paint0_linear_11394_25909)" shape-rendering="crispEdges"/>
</g>
<defs>
<filter id="filter0_d_11394_25909" x="0.847627" y="0.842744" width="24.4539" height="24.4551" filterUnits="userSpaceOnUse" color-interpolation-filters="sRGB">
<feFlood flood-opacity="0" result="BackgroundImageFix"/>
<feColorMatrix in="SourceAlpha" type="matrix" values="0 0 0 0 0 0 0 0 0 0 0 0 0 0 0 0 0 0 127 0" result="hardAlpha"/>
<feOffset/>
<feGaussianBlur stdDeviation="2.1133"/>
<feComposite in2="hardAlpha" operator="out"/>
<feColorMatrix type="matrix" values="0 0 0 0 0 0 0 0 0 0 0 0 0 0 0 0 0 0 0.2 0"/>
<feBlend mode="normal" in2="BackgroundImageFix" result="effect1_dropShadow_11394_25909"/>
<feBlend mode="normal" in="SourceGraphic" in2="effect1_dropShadow_11394_25909" result="shape"/>
</filter>
<linearGradient id="paint0_linear_11394_25909" x1="13.0746" y1="5.06934" x2="13.0746" y2="21.0713" gradientUnits="userSpaceOnUse">
<stop stop-color="white" stop-opacity="0.8"/>
<stop offset="1" stop-color="white" stop-opacity="0.4"/>
</linearGradient>
</defs>
</svg>
