<svg width="14" height="18" viewBox="0 0 14 18" fill="none" xmlns="http://www.w3.org/2000/svg">
<path d="M13.5 1.5V2.5H0.5V1.5H3.5H3.70711L3.85355 1.35355L4.70711 0.5H9.29289L10.1464 1.35355L10.2929 1.5H10.5H13.5ZM3 5.5H2.5V6V16V16.5H3H11H11.5V16V6V5.5H11H3ZM3 17.5C2.17614 17.5 1.5 16.8239 1.5 16V4.5H12.5V16C12.5 16.8239 11.8239 17.5 11 17.5H3Z" fill="url(#paint0_linear_14811_20491)" stroke="url(#paint1_linear_14811_20491)"/>
<defs>
<linearGradient id="paint0_linear_14811_20491" x1="7" y1="0" x2="7" y2="18" gradientUnits="userSpaceOnUse">
<stop stop-color="white" stop-opacity="0.8"/>
<stop offset="1" stop-color="white" stop-opacity="0.4"/>
</linearGradient>
<linearGradient id="paint1_linear_14811_20491" x1="7" y1="0" x2="7" y2="18" gradientUnits="userSpaceOnUse">
<stop stop-color="white"/>
<stop offset="1" stop-color="white" stop-opacity="0"/>
</linearGradient>
</defs>
</svg>
