<svg width="16" height="16" viewBox="0 0 16 16" fill="none" xmlns="http://www.w3.org/2000/svg">
<path fill-rule="evenodd" clip-rule="evenodd" d="M13 3.5H3C2.72386 3.5 2.5 3.72386 2.5 4V12C2.5 12.2761 2.72386 12.5 3 12.5H13C13.2761 12.5 13.5 12.2761 13.5 12V4C13.5 3.72386 13.2761 3.5 13 3.5ZM3 2C1.89543 2 1 2.89543 1 4V12C1 13.1046 1.89543 14 3 14H13C14.1046 14 15 13.1046 15 12V4C15 2.89543 14.1046 2 13 2H3Z" fill="white" fill-opacity="0.7"/>
<path fill-rule="evenodd" clip-rule="evenodd" d="M5.00011 4.9375L8.06077 7.99816L5.00011 11.0588L3.93945 9.99816L5.93945 7.99816L3.93945 5.99816L5.00011 4.9375Z" fill="white" fill-opacity="0.7"/>
<path fill-rule="evenodd" clip-rule="evenodd" d="M8.25 9.25H11.75V10.75H8.25V9.25Z" fill="white" fill-opacity="0.7"/>
</svg>
