<svg width="272" height="93" viewBox="0 0 272 93" fill="none" xmlns="http://www.w3.org/2000/svg">
<rect width="272" height="93" rx="4" fill="white" fill-opacity="0.08"/>
<path d="M64 39C64 40.3807 62.8807 41.5 61.5 41.5C60.1193 41.5 59 40.3807 59 39C59 37.6193 60.1193 36.5 61.5 36.5C62.8807 36.5 64 37.6193 64 39Z" fill="url(#paint0_linear_11803_260573)" stroke="url(#paint1_linear_11803_260573)"/>
<path d="M59.0188 44.5H63.9812C66.1747 44.5 68 46.4004 68 48.7945V50.5H55V48.7945C55 46.3929 56.8324 44.5 59.0188 44.5Z" fill="url(#paint2_linear_11803_260573)" stroke="url(#paint3_linear_11803_260573)"/>
<path d="M201.295 25H202.477V21.6055H205.774V20.5957H202.477V18.2432H206.118V17.2227H201.295V25ZM208.492 17.2227H207.343V25H208.492V17.2227ZM212.359 25.1182C214.003 25.1182 215.077 23.915 215.077 22.1104C215.077 20.2949 214.003 19.0918 212.359 19.0918C210.705 19.0918 209.625 20.2949 209.631 22.1104C209.625 23.915 210.705 25.1182 212.359 25.1182ZM210.78 22.1104C210.78 20.9932 211.291 20.0425 212.359 20.0371C213.412 20.0425 213.917 20.9932 213.917 22.1104C213.917 23.2222 213.412 24.1621 212.359 24.1621C211.291 24.1621 210.78 23.2222 210.78 22.1104ZM217.279 25H218.461L219.632 20.7998H219.718L220.899 25H222.07L223.778 19.167H222.597L221.469 23.4209H221.404L220.276 19.167H219.095L217.956 23.4424H217.892L216.753 19.167H215.571L217.279 25ZM230.353 17.2227H229.192L227.259 18.4902V19.6182L229.117 18.4043H229.16V25H230.353V17.2227Z" fill="#96C859"/>
<path d="M38.2949 63H43.2148V61.9795H39.4766V59.6055H42.9141V58.5957H39.4766V56.2432H43.1719V55.2227H38.2949V63ZM45.6748 59.541C45.6748 58.6118 46.2388 58.0801 47.0283 58.0801C47.8018 58.0801 48.2583 58.585 48.2637 59.4336V63H49.4023V59.2939C49.4077 57.8491 48.6128 57.0918 47.415 57.0918C46.5449 57.0918 45.9702 57.4946 45.6963 58.123H45.6318V57.167H44.5254V63H45.6748V59.541ZM53.5273 57.167H52.335V55.7705H51.1963V57.167H50.3369V58.0801H51.1963V61.5176C51.1855 62.5811 51.9966 63.0752 52.8936 63.0752C53.2104 63.0752 53.4575 63.0537 53.6133 63.0322V62.0332C53.4521 62.0493 53.1997 62.0654 53.0332 62.0654C52.6626 62.0601 52.3403 61.9419 52.335 61.2812V58.0801H53.5273V57.167ZM54.6445 63H55.7939V59.4443C55.7939 58.6816 56.3848 58.1284 57.1797 58.1338C57.416 58.1284 57.6846 58.1768 57.7812 58.1982V57.1025C57.6631 57.0918 57.4375 57.0757 57.2979 57.0811C56.6157 57.0757 56.0303 57.4678 55.8154 58.0908H55.751V57.167H54.6445V63ZM58.3076 61.3564C58.3022 62.4951 59.167 63.1289 60.2734 63.1289C61.2402 63.1289 61.7773 62.6401 62.0029 62.2051H62.0459V63H63.1631V59.1221C63.1577 57.4302 61.8042 57.0918 60.875 57.0918C59.4946 57.0918 58.5923 57.79 58.4902 58.7568H59.6289C59.7471 58.3271 60.1553 58.0156 60.832 58.0156C61.6108 58.0156 62.019 58.397 62.0137 59.0576L62.019 59.5249C61.7505 59.5356 60.875 59.584 60.4883 59.6055C59.4355 59.6807 58.3022 60.0244 58.3076 61.3564ZM59.4248 61.3672C59.4248 60.7925 59.8975 60.5078 60.6494 60.4541C60.9233 60.438 61.7559 60.3789 62.019 60.3628L62.0244 60.8945C62.0244 61.5874 61.4658 62.2104 60.5312 62.2158C59.8867 62.2104 59.4248 61.9258 59.4248 61.3672ZM65.6982 59.541C65.6982 58.6118 66.2622 58.0801 67.0518 58.0801C67.8252 58.0801 68.2817 58.585 68.2871 59.4336V63H69.4258V59.2939C69.4312 57.8491 68.6362 57.0918 67.4385 57.0918C66.5684 57.0918 65.9937 57.4946 65.7197 58.123H65.6553V57.167H64.5488V63H65.6982V59.541ZM73.293 63.1182C74.668 63.1182 75.5649 62.2856 75.6885 61.1523H74.5713C74.4263 61.7808 73.9429 62.146 73.293 62.1406C72.3315 62.146 71.7139 61.3564 71.7139 60.0781C71.7139 58.8374 72.3477 58.0532 73.293 58.0479C74.0181 58.0532 74.4531 58.5098 74.5713 59.0576H75.6885C75.5649 57.876 74.6035 57.0918 73.2715 57.0918C71.6279 57.0918 70.5591 58.3325 70.5645 60.1104C70.5591 61.8667 71.5903 63.1182 73.293 63.1182ZM79.2871 63.1182C80.5708 63.1182 81.4678 62.4844 81.7256 61.5391H80.5654C80.3721 61.8936 79.9478 62.1729 79.2979 62.1729C78.3418 62.1729 77.6865 61.5444 77.6543 60.4326H81.8008V60.0244C81.8008 57.9136 80.5386 57.0918 79.2119 57.0918C77.5845 57.0918 76.5103 58.3271 76.5156 60.1211C76.5103 61.9312 77.5684 63.1182 79.2871 63.1182ZM77.6597 59.5732C77.708 58.7515 78.3042 58.0317 79.2227 58.0371C80.0981 58.0317 80.6729 58.687 80.6729 59.5732H77.6597Z" fill="#DDDDDD"/>
<path d="M201.295 50H202.477V46.6055H205.774V45.5957H202.477V43.2432H206.118V42.2227H201.295V50ZM208.492 42.2227H207.343V50H208.492V42.2227ZM212.359 50.1182C214.003 50.1182 215.077 48.915 215.077 47.1104C215.077 45.2949 214.003 44.0918 212.359 44.0918C210.705 44.0918 209.625 45.2949 209.631 47.1104C209.625 48.915 210.705 50.1182 212.359 50.1182ZM210.78 47.1104C210.78 45.9932 211.291 45.0425 212.359 45.0371C213.412 45.0425 213.917 45.9932 213.917 47.1104C213.917 48.2222 213.412 49.1621 212.359 49.1621C211.291 49.1621 210.78 48.2222 210.78 47.1104ZM217.279 50H218.461L219.632 45.7998H219.718L220.899 50H222.07L223.778 44.167H222.597L221.469 48.4209H221.404L220.276 44.167H219.095L217.956 48.4424H217.892L216.753 44.167H215.571L217.279 50ZM227.398 50H232.63V48.9902H229.042V48.9258L230.621 47.3252C232.082 45.8911 232.49 45.1982 232.501 44.3281C232.49 43.0659 231.454 42.1152 229.955 42.1152C228.473 42.1152 227.388 43.0552 227.398 44.4785H228.516C228.521 43.6514 229.069 43.1035 229.934 43.1035C230.75 43.1035 231.373 43.5923 231.373 44.3604C231.373 45.0425 230.949 45.5366 230.095 46.4229L227.398 49.1406V50Z" fill="#4BA4ED"/>
<path d="M201.295 75H202.477V71.6055H205.774V70.5957H202.477V68.2432H206.118V67.2227H201.295V75ZM208.492 67.2227H207.343V75H208.492V67.2227ZM212.359 75.1182C214.003 75.1182 215.077 73.915 215.077 72.1104C215.077 70.2949 214.003 69.0918 212.359 69.0918C210.705 69.0918 209.625 70.2949 209.631 72.1104C209.625 73.915 210.705 75.1182 212.359 75.1182ZM210.78 72.1104C210.78 70.9932 211.291 70.0425 212.359 70.0371C213.412 70.0425 213.917 70.9932 213.917 72.1104C213.917 73.2222 213.412 74.1621 212.359 74.1621C211.291 74.1621 210.78 73.2222 210.78 72.1104ZM217.279 75H218.461L219.632 70.7998H219.718L220.899 75H222.07L223.778 69.167H222.597L221.469 73.4209H221.404L220.276 69.167H219.095L217.956 73.4424H217.892L216.753 69.167H215.571L217.279 75ZM230.159 75.1074C231.771 75.1074 232.968 74.1567 232.963 72.8623C232.968 71.8794 232.351 71.165 231.287 71.0146V70.9609C232.125 70.7515 232.673 70.1177 232.662 69.2314C232.673 68.082 231.711 67.1152 230.181 67.1152C228.73 67.1152 227.56 67.9746 227.527 69.2422H228.666C228.693 68.5386 229.391 68.1035 230.17 68.1035C230.992 68.1035 231.523 68.5869 231.523 69.2959C231.523 70.0425 230.906 70.5366 230.02 70.5312H229.354V71.498H230.02C231.131 71.5034 231.771 72.0513 231.771 72.8193C231.771 73.5767 231.088 74.0869 230.148 74.0869C229.278 74.0869 228.602 73.6519 228.559 72.9697H227.355C227.404 74.2427 228.548 75.1074 230.159 75.1074Z" fill="#4BEDED"/>
<path d="M99.5 47L108.148 25.5068C108.758 23.9922 110.227 23 111.859 23H125.5" stroke="#DDDDDD" stroke-width="0.5" stroke-linecap="round"/>
<path opacity="0.2" d="M123.594 22.5L187.906 22.5" stroke="#96C859" stroke-width="14" stroke-linecap="round"/>
<path opacity="0.2" d="M187.906 71.5L142.054 71.5C139.164 71.5 136.498 69.9411 135.081 67.4221L123.594 47" stroke="#4BEDED" stroke-width="14" stroke-linecap="round"/>
<circle cx="123.594" cy="22.5" r="4.59375" fill="#96C859"/>
<circle cx="145.031" cy="22.5" r="4.59375" fill="#96C859"/>
<circle cx="145.031" cy="71.5" r="4.59375" fill="#4BEDED"/>
<circle cx="166.469" cy="22.5" r="4.59375" fill="#96C859"/>
<circle cx="166.469" cy="71.5" r="4.59375" fill="#4BEDED"/>
<circle cx="187.906" cy="22.5" r="4.59375" fill="#96C859"/>
<circle cx="187.906" cy="71.5" r="4.59375" fill="#4BEDED"/>
<line x1="122.062" y1="22.25" x2="184.844" y2="22.25" stroke="#96C859" stroke-width="0.5"/>
<path opacity="0.2" d="M123.594 47L187.906 47" stroke="#4BA4ED" stroke-width="14" stroke-linecap="round"/>
<circle cx="145.031" cy="47" r="4.59375" fill="#4BA4ED"/>
<circle cx="166.469" cy="47" r="4.59375" fill="#4BA4ED"/>
<circle cx="187.906" cy="47" r="4.59375" fill="#4BA4ED"/>
<line x1="122.062" y1="46.75" x2="186.375" y2="46.75" stroke="#4BA4ED" stroke-width="0.5"/>
<path d="M89.8333 47C89.8333 46.2636 89.2364 45.6667 88.5 45.6667C87.7636 45.6667 87.1667 46.2636 87.1667 47C87.1667 47.7364 87.7636 48.3333 88.5 48.3333C89.2364 48.3333 89.8333 47.7364 89.8333 47ZM122.5 46.75L88.5 46.75L88.5 47.25L122.5 47.25L122.5 46.75Z" fill="#DDDDDD"/>
<path d="M187.906 71.1172H139.593C137.755 71.1172 136.065 70.1091 135.193 68.4919L123.594 47" stroke="#4BEDED" stroke-width="0.5" stroke-linecap="round"/>
<circle cx="123.594" cy="47" r="4.59375" fill="#4BA4ED"/>
<defs>
<linearGradient id="paint0_linear_11803_260573" x1="61.5" y1="36" x2="61.5" y2="42" gradientUnits="userSpaceOnUse">
<stop stop-color="white" stop-opacity="0.8"/>
<stop offset="1" stop-color="white" stop-opacity="0.4"/>
</linearGradient>
<linearGradient id="paint1_linear_11803_260573" x1="61.5" y1="36" x2="61.5" y2="42" gradientUnits="userSpaceOnUse">
<stop stop-color="white"/>
<stop offset="1" stop-color="white" stop-opacity="0"/>
</linearGradient>
<linearGradient id="paint2_linear_11803_260573" x1="61.5" y1="44" x2="61.5" y2="51" gradientUnits="userSpaceOnUse">
<stop stop-color="white" stop-opacity="0.8"/>
<stop offset="1" stop-color="white" stop-opacity="0.4"/>
</linearGradient>
<linearGradient id="paint3_linear_11803_260573" x1="61.5" y1="44" x2="61.5" y2="51" gradientUnits="userSpaceOnUse">
<stop stop-color="white"/>
<stop offset="1" stop-color="white" stop-opacity="0"/>
</linearGradient>
</defs>
</svg>
