<svg width="20" height="20" viewBox="0 0 20 20" fill="none" xmlns="http://www.w3.org/2000/svg">
<path fill-rule="evenodd" clip-rule="evenodd" d="M9.09877 1.44982C9.65645 1.14433 10.3435 1.14433 10.9012 1.44982L17.0988 4.84474C17.6565 5.15023 18 5.7148 18 6.32578V13.1156C18 13.7266 17.6565 14.2912 17.0988 14.5967L10.9012 17.9916C10.3435 18.2971 9.65645 18.2971 9.09877 17.9916L2.90123 14.5967C2.34355 14.2912 2 13.7266 2 13.1156V6.32578C2 5.7148 2.34355 5.15023 2.90123 4.84474L9.09877 1.44982ZM5.75133 7.01893C5.8308 6.85869 6.03214 6.78993 6.20102 6.86533L9.88517 8.51027L13.4575 6.86694C13.6254 6.78967 13.8276 6.85622 13.909 7.01557C13.9905 7.17492 13.9203 7.36673 13.7524 7.44399L10.2048 9.07596C10.2181 9.11036 10.2253 9.14751 10.2253 9.18628V12.6066C10.2253 12.7837 10.074 12.9273 9.88735 12.9273C9.7007 12.9273 9.54939 12.7837 9.54939 12.6066V9.18628C9.54939 9.14826 9.55636 9.11178 9.56916 9.07794L5.91322 7.4456C5.74433 7.37019 5.67185 7.17917 5.75133 7.01893Z" fill="url(#paint0_linear_12786_169824)"/>
<defs>
<linearGradient id="paint0_linear_12786_169824" x1="10" y1="1.2207" x2="10" y2="18.2207" gradientUnits="userSpaceOnUse">
<stop stop-color="white"/>
<stop offset="1" stop-color="white" stop-opacity="0.5"/>
</linearGradient>
</defs>
</svg>
