<svg width="20" height="20" viewBox="0 0 20 20" fill="none" xmlns="http://www.w3.org/2000/svg">
<mask id="path-1-inside-1_434_3511" fill="white">
<path fill-rule="evenodd" clip-rule="evenodd" d="M8.9776 2C8.56075 2 8.18763 2.25857 8.04127 2.64888L7.70947 3.53368C7.4824 3.61404 7.26083 3.70602 7.04546 3.80891L6.18931 3.41975C5.80983 3.24726 5.36315 3.32825 5.0684 3.62301L3.62408 5.06732C3.32933 5.36208 3.24833 5.80875 3.42082 6.18823L3.80921 7.04269C3.70524 7.25991 3.61236 7.48345 3.53131 7.71259L2.64888 8.0435C2.25857 8.18986 2 8.56298 2 8.97983V11.0224C2 11.4392 2.25857 11.8124 2.64888 11.9587L3.53245 12.2901C3.61265 12.5164 3.7044 12.7374 3.80699 12.9521L3.41584 13.8126C3.24335 14.1921 3.32435 14.6388 3.6191 14.9336L5.06342 16.3779C5.35817 16.6726 5.80484 16.7536 6.18433 16.5811L7.04457 16.1901C7.26095 16.2935 7.48361 16.3859 7.7118 16.4666L8.0435 17.3511C8.18987 17.7414 8.56299 18 8.97983 18H11.0224C11.4392 18 11.8124 17.7414 11.9587 17.3511L12.2915 16.4639C12.5178 16.3835 12.7387 16.2917 12.9534 16.189L13.8185 16.5822C14.198 16.7547 14.6447 16.6737 14.9394 16.3789L16.3837 14.9346C16.6785 14.6399 16.7595 14.1932 16.587 13.8137L16.192 12.9448C16.293 12.7329 16.3834 12.5149 16.4625 12.2917L17.3511 11.9585C17.7414 11.8121 18 11.439 18 11.0221V8.97955C18 8.56271 17.7414 8.18959 17.3511 8.04322L16.4634 7.71034C16.3826 7.48212 16.2901 7.25945 16.1865 7.04306L16.5763 6.1854C16.7488 5.80592 16.6678 5.35925 16.3731 5.06449L14.9288 3.62018C14.634 3.32542 14.1873 3.24443 13.8079 3.41692L12.9478 3.80784C12.734 3.70577 12.514 3.61445 12.2886 3.53459L11.9565 2.64888C11.8101 2.25857 11.437 2 11.0202 2H8.9776ZM9.99888 13.4294C11.8924 13.4294 13.4275 11.8944 13.4275 10.0008C13.4275 8.10729 11.8924 6.57227 9.99888 6.57227C8.10534 6.57227 6.57031 8.10729 6.57031 10.0008C6.57031 11.8944 8.10534 13.4294 9.99888 13.4294Z"/>
</mask>
<path fill-rule="evenodd" clip-rule="evenodd" d="M8.9776 2C8.56075 2 8.18763 2.25857 8.04127 2.64888L7.70947 3.53368C7.4824 3.61404 7.26083 3.70602 7.04546 3.80891L6.18931 3.41975C5.80983 3.24726 5.36315 3.32825 5.0684 3.62301L3.62408 5.06732C3.32933 5.36208 3.24833 5.80875 3.42082 6.18823L3.80921 7.04269C3.70524 7.25991 3.61236 7.48345 3.53131 7.71259L2.64888 8.0435C2.25857 8.18986 2 8.56298 2 8.97983V11.0224C2 11.4392 2.25857 11.8124 2.64888 11.9587L3.53245 12.2901C3.61265 12.5164 3.7044 12.7374 3.80699 12.9521L3.41584 13.8126C3.24335 14.1921 3.32435 14.6388 3.6191 14.9336L5.06342 16.3779C5.35817 16.6726 5.80484 16.7536 6.18433 16.5811L7.04457 16.1901C7.26095 16.2935 7.48361 16.3859 7.7118 16.4666L8.0435 17.3511C8.18987 17.7414 8.56299 18 8.97983 18H11.0224C11.4392 18 11.8124 17.7414 11.9587 17.3511L12.2915 16.4639C12.5178 16.3835 12.7387 16.2917 12.9534 16.189L13.8185 16.5822C14.198 16.7547 14.6447 16.6737 14.9394 16.3789L16.3837 14.9346C16.6785 14.6399 16.7595 14.1932 16.587 13.8137L16.192 12.9448C16.293 12.7329 16.3834 12.5149 16.4625 12.2917L17.3511 11.9585C17.7414 11.8121 18 11.439 18 11.0221V8.97955C18 8.56271 17.7414 8.18959 17.3511 8.04322L16.4634 7.71034C16.3826 7.48212 16.2901 7.25945 16.1865 7.04306L16.5763 6.1854C16.7488 5.80592 16.6678 5.35925 16.3731 5.06449L14.9288 3.62018C14.634 3.32542 14.1873 3.24443 13.8079 3.41692L12.9478 3.80784C12.734 3.70577 12.514 3.61445 12.2886 3.53459L11.9565 2.64888C11.8101 2.25857 11.437 2 11.0202 2H8.9776ZM9.99888 13.4294C11.8924 13.4294 13.4275 11.8944 13.4275 10.0008C13.4275 8.10729 11.8924 6.57227 9.99888 6.57227C8.10534 6.57227 6.57031 8.10729 6.57031 10.0008C6.57031 11.8944 8.10534 13.4294 9.99888 13.4294Z" fill="url(#paint0_linear_434_3511)" fill-opacity="0.8"/>
<path d="M8.04127 2.64888L8.9776 3V3L8.04127 2.64888ZM7.70947 3.53368L8.0431 4.47638L8.48224 4.32097L8.6458 3.8848L7.70947 3.53368ZM7.04546 3.80891L6.63166 4.71927L7.05597 4.91214L7.47654 4.71122L7.04546 3.80891ZM6.18931 3.41975L5.77551 4.33011H5.77551L6.18931 3.41975ZM5.0684 3.62301L5.77551 4.33011L5.0684 3.62301ZM3.62408 5.06732L4.33119 5.77443L3.62408 5.06732ZM3.42082 6.18823L2.51046 6.60203L2.51046 6.60204L3.42082 6.18823ZM3.80921 7.04269L4.7112 7.47446L4.91264 7.05363L4.71958 6.62889L3.80921 7.04269ZM3.53131 7.71259L3.88243 8.64892L4.31871 8.48531L4.47408 8.04604L3.53131 7.71259ZM2.64888 8.0435L3 8.97983H3L2.64888 8.0435ZM2.64888 11.9587L3 11.0224L3 11.0224L2.64888 11.9587ZM3.53245 12.2901L4.47505 11.9561L4.31956 11.5172L3.88357 11.3537L3.53245 12.2901ZM3.80699 12.9521L4.71736 13.3659L4.91023 12.9416L4.7093 12.521L3.80699 12.9521ZM3.41584 13.8126L4.32621 14.2264L3.41584 13.8126ZM3.6191 14.9336L2.91199 15.6407H2.91199L3.6191 14.9336ZM5.06342 16.3779L5.77052 15.6708H5.77052L5.06342 16.3779ZM6.18433 16.5811L6.59813 17.4915L6.59813 17.4915L6.18433 16.5811ZM7.04457 16.1901L7.47578 15.2879L7.05516 15.0868L6.63077 15.2797L7.04457 16.1901ZM7.7118 16.4666L8.64813 16.1155L8.48449 15.6791L8.04508 15.5238L7.7118 16.4666ZM8.0435 17.3511L7.10717 17.7022L7.10717 17.7022L8.0435 17.3511ZM11.9587 17.3511L11.0224 17L11.0224 17L11.9587 17.3511ZM12.2915 16.4639L11.957 15.5214L11.5185 15.677L11.3551 16.1127L12.2915 16.4639ZM12.9534 16.189L13.3672 15.2786L12.9426 15.0856L12.5218 15.2869L12.9534 16.189ZM13.8185 16.5822L13.4047 17.4926H13.4047L13.8185 16.5822ZM16.587 13.8137L17.4974 13.3999V13.3999L16.587 13.8137ZM16.192 12.9448L15.2892 12.5148L15.0891 12.9349L15.2817 13.3586L16.192 12.9448ZM16.4625 12.2917L16.1114 11.3554L15.6755 11.5188L15.52 11.9575L16.4625 12.2917ZM17.3511 11.9585L17.7022 12.8948L17.3511 11.9585ZM17.3511 8.04322L17 8.97955H17L17.3511 8.04322ZM16.4634 7.71034L15.5208 8.04412L15.6762 8.48314L16.1123 8.64667L16.4634 7.71034ZM16.1865 7.04306L15.2761 6.62926L15.0831 7.05397L15.2845 7.47478L16.1865 7.04306ZM16.5763 6.1854L17.4867 6.5992L17.4867 6.5992L16.5763 6.1854ZM16.3731 5.06449L17.0802 4.35739L17.0802 4.35739L16.3731 5.06449ZM14.9288 3.62018L14.2217 4.32728L14.2217 4.32728L14.9288 3.62018ZM13.8079 3.41692L14.2217 4.32728L13.8079 3.41692ZM12.9478 3.80784L12.5171 4.71031L12.9375 4.91098L13.3616 4.7182L12.9478 3.80784ZM12.2886 3.53459L11.3523 3.88571L11.5158 4.32165L11.9546 4.47716L12.2886 3.53459ZM11.9565 2.64888L12.8928 2.29775V2.29775L11.9565 2.64888ZM8.9776 3L8.9776 3V1C8.14391 1 7.39767 1.51714 7.10494 2.29775L8.9776 3ZM8.6458 3.8848L8.9776 3L7.10494 2.29775L6.77314 3.18255L8.6458 3.8848ZM7.47654 4.71122C7.66035 4.62341 7.8494 4.54493 8.0431 4.47638L7.37584 2.59097C7.1154 2.68314 6.86131 2.78863 6.61439 2.90659L7.47654 4.71122ZM5.77551 4.33011L6.63166 4.71927L7.45926 2.89854L6.60311 2.50938L5.77551 4.33011ZM5.77551 4.33011L5.77551 4.33011L6.60311 2.50938C5.84415 2.1644 4.9508 2.32639 4.36129 2.9159L5.77551 4.33011ZM4.33119 5.77443L5.77551 4.33011L4.36129 2.9159L2.91698 4.36022L4.33119 5.77443ZM4.33119 5.77443L4.33119 5.77443L2.91698 4.36022C2.32747 4.94972 2.16547 5.84307 2.51046 6.60203L4.33119 5.77443ZM4.71958 6.62889L4.33119 5.77443L2.51046 6.60204L2.89885 7.45649L4.71958 6.62889ZM4.47408 8.04604C4.54321 7.85059 4.62245 7.65985 4.7112 7.47446L2.90723 6.61092C2.78802 6.85997 2.6815 7.11632 2.58855 7.37913L4.47408 8.04604ZM3 8.97983L3.88243 8.64892L3.18019 6.77626L2.29775 7.10717L3 8.97983ZM3 8.97983L3 8.97983L2.29775 7.10717C1.51715 7.3999 1 8.14614 1 8.97983H3ZM3 11.0224V8.97983H1V11.0224H3ZM3 11.0224L3 11.0224H1C1 11.8561 1.51714 12.6023 2.29775 12.8951L3 11.0224ZM3.88357 11.3537L3 11.0224L2.29775 12.8951L3.18133 13.2264L3.88357 11.3537ZM4.7093 12.521C4.62174 12.3377 4.54346 12.1492 4.47505 11.9561L2.58985 12.624C2.68184 12.8837 2.78706 13.137 2.90468 13.3832L4.7093 12.521ZM4.32621 14.2264L4.71736 13.3659L2.89663 12.5383L2.50547 13.3988L4.32621 14.2264ZM4.32621 14.2264H4.32621L2.50547 13.3988C2.16049 14.1578 2.32249 15.0512 2.91199 15.6407L4.32621 14.2264ZM5.77052 15.6708L4.32621 14.2264L2.91199 15.6407L4.35631 17.085L5.77052 15.6708ZM5.77052 15.6708H5.77052L4.35631 17.085C4.94582 17.6745 5.83917 17.8365 6.59813 17.4915L5.77052 15.6708ZM6.63077 15.2797L5.77052 15.6708L6.59813 17.4915L7.45838 17.1005L6.63077 15.2797ZM8.04508 15.5238C7.85043 15.455 7.66046 15.3761 7.47578 15.2879L6.61337 17.0924C6.86145 17.2109 7.11678 17.3169 7.37852 17.4094L8.04508 15.5238ZM8.97983 17L8.64813 16.1155L6.77547 16.8177L7.10717 17.7022L8.97983 17ZM8.97983 17L7.10717 17.7022C7.3999 18.4829 8.14614 19 8.97983 19V17ZM11.0224 17H8.97983V19H11.0224V17ZM11.0224 17L11.0224 17V19C11.8561 19 12.6023 18.4829 12.8951 17.7022L11.0224 17ZM11.3551 16.1127L11.0224 17L12.8951 17.7022L13.2278 16.815L11.3551 16.1127ZM12.5218 15.2869C12.3386 15.3745 12.1501 15.4529 11.957 15.5214L12.6259 17.4063C12.8855 17.3142 13.1388 17.2088 13.3849 17.091L12.5218 15.2869ZM14.2323 15.6718L13.3672 15.2786L12.5396 17.0993L13.4047 17.4926L14.2323 15.6718ZM14.2323 15.6718V15.6718L13.4047 17.4926C14.1637 17.8376 15.057 17.6756 15.6465 17.0861L14.2323 15.6718ZM15.6766 14.2275L14.2323 15.6718L15.6465 17.0861L17.0908 15.6417L15.6766 14.2275ZM15.6766 14.2275L17.0908 15.6417C17.6803 15.0522 17.8423 14.1589 17.4974 13.3999L15.6766 14.2275ZM15.2817 13.3586L15.6766 14.2275L17.4974 13.3999L17.1024 12.531L15.2817 13.3586ZM15.52 11.9575C15.4525 12.148 15.3754 12.3339 15.2892 12.5148L17.0948 13.3748C17.2106 13.1318 17.3142 12.8819 17.405 12.6258L15.52 11.9575ZM17 11.0221L16.1114 11.3554L16.8136 13.228L17.7022 12.8948L17 11.0221ZM17 11.0221L17.7022 12.8948C18.4829 12.6021 19 11.8558 19 11.0221H17ZM17 8.97955V11.0221H19V8.97955H17ZM17 8.97955L17 8.97955H19C19 8.14586 18.4829 7.39962 17.7022 7.10689L17 8.97955ZM16.1123 8.64667L17 8.97955L17.7022 7.10689L16.8146 6.77401L16.1123 8.64667ZM15.2845 7.47478C15.3729 7.65946 15.4518 7.84945 15.5208 8.04412L17.4061 7.37655C17.3134 7.11479 17.2073 6.85944 17.0885 6.61135L15.2845 7.47478ZM15.666 5.7716L15.2761 6.62926L17.0969 7.45687L17.4867 6.5992L15.666 5.7716ZM15.666 5.7716V5.7716L17.4867 6.5992C17.8317 5.84024 17.6697 4.94689 17.0802 4.35739L15.666 5.7716ZM14.2217 4.32728L15.666 5.7716L17.0802 4.35739L15.6359 2.91307L14.2217 4.32728ZM14.2217 4.32728L14.2217 4.32728L15.6359 2.91307C15.0464 2.32356 14.153 2.16157 13.3941 2.50655L14.2217 4.32728ZM13.3616 4.7182L14.2217 4.32728L13.3941 2.50655L12.534 2.89747L13.3616 4.7182ZM11.9546 4.47716C12.1469 4.54529 12.3346 4.6232 12.5171 4.71031L13.3786 2.90536C13.1334 2.78834 12.8812 2.68362 12.6226 2.59202L11.9546 4.47716ZM11.0202 3L11.3523 3.88571L13.225 3.18346L12.8928 2.29775L11.0202 3ZM11.0202 3V3L12.8928 2.29775C12.6001 1.51715 11.8539 1 11.0202 1V3ZM8.9776 3H11.0202V1H8.9776V3ZM12.4275 10.0008C12.4275 11.3421 11.3401 12.4294 9.99888 12.4294V14.4294C12.4447 14.4294 14.4275 12.4467 14.4275 10.0008H12.4275ZM9.99888 7.57227C11.3401 7.57227 12.4275 8.65957 12.4275 10.0008H14.4275C14.4275 7.555 12.4447 5.57227 9.99888 5.57227V7.57227ZM7.57031 10.0008C7.57031 8.65957 8.65762 7.57227 9.99888 7.57227V5.57227C7.55305 5.57227 5.57031 7.555 5.57031 10.0008H7.57031ZM9.99888 12.4294C8.65762 12.4294 7.57031 11.3421 7.57031 10.0008H5.57031C5.57031 12.4467 7.55305 14.4294 9.99888 14.4294V12.4294Z" fill="url(#paint1_linear_434_3511)" mask="url(#path-1-inside-1_434_3511)"/>
<defs>
<linearGradient id="paint0_linear_434_3511" x1="10" y1="2" x2="10" y2="18" gradientUnits="userSpaceOnUse">
<stop stop-color="white"/>
<stop offset="1" stop-color="white" stop-opacity="0.5"/>
</linearGradient>
<linearGradient id="paint1_linear_434_3511" x1="10" y1="2" x2="10" y2="18" gradientUnits="userSpaceOnUse">
<stop stop-color="white"/>
<stop offset="1" stop-color="white" stop-opacity="0"/>
</linearGradient>
</defs>
</svg>
