<svg width="24" height="24" viewBox="0 0 24 24" fill="none" xmlns="http://www.w3.org/2000/svg">
<path d="M19.5 18.7071V19H4.5V18.7071L6.35355 16.8536L6.5 16.7071V16.5V11.5C6.5 8.59437 8.02219 6.28092 10.6153 5.66653L11 5.57538V5.18V4.5C11 3.94614 11.4461 3.5 12 3.5C12.5539 3.5 13 3.94614 13 4.5V5.18V5.57506L13.3843 5.66644C15.9681 6.28076 17.5 8.60482 17.5 11.5V16.5V16.7071L17.6464 16.8536L19.5 18.7071ZM13.4135 21C13.2061 21.5806 12.6488 22 12 22C11.3443 22 10.7907 21.5813 10.5854 21H13.4135Z" fill="url(#paint0_linear_11191_82722)" stroke="url(#paint1_linear_11191_82722)"/>
<defs>
<linearGradient id="paint0_linear_11191_82722" x1="12" y1="3" x2="12" y2="22.5" gradientUnits="userSpaceOnUse">
<stop stop-color="white" stop-opacity="0.8"/>
<stop offset="1" stop-color="white" stop-opacity="0.4"/>
</linearGradient>
<linearGradient id="paint1_linear_11191_82722" x1="12" y1="3" x2="12" y2="22.5" gradientUnits="userSpaceOnUse">
<stop stop-color="white"/>
<stop offset="1" stop-color="white" stop-opacity="0"/>
</linearGradient>
</defs>
</svg>
