<svg width="14" height="14" viewBox="0 0 14 14" fill="none" xmlns="http://www.w3.org/2000/svg">
<path d="M6.99301 0.333984C3.31301 0.333984 0.333008 3.32065 0.333008 7.00065C0.333008 10.6807 3.31301 13.6673 6.99301 13.6673C10.6797 13.6673 13.6663 10.6807 13.6663 7.00065C13.6663 3.32065 10.6797 0.333984 6.99301 0.333984ZM11.613 4.33398H9.64634C9.43301 3.50065 9.12634 2.70065 8.72634 1.96065C9.95301 2.38065 10.973 3.23398 11.613 4.33398ZM6.99967 1.69398C7.55301 2.49398 7.98634 3.38065 8.27301 4.33398H5.72634C6.01301 3.38065 6.44634 2.49398 6.99967 1.69398ZM1.83967 8.33398C1.73301 7.90732 1.66634 7.46065 1.66634 7.00065C1.66634 6.54065 1.73301 6.09398 1.83967 5.66732H4.09301C4.03967 6.10732 3.99967 6.54732 3.99967 7.00065C3.99967 7.45398 4.03967 7.89398 4.09301 8.33398H1.83967ZM2.38634 9.66732H4.35301C4.56634 10.5007 4.87301 11.3007 5.27301 12.0407C4.04634 11.6207 3.02634 10.774 2.38634 9.66732ZM4.35301 4.33398H2.38634C3.02634 3.22732 4.04634 2.38065 5.27301 1.96065C4.87301 2.70065 4.56634 3.50065 4.35301 4.33398ZM6.99967 12.3073C6.44634 11.5073 6.01301 10.6207 5.72634 9.66732H8.27301C7.98634 10.6207 7.55301 11.5073 6.99967 12.3073ZM8.55968 8.33398H5.43967C5.37967 7.89398 5.33301 7.45398 5.33301 7.00065C5.33301 6.54732 5.37967 6.10065 5.43967 5.66732H8.55968C8.61967 6.10065 8.66634 6.54732 8.66634 7.00065C8.66634 7.45398 8.61967 7.89398 8.55968 8.33398ZM8.72634 12.0407C9.12634 11.3007 9.43301 10.5007 9.64634 9.66732H11.613C10.973 10.7673 9.95301 11.6207 8.72634 12.0407ZM9.90634 8.33398C9.95967 7.89398 9.99967 7.45398 9.99967 7.00065C9.99967 6.54732 9.95967 6.10732 9.90634 5.66732H12.1597C12.2663 6.09398 12.333 6.54065 12.333 7.00065C12.333 7.46065 12.2663 7.90732 12.1597 8.33398H9.90634Z" fill="white" fill-opacity="0.7"/>
</svg>
