<svg width="14" height="14" viewBox="0 0 14 14" fill="none" xmlns="http://www.w3.org/2000/svg">
<path d="M6.99301 0.335938C3.31301 0.335938 0.333008 3.3226 0.333008 7.0026C0.333008 10.6826 3.31301 13.6693 6.99301 13.6693C10.6797 13.6693 13.6663 10.6826 13.6663 7.0026C13.6663 3.3226 10.6797 0.335938 6.99301 0.335938ZM6.99967 12.3359C4.05301 12.3359 1.66634 9.94927 1.66634 7.0026C1.66634 4.05594 4.05301 1.66927 6.99967 1.66927C9.94634 1.66927 12.333 4.05594 12.333 7.0026C12.333 9.94927 9.94634 12.3359 6.99967 12.3359Z" fill="white" fill-opacity="0.7"/>
<path d="M7.33301 3.66927H6.33301V7.66927L9.83301 9.76927L10.333 8.94927L7.33301 7.16927V3.66927Z" fill="white" fill-opacity="0.7"/>
</svg>
