<svg width="14" height="16" viewBox="0 0 14 16" fill="none" xmlns="http://www.w3.org/2000/svg">
<path d="M1.82609 6.5H12.1739C12.9148 6.5 13.5 7.08756 13.5 7.79348V14.2065C13.5 14.9124 12.9148 15.5 12.1739 15.5H1.82609C1.08518 15.5 0.5 14.9124 0.5 14.2065V7.79348C0.5 7.08756 1.08518 6.5 1.82609 6.5Z" fill="url(#paint0_linear_12894_2309)" fill-opacity="0.8" stroke="url(#paint1_linear_12894_2309)"/>
<path d="M4 6V4C4 2.34315 5.34315 1 7 1V1C8.65685 1 10 2.34315 10 4V6" stroke="white" stroke-linecap="round"/>
<circle cx="7" cy="11" r="1" fill="#1C222F"/>
<defs>
<linearGradient id="paint0_linear_12894_2309" x1="7" y1="6" x2="7" y2="16" gradientUnits="userSpaceOnUse">
<stop stop-color="white"/>
<stop offset="1" stop-color="white" stop-opacity="0.5"/>
</linearGradient>
<linearGradient id="paint1_linear_12894_2309" x1="7" y1="6" x2="7" y2="16" gradientUnits="userSpaceOnUse">
<stop stop-color="white"/>
<stop offset="1" stop-color="white" stop-opacity="0"/>
</linearGradient>
</defs>
</svg>
