<svg width="20" height="20" viewBox="0 0 20 20" fill="none" xmlns="http://www.w3.org/2000/svg">
<path fill-rule="evenodd" clip-rule="evenodd" d="M5 4.5H15C15.8284 4.5 16.5 5.17157 16.5 6V14C16.5 14.8284 15.8284 15.5 15 15.5H5C4.17157 15.5 3.5 14.8284 3.5 14V6C3.5 5.17157 4.17157 4.5 5 4.5ZM2 6C2 4.34315 3.34315 3 5 3H15C16.6569 3 18 4.34315 18 6V14C18 15.6569 16.6569 17 15 17H5C3.34315 17 2 15.6569 2 14V6ZM10.0774 9.9977L6.25161 6.17188L4.92578 7.4977L7.42578 9.9977L4.92578 12.4977L6.25161 13.8235L10.0774 9.9977ZM10.314 11.5625H14.689V13.4375H10.314V11.5625Z" fill="#538BFF"/>
</svg>
