<svg width="288" height="476" viewBox="0 0 288 476" fill="none" xmlns="http://www.w3.org/2000/svg">
<rect width="288" height="476" fill="#1E2533"/>
<rect x="172" y="277" width="56" height="216" rx="28" transform="rotate(-180 172 277)" fill="url(#paint0_linear_12842_188993)" fill-opacity="0.2"/>
<rect x="171.5" y="276.5" width="55" height="215" rx="27.5" transform="rotate(-180 171.5 276.5)" stroke="url(#paint1_linear_12842_188993)" stroke-opacity="0.2"/>
<path d="M145.098 172.352C131.545 166.281 122.719 169.823 120 172.352V247.918C120 252.345 123.137 271 145.098 271C162.667 271 167.686 255.612 168 247.918V170.136C166.013 173.404 158.651 178.423 145.098 172.352Z" fill="url(#paint2_linear_12842_188993)"/>
<circle cx="151.5" cy="21" r="4" fill="url(#paint3_radial_12842_188993)" fill-opacity="0.5"/>
<circle cx="146" cy="147" r="4" fill="url(#paint4_radial_12842_188993)" fill-opacity="0.5"/>
<circle cx="145" cy="79" r="4" fill="url(#paint5_radial_12842_188993)" fill-opacity="0.5"/>
<circle cx="145" cy="109" r="4" fill="url(#paint6_radial_12842_188993)" fill-opacity="0.5"/>
<ellipse cx="155" cy="293" rx="4" ry="4" transform="rotate(90 155 293)" fill="url(#paint7_radial_12842_188993)"/>
<path d="M134 5C136.209 5 138 3.20914 138 1H130C130 3.20914 131.791 5 134 5Z" fill="url(#paint8_radial_12842_188993)" fill-opacity="0.5"/>
<ellipse cx="133" cy="297" rx="4" ry="4" transform="rotate(90 133 297)" fill="url(#paint9_radial_12842_188993)"/>
<circle cx="143" cy="41" r="4" fill="url(#paint10_radial_12842_188993)" fill-opacity="0.5"/>
<circle cx="145" cy="69" r="4" fill="url(#paint11_radial_12842_188993)" fill-opacity="0.5"/>
<ellipse cx="141" cy="330" rx="4" ry="4" transform="rotate(90 141 330)" fill="url(#paint12_radial_12842_188993)"/>
<path d="M88.9375 212.312C84.4375 212.312 81.2031 209.906 81.0625 206.312H83.9062C84.0625 208.469 86.2031 209.812 88.9062 209.812C91.8906 209.812 94.0469 208.203 94.0625 205.844C94.0469 203.375 92.0781 201.641 88.5625 201.625H86.7188V199.156H88.5625C91.3125 199.156 93.2344 197.609 93.2188 195.281C93.2344 193.016 91.5781 191.516 89 191.5C86.5781 191.516 84.375 192.844 84.25 195.062H81.5312C81.6719 191.469 85.0156 189.062 89.0312 189.062C93.3438 189.062 95.9688 191.891 95.9375 195.125C95.9688 197.703 94.4688 199.578 92.0938 200.25V200.406C95.0469 200.859 96.8281 202.969 96.8125 205.844C96.8281 209.562 93.4531 212.312 88.9375 212.312ZM122.906 186.781V207.344H120.438V196.656H113.875V202.594H101.281V188.625H103.719V193.562H111.469V188.625H113.875V194.594H120.438V186.781H122.906ZM103.719 200.562H111.469V195.5H103.719V200.562ZM104.938 213.938V205.312H107.406V211.875H123.531V213.938H104.938ZM150.438 186.75V214.594H147.969V186.75H150.438ZM128.562 198.594C128.578 192.688 131.516 188.922 135.656 188.906C139.781 188.922 142.766 192.688 142.75 198.594C142.766 204.516 139.781 208.266 135.656 208.25C131.516 208.266 128.578 204.516 128.562 198.594ZM130.938 198.594C130.938 203.109 132.875 206.078 135.656 206.062C138.453 206.078 140.375 203.109 140.375 198.594C140.375 194.078 138.453 191.109 135.656 191.094C132.875 191.109 130.938 194.078 130.938 198.594ZM169.656 189.5V207.562H156.812V189.5H169.656ZM159.219 205.562H167.25V191.469H159.219V205.562ZM175.625 214.594V186.75H178.094V214.594H175.625ZM192.781 195.281C192.797 200 196.219 204.797 200.312 206.562L198.938 208.5C195.688 207.031 192.891 203.828 191.594 199.984C190.297 204.062 187.484 207.594 184.312 209.188L182.844 207.25C186.828 205.344 190.297 200.094 190.312 195.281V191.656H183.75V189.625H199.406V191.656H192.781V195.281ZM203.281 214.531V186.75H205.75V214.531H203.281Z" fill="white"/>
<defs>
<linearGradient id="paint0_linear_12842_188993" x1="200" y1="277" x2="200" y2="493" gradientUnits="userSpaceOnUse">
<stop stop-color="white" stop-opacity="0.8"/>
<stop offset="0.489583" stop-color="white" stop-opacity="0"/>
<stop offset="1" stop-color="white" stop-opacity="0.8"/>
</linearGradient>
<linearGradient id="paint1_linear_12842_188993" x1="200" y1="277" x2="200" y2="493" gradientUnits="userSpaceOnUse">
<stop stop-color="white"/>
<stop offset="1" stop-color="white" stop-opacity="0"/>
</linearGradient>
<linearGradient id="paint2_linear_12842_188993" x1="144" y1="172.2" x2="144" y2="270.998" gradientUnits="userSpaceOnUse">
<stop stop-color="#EB4E87"/>
<stop offset="0.604167" stop-color="#9463FF"/>
<stop offset="1" stop-color="#125AED"/>
</linearGradient>
<radialGradient id="paint3_radial_12842_188993" cx="0" cy="0" r="1" gradientUnits="userSpaceOnUse" gradientTransform="translate(151.5 21) rotate(90) scale(4)">
<stop stop-color="white" stop-opacity="0.5"/>
<stop offset="1" stop-color="white" stop-opacity="0.8"/>
</radialGradient>
<radialGradient id="paint4_radial_12842_188993" cx="0" cy="0" r="1" gradientUnits="userSpaceOnUse" gradientTransform="translate(146 147) rotate(90) scale(4)">
<stop stop-color="white" stop-opacity="0.5"/>
<stop offset="1" stop-color="white" stop-opacity="0.8"/>
</radialGradient>
<radialGradient id="paint5_radial_12842_188993" cx="0" cy="0" r="1" gradientUnits="userSpaceOnUse" gradientTransform="translate(145 79) rotate(90) scale(4)">
<stop stop-color="white" stop-opacity="0.5"/>
<stop offset="1" stop-color="white" stop-opacity="0.8"/>
</radialGradient>
<radialGradient id="paint6_radial_12842_188993" cx="0" cy="0" r="1" gradientUnits="userSpaceOnUse" gradientTransform="translate(145 109) rotate(90) scale(4)">
<stop stop-color="white" stop-opacity="0.5"/>
<stop offset="1" stop-color="white" stop-opacity="0.8"/>
</radialGradient>
<radialGradient id="paint7_radial_12842_188993" cx="0" cy="0" r="1" gradientUnits="userSpaceOnUse" gradientTransform="translate(155 293) rotate(90) scale(4)">
<stop stop-color="#9882FF" stop-opacity="0.5"/>
<stop offset="1" stop-color="#9882FF"/>
</radialGradient>
<radialGradient id="paint8_radial_12842_188993" cx="0" cy="0" r="1" gradientUnits="userSpaceOnUse" gradientTransform="translate(134 1) rotate(90) scale(4)">
<stop stop-color="white" stop-opacity="0.5"/>
<stop offset="1" stop-color="white" stop-opacity="0.8"/>
</radialGradient>
<radialGradient id="paint9_radial_12842_188993" cx="0" cy="0" r="1" gradientUnits="userSpaceOnUse" gradientTransform="translate(133 297) rotate(90) scale(4)">
<stop stop-color="#FE327E" stop-opacity="0.5"/>
<stop offset="1" stop-color="#FE327E"/>
</radialGradient>
<radialGradient id="paint10_radial_12842_188993" cx="0" cy="0" r="1" gradientUnits="userSpaceOnUse" gradientTransform="translate(143 41) rotate(90) scale(4)">
<stop stop-color="white" stop-opacity="0.5"/>
<stop offset="1" stop-color="white" stop-opacity="0.8"/>
</radialGradient>
<radialGradient id="paint11_radial_12842_188993" cx="0" cy="0" r="1" gradientUnits="userSpaceOnUse" gradientTransform="translate(145 69) rotate(90) scale(4)">
<stop stop-color="white" stop-opacity="0.5"/>
<stop offset="1" stop-color="white" stop-opacity="0.8"/>
</radialGradient>
<radialGradient id="paint12_radial_12842_188993" cx="0" cy="0" r="1" gradientUnits="userSpaceOnUse" gradientTransform="translate(141 330) rotate(90) scale(4)">
<stop stop-color="#3591FF" stop-opacity="0.5"/>
<stop offset="1" stop-color="#3591FF"/>
</radialGradient>
</defs>
</svg>
