<svg width="20" height="20" viewBox="0 0 20 20" fill="none" xmlns="http://www.w3.org/2000/svg">
<mask id="path-1-inside-1_18557_16200" fill="white">
<path fill-rule="evenodd" clip-rule="evenodd" d="M5 16H10V18H5C3.34315 18 2 16.6569 2 15V5C2 3.34315 3.34315 2 5 2H10V4L5 4C4.44772 4 4 4.44772 4 5L4 15C4 15.5523 4.44772 16 5 16ZM14.5898 10.5L8 10.5V8.5L14.5897 8.5L11.7969 5.70718L13.2111 4.29297L18.4182 9.50008L13.2111 14.7072L11.7969 13.293L14.5898 10.5Z"/>
</mask>
<path fill-rule="evenodd" clip-rule="evenodd" d="M5 16H10V18H5C3.34315 18 2 16.6569 2 15V5C2 3.34315 3.34315 2 5 2H10V4L5 4C4.44772 4 4 4.44772 4 5L4 15C4 15.5523 4.44772 16 5 16ZM14.5898 10.5L8 10.5V8.5L14.5897 8.5L11.7969 5.70718L13.2111 4.29297L18.4182 9.50008L13.2111 14.7072L11.7969 13.293L14.5898 10.5Z" fill="url(#paint0_linear_18557_16200)" fill-opacity="0.8"/>
<path d="M10 16H11V15H10V16ZM5 16V15H5L5 16ZM10 18V19H11V18H10ZM10 2H11V1H10V2ZM10 4V5H11V4H10ZM5 4V5V4ZM4 5H3H4ZM4 15H5H4ZM8 10.5H7V11.5H8V10.5ZM14.5898 10.5L15.2969 11.2071L17.0041 9.5L14.5898 9.5V10.5ZM8 8.5V7.5H7V8.5H8ZM14.5897 8.5V9.5H17.0039L15.2968 7.79289L14.5897 8.5ZM11.7969 5.70718L11.0898 5.00008L10.3827 5.70718L11.0898 6.41429L11.7969 5.70718ZM13.2111 4.29297L13.9182 3.58586L13.2111 2.87876L12.504 3.58586L13.2111 4.29297ZM18.4182 9.50008L19.1253 10.2072L19.8324 9.50008L19.1253 8.79297L18.4182 9.50008ZM13.2111 14.7072L12.504 15.4143L13.2111 16.1214L13.9182 15.4143L13.2111 14.7072ZM11.7969 13.293L11.0898 12.5859L10.3827 13.293L11.0898 14.0001L11.7969 13.293ZM10 15H5V17H10V15ZM11 18V16H9V18H11ZM5 19H10V17H5V19ZM1 15C1 17.2091 2.79086 19 5 19V17C3.89543 17 3 16.1046 3 15H1ZM1 5V15H3V5H1ZM5 1C2.79086 1 1 2.79086 1 5H3C3 3.89543 3.89543 3 5 3V1ZM10 1H5V3H10V1ZM11 4V2H9V4H11ZM5 5L10 5V3L5 3V5ZM5 5V3C3.89543 3 3 3.89543 3 5H5ZM5 15L5 5H3L3 15H5ZM5 15L5 15H3C3 16.1046 3.89543 17 5 17L5 15ZM8 11.5L14.5898 11.5V9.5L8 9.5V11.5ZM7 8.5V10.5H9V8.5H7ZM14.5897 7.5L8 7.5V9.5L14.5897 9.5V7.5ZM15.2968 7.79289L12.504 5.00008L11.0898 6.41429L13.8826 9.20711L15.2968 7.79289ZM12.504 6.41429L13.9182 5.00008L12.504 3.58586L11.0898 5.00008L12.504 6.41429ZM12.504 5.00008L17.7111 10.2072L19.1253 8.79297L13.9182 3.58586L12.504 5.00008ZM17.7111 8.79297L12.504 14.0001L13.9182 15.4143L19.1253 10.2072L17.7111 8.79297ZM13.9182 14.0001L12.504 12.5859L11.0898 14.0001L12.504 15.4143L13.9182 14.0001ZM12.504 14.0001L15.2969 11.2071L13.8827 9.79289L11.0898 12.5859L12.504 14.0001Z" fill="url(#paint1_linear_18557_16200)" mask="url(#path-1-inside-1_18557_16200)"/>
<defs>
<linearGradient id="paint0_linear_18557_16200" x1="11.2093" y1="2" x2="11.2093" y2="18" gradientUnits="userSpaceOnUse">
<stop stop-color="white"/>
<stop offset="1" stop-color="white" stop-opacity="0.5"/>
</linearGradient>
<linearGradient id="paint1_linear_18557_16200" x1="11.2093" y1="2" x2="11.2093" y2="18" gradientUnits="userSpaceOnUse">
<stop stop-color="white"/>
<stop offset="1" stop-color="white" stop-opacity="0"/>
</linearGradient>
</defs>
</svg>
