<svg width="16" height="16" viewBox="0 0 16 16" fill="none" xmlns="http://www.w3.org/2000/svg">
<path d="M9.48 8.55935L10.4267 7.61268C10.88 8.07268 11.32 8.66602 11.62 9.57268L10.3267 9.89935C10.1133 9.30602 9.81333 8.89935 9.48 8.55935ZM8.66667 11.9993L11.3333 14.666L14 11.9993L11.9867 11.9993C11.9733 11.4593 11.9333 10.9727 11.86 10.5527L10.5667 10.8793C10.6133 11.1993 10.6467 11.5793 10.6533 11.9993L8.66667 11.9993ZM2 11.9993L4.66667 14.666L7.33333 11.9993L5.34 11.9993C5.40667 9.54602 6.19333 8.83268 7.03333 8.07935C7.36667 7.78602 7.70667 7.46602 8 7.04602C8.22667 7.37268 8.48667 7.63268 8.75333 7.87268L9.69333 6.93268C9.07333 6.36602 8.66667 5.90602 8.66667 4.66602L8.66666 1.33268L7.33333 1.33268L7.33333 4.66602C7.33333 6.01268 6.86 6.43935 6.14 7.08602C5.22 7.91268 4.08667 8.93935 4.00666 11.9993L2 11.9993Z" fill="white"/>
</svg>
