<svg width="16" height="16" viewBox="0 0 16 16" fill="none" xmlns="http://www.w3.org/2000/svg">
<path d="M0 2.66667C0 1.19391 1.19391 0 2.66667 0H13.3333C14.8061 0 16 1.19391 16 2.66667V13.3333C16 14.8061 14.8061 16 13.3333 16H2.66667C1.19391 16 0 14.8061 0 13.3333V2.66667Z" fill="#7B01A6"/>
<path fill-rule="evenodd" clip-rule="evenodd" d="M11 4.25H5C4.58579 4.25 4.25 4.58579 4.25 5V11C4.25 11.4142 4.58579 11.75 5 11.75H11C11.4142 11.75 11.75 11.4142 11.75 11V5C11.75 4.58579 11.4142 4.25 11 4.25ZM5 4C4.44772 4 4 4.44772 4 5V11C4 11.5523 4.44772 12 5 12H11C11.5523 12 12 11.5523 12 11V5C12 4.44772 11.5523 4 11 4H5Z" fill="url(#paint0_linear_11191_92357)"/>
<path fill-rule="evenodd" clip-rule="evenodd" d="M5 4C4.44772 4 4 4.44772 4 5V11C4 11.5523 4.44772 12 5 12H11C11.5523 12 12 11.5523 12 11V5C12 4.44772 11.5523 4 11 4H5ZM5.25 4.75C4.97386 4.75 4.75 4.97386 4.75 5.25C4.75 5.52614 4.97386 5.75 5.25 5.75H7.25C7.52614 5.75 7.75 5.52614 7.75 5.25C7.75 4.97386 7.52614 4.75 7.25 4.75H5.25Z" fill="url(#paint1_linear_11191_92357)" fill-opacity="0.8"/>
<defs>
<linearGradient id="paint0_linear_11191_92357" x1="8" y1="4" x2="8" y2="12" gradientUnits="userSpaceOnUse">
<stop stop-color="white"/>
<stop offset="1" stop-color="white" stop-opacity="0"/>
</linearGradient>
<linearGradient id="paint1_linear_11191_92357" x1="8" y1="4" x2="8" y2="12" gradientUnits="userSpaceOnUse">
<stop stop-color="white"/>
<stop offset="1" stop-color="white" stop-opacity="0.5"/>
</linearGradient>
</defs>
</svg>
