<svg width="16" height="16" viewBox="0 0 16 16" fill="none" xmlns="http://www.w3.org/2000/svg">
<path fill-rule="evenodd" clip-rule="evenodd" d="M8 15C11.866 15 15 11.866 15 8C15 4.13401 11.866 1 8 1C4.13401 1 1 4.13401 1 8C1 11.866 4.13401 15 8 15ZM6.91543 10.2624V10.1292C6.92178 8.62113 7.34672 8.16083 8.10782 7.70659C8.65328 7.36743 9.07822 6.99192 9.07188 6.43472C9.07822 5.82907 8.58351 5.4354 7.96829 5.42934C7.37844 5.4354 6.82664 5.8109 6.80127 6.51952H5C5.03171 4.81763 6.35729 4 7.98097 4C9.75053 4 11 4.8782 11 6.37416C11 7.37349 10.4609 8.00336 9.63002 8.48183C8.91332 8.88762 8.59619 9.28129 8.58985 10.1292V10.2624H6.91543ZM7.7907 13C7.1945 13 6.71247 12.5458 6.72516 11.9825C6.71247 11.4253 7.1945 10.9711 7.7907 10.9771C8.35518 10.9711 8.84355 11.4253 8.84355 11.9825C8.84355 12.5458 8.35518 13 7.7907 13Z" fill="white" fill-opacity="0.4"/>
</svg>
