<svg width="17" height="16" viewBox="0 0 17 16" fill="none" xmlns="http://www.w3.org/2000/svg">
<path d="M14.501 8.66797C14.501 5.35464 11.8143 2.66797 8.50098 2.66797L8.50098 0.667968L5.90764 3.2613L5.81431 3.30797L8.50098 6.0013L8.50098 4.0013C11.081 4.0013 13.1676 6.08797 13.1676 8.66797C13.1676 11.248 11.081 13.3346 8.50098 13.3346C5.92098 13.3346 3.83431 11.248 3.83431 8.66797C3.83431 7.3813 4.36098 6.21464 5.20764 5.37464L4.26098 4.42797C3.17431 5.51464 2.50098 7.00797 2.50098 8.66797C2.50098 11.9813 5.18764 14.668 8.50098 14.668C11.8143 14.668 14.501 11.9813 14.501 8.66797Z" fill="#538BFF"/>
</svg>
