<svg width="16" height="16" viewBox="0 0 16 16" fill="none" xmlns="http://www.w3.org/2000/svg">
<path d="M14 8.66797C14 5.35464 11.3133 2.66797 8 2.66797L8 0.667968L5.40667 3.2613L5.31333 3.30797L8 6.0013L8 4.0013C10.58 4.0013 12.6667 6.08797 12.6667 8.66797C12.6667 11.248 10.58 13.3346 8 13.3346C5.42 13.3346 3.33333 11.248 3.33333 8.66797C3.33333 7.3813 3.86 6.21464 4.70667 5.37464L3.76 4.42797C2.67333 5.51464 2 7.00797 2 8.66797C2 11.9813 4.68667 14.668 8 14.668C11.3133 14.668 14 11.9813 14 8.66797Z" fill="white" fill-opacity="0.7"/>
</svg>
