<svg width="20" height="20" viewBox="0 0 20 20" fill="none" xmlns="http://www.w3.org/2000/svg">
<mask id="path-1-inside-1_14482_5312" fill="white">
<path fill-rule="evenodd" clip-rule="evenodd" d="M9.28008 1.28387C9.68403 0.905377 10.316 0.905377 10.7199 1.28387C12.5526 3.00101 13.9665 3.77951 16.1217 4.15835C16.6202 4.24597 17 4.66766 17 5.17382V11.1631C17 15.2563 12.8383 17.751 10.4101 18.9069C10.1499 19.0307 9.85009 19.0307 9.58992 18.9069C7.16165 17.751 3 15.2563 3 11.1631V5.17382C3 4.66766 3.37977 4.24597 3.8783 4.15835C6.03352 3.77951 7.44744 3.00101 9.28008 1.28387ZM12 8C12 8.93192 11.3626 9.71497 10.5 9.93699V13.5C10.5 13.7761 10.2761 14 10 14C9.72386 14 9.5 13.7761 9.5 13.5V9.93699C8.63739 9.71497 8 8.93192 8 8C8 6.89543 8.89543 6 10 6C11.1046 6 12 6.89543 12 8Z"/>
</mask>
<path fill-rule="evenodd" clip-rule="evenodd" d="M9.28008 1.28387C9.68403 0.905377 10.316 0.905377 10.7199 1.28387C12.5526 3.00101 13.9665 3.77951 16.1217 4.15835C16.6202 4.24597 17 4.66766 17 5.17382V11.1631C17 15.2563 12.8383 17.751 10.4101 18.9069C10.1499 19.0307 9.85009 19.0307 9.58992 18.9069C7.16165 17.751 3 15.2563 3 11.1631V5.17382C3 4.66766 3.37977 4.24597 3.8783 4.15835C6.03352 3.77951 7.44744 3.00101 9.28008 1.28387ZM12 8C12 8.93192 11.3626 9.71497 10.5 9.93699V13.5C10.5 13.7761 10.2761 14 10 14C9.72386 14 9.5 13.7761 9.5 13.5V9.93699C8.63739 9.71497 8 8.93192 8 8C8 6.89543 8.89543 6 10 6C11.1046 6 12 6.89543 12 8Z" fill="url(#paint0_linear_14482_5312)" fill-opacity="0.8"/>
<path d="M10.7199 1.28387L11.4037 0.55414V0.55414L10.7199 1.28387ZM9.28008 1.28387L8.59634 0.55414L8.59634 0.55414L9.28008 1.28387ZM16.1217 4.15835L15.9486 5.14325L16.1217 4.15835ZM10.4101 18.9069L10.8399 19.8098L10.8399 19.8098L10.4101 18.9069ZM9.58992 18.9069L9.1601 19.8098L9.16011 19.8098L9.58992 18.9069ZM3.8783 4.15835L3.70517 3.17345H3.70517L3.8783 4.15835ZM10.5 9.93699L10.2507 8.96855L9.5 9.16178V9.93699H10.5ZM9.5 9.93699H10.5V9.16178L9.74926 8.96855L9.5 9.93699ZM11.4037 0.55414C10.6151 -0.184713 9.38489 -0.184713 8.59634 0.55414L9.96382 2.0136C9.9727 2.00527 9.98415 2 10 2C10.0159 2 10.0273 2.00527 10.0362 2.0136L11.4037 0.55414ZM16.2948 3.17345C14.3682 2.8348 13.1249 2.16689 11.4037 0.55414L10.0362 2.0136C11.9802 3.83512 13.5647 4.72422 15.9486 5.14325L16.2948 3.17345ZM18 5.17382C18 4.14665 17.2357 3.33882 16.2948 3.17345L15.9486 5.14325C15.9708 5.14716 15.9868 5.15798 15.9954 5.1678C15.9973 5.17 15.9985 5.17182 15.9993 5.17306C16.0001 5.17429 16.0003 5.17495 16.0003 5.17498C16.0003 5.175 16.0003 5.17491 16.0002 5.17472C16.0002 5.17453 16.0001 5.17429 16.0001 5.17403C16 5.1734 16 5.17323 16 5.17382H18ZM18 11.1631V5.17382H16V11.1631H18ZM10.8399 19.8098C12.0932 19.2132 13.8498 18.2466 15.3053 16.8607C16.7649 15.4707 18 13.5796 18 11.1631H16C16 12.8398 15.1543 14.2427 13.926 15.4123C12.6936 16.5859 11.1552 17.4447 9.98027 18.004L10.8399 19.8098ZM9.16011 19.8098C9.6922 20.0631 10.3078 20.0631 10.8399 19.8098L9.98027 18.004C9.98531 18.0016 9.99224 17.9998 10 17.9998C10.0078 17.9998 10.0147 18.0016 10.0197 18.004L9.16011 19.8098ZM2 11.1631C2 13.5796 3.2351 15.4707 4.69475 16.8607C6.1502 18.2466 7.9068 19.2132 9.1601 19.8098L10.0197 18.004C8.84477 17.4447 7.30641 16.5859 6.07397 15.4123C4.84572 14.2427 4 12.8398 4 11.1631H2ZM2 5.17382V11.1631H4V5.17382H2ZM3.70517 3.17345C2.76433 3.33882 2 4.14665 2 5.17382H4C4 5.17323 4.00004 5.1734 3.99992 5.17403C3.99987 5.17429 3.99982 5.17453 3.99976 5.17472C3.99971 5.17491 3.99967 5.175 3.99968 5.17498C3.99969 5.17495 3.99995 5.17429 4.00069 5.17306C4.00145 5.17182 4.00271 5.17 4.00463 5.1678C4.01323 5.15798 4.02917 5.14716 4.05142 5.14325L3.70517 3.17345ZM8.59634 0.55414C6.87511 2.16689 5.63176 2.8348 3.70517 3.17345L4.05142 5.14325C6.43529 4.72422 8.01977 3.83512 9.96382 2.0136L8.59634 0.55414ZM10.7493 10.9054C12.043 10.5725 13 9.39925 13 8H11C11 8.46459 10.6823 8.85749 10.2507 8.96855L10.7493 10.9054ZM11.5 13.5V9.93699H9.5V13.5H11.5ZM10 15C10.8284 15 11.5 14.3284 11.5 13.5H9.5C9.5 13.2239 9.72386 13 10 13V15ZM8.5 13.5C8.5 14.3284 9.17157 15 10 15V13C10.2761 13 10.5 13.2239 10.5 13.5H8.5ZM8.5 9.93699V13.5H10.5V9.93699H8.5ZM7 8C7 9.39925 7.95704 10.5725 9.25074 10.9054L9.74926 8.96855C9.31774 8.85749 9 8.46459 9 8H7ZM10 5C8.34315 5 7 6.34315 7 8H9C9 7.44772 9.44772 7 10 7V5ZM13 8C13 6.34315 11.6569 5 10 5V7C10.5523 7 11 7.44772 11 8H13Z" fill="url(#paint1_linear_14482_5312)" mask="url(#path-1-inside-1_14482_5312)"/>
<defs>
<linearGradient id="paint0_linear_14482_5312" x1="10" y1="1" x2="10" y2="19" gradientUnits="userSpaceOnUse">
<stop stop-color="white"/>
<stop offset="1" stop-color="white" stop-opacity="0.5"/>
</linearGradient>
<linearGradient id="paint1_linear_14482_5312" x1="10" y1="1" x2="10" y2="19" gradientUnits="userSpaceOnUse">
<stop stop-color="white"/>
<stop offset="1" stop-color="white" stop-opacity="0"/>
</linearGradient>
</defs>
</svg>
