<svg width="16" height="16" viewBox="0 0 16 16" fill="none" xmlns="http://www.w3.org/2000/svg">
<path d="M12.9532 8.65203C12.9799 8.4387 12.9999 8.22536 12.9999 7.9987C12.9999 7.77203 12.9799 7.5587 12.9532 7.34537L14.3599 6.24536C14.4866 6.14536 14.5199 5.96536 14.4399 5.8187L13.1066 3.51203C13.0466 3.40536 12.9332 3.34536 12.8132 3.34536C12.7732 3.34536 12.7332 3.35203 12.6999 3.36536L11.0399 4.03203C10.6932 3.76536 10.3199 3.54536 9.91323 3.3787L9.65989 1.61203C9.63989 1.45203 9.49989 1.33203 9.33323 1.33203H6.66656C6.49989 1.33203 6.35989 1.45203 6.33989 1.61203L6.08656 3.3787C5.67989 3.54536 5.30656 3.77203 4.95989 4.03203L3.29989 3.36536C3.25989 3.35203 3.21989 3.34536 3.17989 3.34536C3.06656 3.34536 2.95323 3.40536 2.89323 3.51203L1.55989 5.8187C1.47323 5.96536 1.51323 6.14536 1.63989 6.24536L3.04656 7.34537C3.01989 7.5587 2.99989 7.7787 2.99989 7.9987C2.99989 8.2187 3.01989 8.4387 3.04656 8.65203L1.63989 9.75203C1.51323 9.85203 1.47989 10.032 1.55989 10.1787L2.89323 12.4854C2.95323 12.592 3.06656 12.652 3.18656 12.652C3.22656 12.652 3.26656 12.6454 3.29989 12.632L4.95989 11.9654C5.30656 12.232 5.67989 12.452 6.08656 12.6187L6.33989 14.3854C6.35989 14.5454 6.49989 14.6654 6.66656 14.6654H9.33323C9.49989 14.6654 9.63989 14.5454 9.65989 14.3854L9.91323 12.6187C10.3199 12.452 10.6932 12.2254 11.0399 11.9654L12.6999 12.632C12.7399 12.6454 12.7799 12.652 12.8199 12.652C12.9332 12.652 13.0466 12.592 13.1066 12.4854L14.4399 10.1787C14.5199 10.032 14.4866 9.85203 14.3599 9.75203L12.9532 8.65203V8.65203ZM11.6332 7.51203C11.6599 7.7187 11.6666 7.8587 11.6666 7.9987C11.6666 8.1387 11.6532 8.28536 11.6332 8.48536L11.5399 9.2387L12.1332 9.70537L12.8532 10.2654L12.3866 11.072L11.5399 10.732L10.8466 10.452L10.2466 10.9054C9.95989 11.1187 9.68656 11.2787 9.41323 11.392L8.70656 11.6787L8.59989 12.432L8.46656 13.332H7.53323L7.40656 12.432L7.29989 11.6787L6.59323 11.392C6.30656 11.272 6.03989 11.1187 5.77323 10.9187L5.16656 10.452L4.45989 10.7387L3.61323 11.0787L3.14656 10.272L3.86656 9.71203L4.45989 9.24536L4.36656 8.49203C4.34656 8.28536 4.33323 8.13203 4.33323 7.9987C4.33323 7.86536 4.34656 7.71203 4.36656 7.51203L4.45989 6.7587L3.86656 6.29203L3.14656 5.73203L3.61323 4.92536L4.45989 5.26536L5.15323 5.54536L5.75323 5.09203C6.03989 4.8787 6.31323 4.7187 6.58656 4.60536L7.29323 4.3187L7.39989 3.56536L7.53323 2.66536H8.45989L8.58656 3.56536L8.69323 4.3187L9.39989 4.60536C9.68656 4.72536 9.95323 4.8787 10.2199 5.0787L10.8266 5.54536L11.5332 5.2587L12.3799 4.9187L12.8466 5.72536L12.1332 6.29203L11.5399 6.7587L11.6332 7.51203ZM7.99989 5.33203C6.52656 5.33203 5.33323 6.52536 5.33323 7.9987C5.33323 9.47203 6.52656 10.6654 7.99989 10.6654C9.47323 10.6654 10.6666 9.47203 10.6666 7.9987C10.6666 6.52536 9.47323 5.33203 7.99989 5.33203ZM7.99989 9.33203C7.26656 9.33203 6.66656 8.73203 6.66656 7.9987C6.66656 7.26536 7.26656 6.66536 7.99989 6.66536C8.73323 6.66536 9.33323 7.26536 9.33323 7.9987C9.33323 8.73203 8.73323 9.33203 7.99989 9.33203Z" fill="white" fill-opacity="0.7"/>
</svg>
