<svg width="16" height="16" viewBox="0 0 16 16" fill="none" xmlns="http://www.w3.org/2000/svg">
<path d="M12.9533 8.65203C12.98 8.4387 13 8.22536 13 7.9987C13 7.77203 12.98 7.5587 12.9533 7.34537L14.36 6.24536C14.4867 6.14536 14.52 5.96536 14.44 5.8187L13.1067 3.51203C13.0467 3.40536 12.9333 3.34536 12.8133 3.34536C12.7733 3.34536 12.7333 3.35203 12.7 3.36536L11.04 4.03203C10.6933 3.76536 10.32 3.54536 9.91335 3.3787L9.66002 1.61203C9.64002 1.45203 9.50002 1.33203 9.33335 1.33203H6.66668C6.50002 1.33203 6.36002 1.45203 6.34002 1.61203L6.08668 3.3787C5.68002 3.54536 5.30668 3.77203 4.96002 4.03203L3.30002 3.36536C3.26002 3.35203 3.22002 3.34536 3.18002 3.34536C3.06668 3.34536 2.95335 3.40536 2.89335 3.51203L1.56001 5.8187C1.47335 5.96536 1.51335 6.14536 1.64002 6.24536L3.04668 7.34537C3.02002 7.5587 3.00002 7.7787 3.00002 7.9987C3.00002 8.2187 3.02002 8.4387 3.04668 8.65203L1.64002 9.75203C1.51335 9.85203 1.48001 10.032 1.56001 10.1787L2.89335 12.4854C2.95335 12.592 3.06668 12.652 3.18668 12.652C3.22668 12.652 3.26668 12.6454 3.30002 12.632L4.96002 11.9654C5.30668 12.232 5.68002 12.452 6.08668 12.6187L6.34002 14.3854C6.36002 14.5454 6.50002 14.6654 6.66668 14.6654H9.33335C9.50002 14.6654 9.64002 14.5454 9.66002 14.3854L9.91335 12.6187C10.32 12.452 10.6933 12.2254 11.04 11.9654L12.7 12.632C12.74 12.6454 12.78 12.652 12.82 12.652C12.9333 12.652 13.0467 12.592 13.1067 12.4854L14.44 10.1787C14.52 10.032 14.4867 9.85203 14.36 9.75203L12.9533 8.65203V8.65203ZM11.6333 7.51203C11.66 7.7187 11.6667 7.8587 11.6667 7.9987C11.6667 8.1387 11.6533 8.28536 11.6333 8.48536L11.54 9.2387L12.1333 9.70537L12.8533 10.2654L12.3867 11.072L11.54 10.732L10.8467 10.452L10.2467 10.9054C9.96002 11.1187 9.68668 11.2787 9.41335 11.392L8.70668 11.6787L8.60002 12.432L8.46668 13.332H7.53335L7.40668 12.432L7.30002 11.6787L6.59335 11.392C6.30668 11.272 6.04001 11.1187 5.77335 10.9187L5.16668 10.452L4.46002 10.7387L3.61335 11.0787L3.14668 10.272L3.86668 9.71203L4.46002 9.24536L4.36668 8.49203C4.34668 8.28536 4.33335 8.13203 4.33335 7.9987C4.33335 7.86536 4.34668 7.71203 4.36668 7.51203L4.46002 6.7587L3.86668 6.29203L3.14668 5.73203L3.61335 4.92536L4.46002 5.26536L5.15335 5.54536L5.75335 5.09203C6.04002 4.8787 6.31335 4.7187 6.58668 4.60536L7.29335 4.3187L7.40002 3.56536L7.53335 2.66536H8.46002L8.58668 3.56536L8.69335 4.3187L9.40002 4.60536C9.68668 4.72536 9.95335 4.8787 10.22 5.0787L10.8267 5.54536L11.5333 5.2587L12.38 4.9187L12.8467 5.72536L12.1333 6.29203L11.54 6.7587L11.6333 7.51203ZM8.00002 5.33203C6.52668 5.33203 5.33335 6.52536 5.33335 7.9987C5.33335 9.47203 6.52668 10.6654 8.00002 10.6654C9.47335 10.6654 10.6667 9.47203 10.6667 7.9987C10.6667 6.52536 9.47335 5.33203 8.00002 5.33203ZM8.00002 9.33203C7.26668 9.33203 6.66668 8.73203 6.66668 7.9987C6.66668 7.26536 7.26668 6.66536 8.00002 6.66536C8.73335 6.66536 9.33335 7.26536 9.33335 7.9987C9.33335 8.73203 8.73335 9.33203 8.00002 9.33203Z" fill="#538BFF"/>
</svg>
