<svg width="91" height="23" viewBox="0 0 91 23" fill="none" xmlns="http://www.w3.org/2000/svg">
<path d="M11.4998 23C17.851 23 22.9997 17.8513 22.9997 11.5C22.9997 5.14873 17.851 0 11.4998 0C5.14865 0 0 5.14873 0 11.5C0 17.8513 5.14865 23 11.4998 23Z" fill="#125AED"/>
<path d="M11.4998 23C17.851 23 22.9997 17.8513 22.9997 11.5C22.9997 5.14873 17.851 0 11.4998 0C5.14865 0 0 5.14873 0 11.5C0 17.8513 5.14865 23 11.4998 23Z" fill="white" fill-opacity="0.05"/>
<path d="M11.5085 2.17773C6.36501 2.17773 2.19922 6.34726 2.19922 11.4867C2.19922 16.6262 6.36888 20.7957 11.5085 20.7957C16.6481 20.7957 20.8178 16.6262 20.8178 11.4867C20.8178 6.34726 16.652 2.17773 11.5085 2.17773ZM15.7709 10.3236L12.6717 7.22444L13.7923 6.10381C14.6464 5.24981 16.0337 5.24981 16.8916 6.10381C17.7456 6.95781 17.7456 8.34507 16.8916 9.20294L15.7709 10.3236ZM16.8916 13.7666C17.7456 14.6206 17.7456 16.0079 16.8916 16.8657C16.0375 17.7197 14.6502 17.7197 13.7923 16.8657L12.6717 15.7451L15.7709 12.646L16.8916 13.7666ZM11.5085 14.582L9.96274 13.0363H11.5085L8.41699 11.4906L8.40927 11.4828L11.5085 8.38372L13.0581 9.93328H11.5085L14.6039 11.4828L11.5046 14.582H11.5085ZM6.12542 16.8696C5.27139 16.0156 5.27139 14.6283 6.12542 13.7705L7.24995 12.646L10.3492 15.7451L9.22465 16.8696C8.37062 17.7236 6.98331 17.7236 6.12542 16.8696ZM6.12542 9.19907C5.27139 8.34507 5.27139 6.95781 6.12542 6.09995C6.97945 5.24595 8.36676 5.24595 9.22465 6.09995L10.3492 7.22444L7.24995 10.3236L6.12542 9.19907ZM13.773 4.16009C13.3595 4.34558 12.9731 4.60448 12.633 4.94454L11.5124 6.06517L10.3917 4.94454C10.0516 4.60448 9.66519 4.34558 9.2517 4.16009C9.96661 3.93983 10.724 3.82004 11.5124 3.82004C12.3007 3.82004 13.0581 3.93983 13.7769 4.16009H13.773ZM4.18551 9.21839C4.371 9.63187 4.62991 10.0222 4.96997 10.3622L6.09064 11.4828L4.96997 12.6035C4.62991 12.9435 4.371 13.3338 4.18551 13.7512C3.96524 13.0363 3.84544 12.275 3.84544 11.4867C3.84544 10.6984 3.96524 9.93714 4.18551 9.21839ZM9.24783 18.8133C9.66132 18.6278 10.0516 18.3689 10.3956 18.0289L11.5162 16.9082L12.6369 18.0289C12.977 18.3689 13.3673 18.6278 13.7807 18.8133C13.0658 19.0336 12.3046 19.1534 11.5124 19.1534C10.7202 19.1534 9.96274 19.0336 9.24783 18.8133ZM18.8431 13.7473C18.6576 13.3338 18.3987 12.9474 18.0586 12.6073L16.9379 11.4867L18.0586 10.3661C18.3987 10.026 18.6576 9.6396 18.8431 9.22612C19.0633 9.94101 19.1831 10.7023 19.1831 11.4906C19.1831 12.2789 19.0633 13.0363 18.8431 13.7512V13.7473Z" fill="white"/>
<path d="M31.319 16.0373C31.7402 16.0373 32.0842 16.0026 32.3585 15.933C32.6329 15.8635 32.8493 15.7707 33.0194 15.6432C33.1894 15.5234 33.3015 15.3766 33.3633 15.2143C33.4251 15.0442 33.4599 14.8626 33.4599 14.6578C33.4599 14.2211 33.2551 13.8618 32.8493 13.5797C32.4397 13.2899 31.7441 12.9807 30.7471 12.6484C30.3104 12.4938 29.8815 12.3161 29.4448 12.119C29.0081 11.9219 28.6217 11.6746 28.2778 11.3732C27.9338 11.0718 27.6517 10.7085 27.4392 10.2796C27.2228 9.85068 27.1146 9.33287 27.1146 8.72232C27.1146 8.11177 27.2267 7.55918 27.4585 7.06456C27.6904 6.56994 28.015 6.15646 28.4285 5.80868C28.8497 5.46476 29.3559 5.20199 29.9549 5.01264C30.5539 4.83102 31.2263 4.73828 31.9798 4.73828C32.8725 4.73828 33.6377 4.83875 34.2869 5.0281C34.9322 5.21745 35.4694 5.42998 35.8906 5.66184L35.0327 8.01516C34.6656 7.82582 34.2521 7.65579 33.8038 7.50895C33.3556 7.36211 32.8068 7.28869 32.1731 7.28869C31.462 7.28869 30.948 7.38916 30.635 7.58623C30.3259 7.78331 30.1636 8.08858 30.1636 8.49433C30.1636 8.73391 30.2215 8.93872 30.3336 9.10875C30.4457 9.27877 30.608 9.42562 30.8205 9.56086C31.0331 9.69611 31.2688 9.8159 31.5432 9.92797C31.8175 10.0323 32.119 10.1482 32.4513 10.2603C33.1391 10.5153 33.7381 10.7665 34.2444 11.0138C34.7506 11.2611 35.1795 11.5587 35.5157 11.8871C35.8519 12.2195 36.107 12.6059 36.2693 13.058C36.4316 13.5024 36.5166 14.0434 36.5166 14.6887C36.5166 15.9214 36.0799 16.8875 35.2143 17.5676C34.3487 18.2516 33.0425 18.5916 31.3036 18.5916C30.72 18.5916 30.1945 18.5568 29.723 18.4873C29.2516 18.4177 28.8381 18.3327 28.471 18.2245C28.1039 18.124 27.7947 18.012 27.5358 17.8999C27.2769 17.7879 27.0566 17.6758 26.875 17.5753L27.7136 15.1988C28.1077 15.4191 28.5908 15.6084 29.1743 15.7823C29.7501 15.9523 30.4611 16.0451 31.3036 16.0451H31.319V16.0373Z" fill="#125AED"/>
<path d="M31.319 16.0373C31.7402 16.0373 32.0842 16.0026 32.3585 15.933C32.6329 15.8635 32.8493 15.7707 33.0194 15.6432C33.1894 15.5234 33.3015 15.3766 33.3633 15.2143C33.4251 15.0442 33.4599 14.8626 33.4599 14.6578C33.4599 14.2211 33.2551 13.8618 32.8493 13.5797C32.4397 13.2899 31.7441 12.9807 30.7471 12.6484C30.3104 12.4938 29.8815 12.3161 29.4448 12.119C29.0081 11.9219 28.6217 11.6746 28.2778 11.3732C27.9338 11.0718 27.6517 10.7085 27.4392 10.2796C27.2228 9.85068 27.1146 9.33287 27.1146 8.72232C27.1146 8.11177 27.2267 7.55918 27.4585 7.06456C27.6904 6.56994 28.015 6.15646 28.4285 5.80868C28.8497 5.46476 29.3559 5.20199 29.9549 5.01264C30.5539 4.83102 31.2263 4.73828 31.9798 4.73828C32.8725 4.73828 33.6377 4.83875 34.2869 5.0281C34.9322 5.21745 35.4694 5.42998 35.8906 5.66184L35.0327 8.01516C34.6656 7.82582 34.2521 7.65579 33.8038 7.50895C33.3556 7.36211 32.8068 7.28869 32.1731 7.28869C31.462 7.28869 30.948 7.38916 30.635 7.58623C30.3259 7.78331 30.1636 8.08858 30.1636 8.49433C30.1636 8.73391 30.2215 8.93872 30.3336 9.10875C30.4457 9.27877 30.608 9.42562 30.8205 9.56086C31.0331 9.69611 31.2688 9.8159 31.5432 9.92797C31.8175 10.0323 32.119 10.1482 32.4513 10.2603C33.1391 10.5153 33.7381 10.7665 34.2444 11.0138C34.7506 11.2611 35.1795 11.5587 35.5157 11.8871C35.8519 12.2195 36.107 12.6059 36.2693 13.058C36.4316 13.5024 36.5166 14.0434 36.5166 14.6887C36.5166 15.9214 36.0799 16.8875 35.2143 17.5676C34.3487 18.2516 33.0425 18.5916 31.3036 18.5916C30.72 18.5916 30.1945 18.5568 29.723 18.4873C29.2516 18.4177 28.8381 18.3327 28.471 18.2245C28.1039 18.124 27.7947 18.012 27.5358 17.8999C27.2769 17.7879 27.0566 17.6758 26.875 17.5753L27.7136 15.1988C28.1077 15.4191 28.5908 15.6084 29.1743 15.7823C29.7501 15.9523 30.4611 16.0451 31.3036 16.0451H31.319V16.0373Z" fill="white" fill-opacity="0.05"/>
<path d="M41.9419 11.8579C42.224 11.5565 42.5099 11.2358 42.8075 10.9073C43.1012 10.575 43.3987 10.2504 43.6731 9.92578C43.9552 9.60118 44.2141 9.29977 44.4692 9.00223C44.7165 8.71241 44.9329 8.45737 45.1107 8.24097H48.492C47.8157 9.01768 47.1549 9.75575 46.5173 10.4706C45.8758 11.1739 45.1725 11.9081 44.4073 12.6578C44.7861 13.0017 45.1802 13.4113 45.5898 13.8905C45.9995 14.3697 46.3898 14.8643 46.7723 15.3782C47.151 15.8922 47.5027 16.4023 47.8196 16.9085C48.1365 17.4224 48.4031 17.89 48.6195 18.3112H45.3502C45.1454 17.9789 44.9136 17.6118 44.6547 17.2099C44.3957 16.808 44.1214 16.4061 43.8238 16.0042C43.5301 15.6024 43.2248 15.2159 42.9041 14.8411C42.5795 14.4663 42.2588 14.1571 41.9419 13.9021V18.3151H39.1016V3.91688L41.9419 3.45703V11.854H41.9496L41.9419 11.8579Z" fill="#125AED"/>
<path d="M41.9419 11.8579C42.224 11.5565 42.5099 11.2358 42.8075 10.9073C43.1012 10.575 43.3987 10.2504 43.6731 9.92578C43.9552 9.60118 44.2141 9.29977 44.4692 9.00223C44.7165 8.71241 44.9329 8.45737 45.1107 8.24097H48.492C47.8157 9.01768 47.1549 9.75575 46.5173 10.4706C45.8758 11.1739 45.1725 11.9081 44.4073 12.6578C44.7861 13.0017 45.1802 13.4113 45.5898 13.8905C45.9995 14.3697 46.3898 14.8643 46.7723 15.3782C47.151 15.8922 47.5027 16.4023 47.8196 16.9085C48.1365 17.4224 48.4031 17.89 48.6195 18.3112H45.3502C45.1454 17.9789 44.9136 17.6118 44.6547 17.2099C44.3957 16.808 44.1214 16.4061 43.8238 16.0042C43.5301 15.6024 43.2248 15.2159 42.9041 14.8411C42.5795 14.4663 42.2588 14.1571 41.9419 13.9021V18.3151H39.1016V3.91688L41.9419 3.45703V11.854H41.9496L41.9419 11.8579Z" fill="white" fill-opacity="0.05"/>
<path d="M58.5077 17.9646C58.0208 18.1037 57.4025 18.2313 56.6373 18.3588C55.8722 18.4786 55.0684 18.5404 54.2337 18.5404C53.399 18.5404 52.6725 18.4283 52.1044 18.1965C51.5363 17.9646 51.0919 17.6478 50.7596 17.2304C50.4273 16.8131 50.1915 16.3223 50.0563 15.7504C49.9172 15.1785 49.8438 14.5448 49.8438 13.8531V8.24605H52.6841V13.5053C52.6841 14.4211 52.8039 15.0858 53.0512 15.4954C53.2908 15.905 53.7468 16.1098 54.4076 16.1098C54.6124 16.1098 54.8288 16.1021 55.0529 16.0827C55.2848 16.0634 55.4819 16.0402 55.6635 16.0132V8.24219H58.5038V17.9646H58.5077Z" fill="#125AED"/>
<path d="M58.5077 17.9646C58.0208 18.1037 57.4025 18.2313 56.6373 18.3588C55.8722 18.4786 55.0684 18.5404 54.2337 18.5404C53.399 18.5404 52.6725 18.4283 52.1044 18.1965C51.5363 17.9646 51.0919 17.6478 50.7596 17.2304C50.4273 16.8131 50.1915 16.3223 50.0563 15.7504C49.9172 15.1785 49.8438 14.5448 49.8438 13.8531V8.24605H52.6841V13.5053C52.6841 14.4211 52.8039 15.0858 53.0512 15.4954C53.2908 15.905 53.7468 16.1098 54.4076 16.1098C54.6124 16.1098 54.8288 16.1021 55.0529 16.0827C55.2848 16.0634 55.4819 16.0402 55.6635 16.0132V8.24219H58.5038V17.9646H58.5077Z" fill="white" fill-opacity="0.05"/>
<path d="M70.5474 13.2722C70.5474 14.076 70.4276 14.8025 70.1958 15.4517C69.9639 16.1009 69.62 16.6573 69.1756 17.1172C68.7312 17.577 68.1824 17.9286 67.5371 18.1837C66.8917 18.431 66.1536 18.5585 65.3228 18.5585C64.9789 18.5585 64.6195 18.5431 64.2485 18.5083C63.8775 18.4735 63.5027 18.4387 63.1433 18.3808C62.7762 18.3305 62.4322 18.2687 62.1038 18.1991C61.7714 18.1296 61.4777 18.06 61.2266 17.9789V3.91688L64.0669 3.45703V8.46896C64.3837 8.32985 64.7122 8.22165 65.06 8.14437C65.4078 8.06708 65.7711 8.0323 66.1652 8.0323C66.8763 8.0323 67.51 8.15982 68.0549 8.40713C68.6036 8.65445 69.0596 9.01382 69.4268 9.47367C69.7939 9.93351 70.0721 10.4822 70.2653 11.1314C70.4547 11.7729 70.5552 12.4916 70.5552 13.2838V13.2761L70.5474 13.2722ZM67.6453 13.1949C67.6453 11.3556 66.969 10.4359 65.6204 10.4359C65.3267 10.4359 65.0368 10.4706 64.747 10.5479C64.4572 10.6252 64.2253 10.718 64.0514 10.8377V16.0274C64.1905 16.0545 64.3683 16.0777 64.5847 16.0893C64.8011 16.1086 65.033 16.1163 65.288 16.1163C66.0609 16.1163 66.6521 15.8497 67.0463 15.3125C67.4405 14.7754 67.6376 14.0721 67.6376 13.1911H67.6453V13.1949Z" fill="#125AED"/>
<path d="M70.5474 13.2722C70.5474 14.076 70.4276 14.8025 70.1958 15.4517C69.9639 16.1009 69.62 16.6573 69.1756 17.1172C68.7312 17.577 68.1824 17.9286 67.5371 18.1837C66.8917 18.431 66.1536 18.5585 65.3228 18.5585C64.9789 18.5585 64.6195 18.5431 64.2485 18.5083C63.8775 18.4735 63.5027 18.4387 63.1433 18.3808C62.7762 18.3305 62.4322 18.2687 62.1038 18.1991C61.7714 18.1296 61.4777 18.06 61.2266 17.9789V3.91688L64.0669 3.45703V8.46896C64.3837 8.32985 64.7122 8.22165 65.06 8.14437C65.4078 8.06708 65.7711 8.0323 66.1652 8.0323C66.8763 8.0323 67.51 8.15982 68.0549 8.40713C68.6036 8.65445 69.0596 9.01382 69.4268 9.47367C69.7939 9.93351 70.0721 10.4822 70.2653 11.1314C70.4547 11.7729 70.5552 12.4916 70.5552 13.2838V13.2761L70.5474 13.2722ZM67.6453 13.1949C67.6453 11.3556 66.969 10.4359 65.6204 10.4359C65.3267 10.4359 65.0368 10.4706 64.747 10.5479C64.4572 10.6252 64.2253 10.718 64.0514 10.8377V16.0274C64.1905 16.0545 64.3683 16.0777 64.5847 16.0893C64.8011 16.1086 65.033 16.1163 65.288 16.1163C66.0609 16.1163 66.6521 15.8497 67.0463 15.3125C67.4405 14.7754 67.6376 14.0721 67.6376 13.1911H67.6453V13.1949Z" fill="white" fill-opacity="0.05"/>
<path d="M72.2421 13.3594C72.2421 12.4629 72.3773 11.6823 72.6517 11.01C72.9261 10.3414 73.2854 9.78112 73.726 9.33287C74.1704 8.88848 74.6805 8.54843 75.264 8.31657C75.8398 8.08472 76.4388 7.97266 77.0493 7.97266C78.4753 7.97266 79.5998 8.40932 80.4229 9.28264C81.2538 10.156 81.6595 11.4389 81.6595 13.1392C81.6595 13.3092 81.6595 13.4831 81.6402 13.684C81.6248 13.8811 81.6132 14.0588 81.6054 14.2134H75.1519C75.2138 14.7969 75.4881 15.2645 75.975 15.6084C76.462 15.9523 77.1073 16.1224 77.9227 16.1224C78.4444 16.1224 78.9545 16.0721 79.4607 15.9832C79.9592 15.8828 80.3766 15.7707 80.6896 15.6316L81.0683 17.9501C80.9137 18.0274 80.7089 18.1047 80.4577 18.182C80.2027 18.2593 79.9244 18.3211 79.6076 18.3868C79.2984 18.4448 78.9622 18.4911 78.6028 18.5259C78.2434 18.5607 77.8918 18.5839 77.5324 18.5839C76.6243 18.5839 75.8437 18.4486 75.1751 18.182C74.5066 17.9154 73.9501 17.5483 73.5173 17.0807C73.0806 16.617 72.7522 16.0644 72.5474 15.4229C72.3425 14.7815 72.2305 14.0975 72.2305 13.3556H72.2382L72.2421 13.3594ZM78.9236 12.2658C78.9081 12.0263 78.8656 11.7867 78.796 11.5625C78.7265 11.3307 78.6221 11.1259 78.4714 10.9481C78.3246 10.7704 78.1391 10.6235 77.915 10.5115C77.6908 10.3994 77.4165 10.3414 77.0841 10.3414C76.7518 10.3414 76.4929 10.3994 76.261 10.5037C76.0291 10.6081 75.8398 10.7588 75.6929 10.9327C75.5384 11.1104 75.4263 11.3191 75.3413 11.5548C75.2563 11.7867 75.2022 12.0263 75.1597 12.2736H78.9197V12.2658H78.9236Z" fill="#125AED"/>
<path d="M72.2421 13.3594C72.2421 12.4629 72.3773 11.6823 72.6517 11.01C72.9261 10.3414 73.2854 9.78112 73.726 9.33287C74.1704 8.88848 74.6805 8.54843 75.264 8.31657C75.8398 8.08472 76.4388 7.97266 77.0493 7.97266C78.4753 7.97266 79.5998 8.40932 80.4229 9.28264C81.2538 10.156 81.6595 11.4389 81.6595 13.1392C81.6595 13.3092 81.6595 13.4831 81.6402 13.684C81.6248 13.8811 81.6132 14.0588 81.6054 14.2134H75.1519C75.2138 14.7969 75.4881 15.2645 75.975 15.6084C76.462 15.9523 77.1073 16.1224 77.9227 16.1224C78.4444 16.1224 78.9545 16.0721 79.4607 15.9832C79.9592 15.8828 80.3766 15.7707 80.6896 15.6316L81.0683 17.9501C80.9137 18.0274 80.7089 18.1047 80.4577 18.182C80.2027 18.2593 79.9244 18.3211 79.6076 18.3868C79.2984 18.4448 78.9622 18.4911 78.6028 18.5259C78.2434 18.5607 77.8918 18.5839 77.5324 18.5839C76.6243 18.5839 75.8437 18.4486 75.1751 18.182C74.5066 17.9154 73.9501 17.5483 73.5173 17.0807C73.0806 16.617 72.7522 16.0644 72.5474 15.4229C72.3425 14.7815 72.2305 14.0975 72.2305 13.3556H72.2382L72.2421 13.3594ZM78.9236 12.2658C78.9081 12.0263 78.8656 11.7867 78.796 11.5625C78.7265 11.3307 78.6221 11.1259 78.4714 10.9481C78.3246 10.7704 78.1391 10.6235 77.915 10.5115C77.6908 10.3994 77.4165 10.3414 77.0841 10.3414C76.7518 10.3414 76.4929 10.3994 76.261 10.5037C76.0291 10.6081 75.8398 10.7588 75.6929 10.9327C75.5384 11.1104 75.4263 11.3191 75.3413 11.5548C75.2563 11.7867 75.2022 12.0263 75.1597 12.2736H78.9197V12.2658H78.9236Z" fill="white" fill-opacity="0.05"/>
<path d="M89.9188 10.7573C89.6637 10.6955 89.3623 10.6221 89.0184 10.5525C88.6745 10.483 88.3073 10.4482 87.9132 10.4482C87.7393 10.4482 87.519 10.4636 87.2717 10.4984C87.0244 10.5255 86.835 10.5603 86.7075 10.6028V18.2965H83.8672V8.76338C84.3734 8.58562 84.9763 8.41946 85.6757 8.25716C86.3713 8.09486 87.1442 8.01758 87.9943 8.01758C88.1489 8.01758 88.3305 8.02531 88.5508 8.04463C88.7672 8.06395 88.9797 8.08713 89.1962 8.12191C89.4126 8.14896 89.6251 8.19147 89.8415 8.23398C90.0579 8.27648 90.2434 8.33445 90.398 8.39627L89.9188 10.7496L89.9111 10.7573H89.9188Z" fill="#125AED"/>
<path d="M89.9188 10.7573C89.6637 10.6955 89.3623 10.6221 89.0184 10.5525C88.6745 10.483 88.3073 10.4482 87.9132 10.4482C87.7393 10.4482 87.519 10.4636 87.2717 10.4984C87.0244 10.5255 86.835 10.5603 86.7075 10.6028V18.2965H83.8672V8.76338C84.3734 8.58562 84.9763 8.41946 85.6757 8.25716C86.3713 8.09486 87.1442 8.01758 87.9943 8.01758C88.1489 8.01758 88.3305 8.02531 88.5508 8.04463C88.7672 8.06395 88.9797 8.08713 89.1962 8.12191C89.4126 8.14896 89.6251 8.19147 89.8415 8.23398C90.0579 8.27648 90.2434 8.33445 90.398 8.39627L89.9188 10.7496L89.9111 10.7573H89.9188Z" fill="white" fill-opacity="0.05"/>
</svg>
