<svg width="91" height="23" viewBox="0 0 91 23" fill="none" xmlns="http://www.w3.org/2000/svg">
<g clip-path="url(#clip0_19548_10823)">
<path d="M11.4988 2.18945C6.35637 2.18945 2.19141 6.35828 2.19141 11.4969C2.19141 16.6354 6.36023 20.8043 11.4988 20.8043C16.6374 20.8043 20.8062 16.6354 20.8062 11.4969C20.8062 6.35828 16.6413 2.18945 11.4988 2.18945ZM15.7604 10.3339L12.6618 7.23531L13.7822 6.11487C14.6361 5.26101 16.0231 5.26101 16.8808 6.11487C17.7347 6.96872 17.7347 8.35576 16.8808 9.21348L15.7604 10.3339ZM16.8808 13.7764C17.7347 14.6302 17.7347 16.0173 16.8808 16.875C16.027 17.7288 14.6399 17.7288 13.7822 16.875L12.6618 15.7545L15.7604 12.6559L16.8808 13.7764ZM11.4988 14.5916L9.95338 13.0462H11.4988L8.40794 11.5007L8.40021 11.493L11.4988 8.39439L13.0481 9.9437H11.4988L14.5936 11.493L11.495 14.5916H11.4988ZM6.11682 16.8789C5.26297 16.025 5.26297 14.638 6.11682 13.7802L7.24113 12.6559L10.3397 15.7545L9.21543 16.8789C8.36157 17.7327 6.97454 17.7327 6.11682 16.8789ZM6.11682 9.20961C5.26297 8.35576 5.26297 6.96872 6.11682 6.11101C6.97068 5.25715 8.35771 5.25715 9.21543 6.11101L10.3397 7.23531L7.24113 10.3339L6.11682 9.20961ZM13.7629 4.17148C13.3495 4.35693 12.9631 4.61579 12.6231 4.95579L11.5027 6.07623L10.3822 4.95579C10.0422 4.61579 9.65588 4.35693 9.24247 4.17148C9.95724 3.95125 10.7145 3.83148 11.5027 3.83148C12.2909 3.83148 13.0481 3.95125 13.7667 4.17148H13.7629ZM4.1773 9.22893C4.36275 9.64233 4.62161 10.0326 4.96161 10.3726L6.08205 11.493L4.96161 12.6134C4.62161 12.9534 4.36275 13.3437 4.1773 13.7609C3.95707 13.0462 3.8373 12.285 3.8373 11.4969C3.8373 10.7087 3.95707 9.94756 4.1773 9.22893ZM9.23861 18.8222C9.65201 18.6368 10.0422 18.3779 10.3861 18.0379L11.5065 16.9175L12.627 18.0379C12.967 18.3779 13.3572 18.6368 13.7706 18.8222C13.0558 19.0425 12.2947 19.1622 11.5027 19.1622C10.7106 19.1622 9.95338 19.0425 9.23861 18.8222ZM18.8319 13.7571C18.6465 13.3437 18.3876 12.9573 18.0476 12.6173L16.9272 11.4969L18.0476 10.3764C18.3876 10.0364 18.6465 9.65006 18.8319 9.23666C19.0521 9.95142 19.1719 10.7126 19.1719 11.5007C19.1719 12.2889 19.0521 13.0462 18.8319 13.7609V13.7571Z" fill="white"/>
<path d="M31.3064 16.0296C31.7276 16.0296 32.0714 15.9948 32.3457 15.9253C32.62 15.8557 32.8364 15.763 33.0064 15.6355C33.1764 15.5157 33.2884 15.3689 33.3503 15.2066C33.4121 15.0366 33.4469 14.855 33.4469 14.6503C33.4469 14.2137 33.2421 13.8544 32.8364 13.5723C32.4269 13.2826 31.7314 12.9735 30.7346 12.6412C30.298 12.4867 29.8692 12.3089 29.4326 12.1119C28.996 11.9149 28.6096 11.6676 28.2658 11.3662C27.9219 11.0649 27.6399 10.7017 27.4274 10.2728C27.211 9.84396 27.1028 9.32624 27.1028 8.71579C27.1028 8.10534 27.2149 7.55285 27.4467 7.05831C27.6785 6.56377 28.003 6.15036 28.4164 5.80264C28.8376 5.45878 29.3437 5.19605 29.9426 5.00674C30.5414 4.82515 31.2137 4.73242 31.9671 4.73242C32.8596 4.73242 33.6246 4.83288 34.2737 5.02219C34.9189 5.21151 35.4559 5.42401 35.8771 5.65582L35.0193 8.00875C34.6523 7.81944 34.2389 7.64944 33.7907 7.50262C33.3425 7.3558 32.7939 7.2824 32.1603 7.2824C31.4494 7.2824 30.9355 7.38285 30.6226 7.57989C30.3135 7.77694 30.1512 8.08216 30.1512 8.48784C30.1512 8.72738 30.2092 8.93215 30.3212 9.10215C30.4332 9.27215 30.5955 9.41897 30.808 9.55419C31.0205 9.68942 31.2562 9.80919 31.5305 9.92123C31.8048 10.0256 32.1062 10.1415 32.4385 10.2535C33.1262 10.5085 33.725 10.7596 34.2312 11.0069C34.7373 11.2542 35.1662 11.5517 35.5023 11.8801C35.8384 12.2123 36.0934 12.5987 36.2557 13.0507C36.418 13.4951 36.503 14.036 36.503 14.6812C36.503 15.9137 36.0664 16.8796 35.2009 17.5596C34.3355 18.2434 33.0296 18.5834 31.291 18.5834C30.7076 18.5834 30.1821 18.5486 29.7108 18.4791C29.2394 18.4096 28.826 18.3246 28.4589 18.2164C28.0919 18.1159 27.7828 18.0039 27.524 17.8918C27.2651 17.7798 27.0449 17.6677 26.8633 17.5673L27.7017 15.1912C28.0958 15.4114 28.5787 15.6007 29.1621 15.7746C29.7378 15.9446 30.4487 16.0373 31.291 16.0373H31.3064V16.0296Z" fill="#125AED"/>
<path d="M31.3064 16.0296C31.7276 16.0296 32.0714 15.9948 32.3457 15.9253C32.62 15.8557 32.8364 15.763 33.0064 15.6355C33.1764 15.5157 33.2884 15.3689 33.3503 15.2066C33.4121 15.0366 33.4469 14.855 33.4469 14.6503C33.4469 14.2137 33.2421 13.8544 32.8364 13.5723C32.4269 13.2826 31.7314 12.9735 30.7346 12.6412C30.298 12.4867 29.8692 12.3089 29.4326 12.1119C28.996 11.9149 28.6096 11.6676 28.2658 11.3662C27.9219 11.0649 27.6399 10.7017 27.4274 10.2728C27.211 9.84396 27.1028 9.32624 27.1028 8.71579C27.1028 8.10534 27.2149 7.55285 27.4467 7.05831C27.6785 6.56377 28.003 6.15036 28.4164 5.80264C28.8376 5.45878 29.3437 5.19605 29.9426 5.00674C30.5414 4.82515 31.2137 4.73242 31.9671 4.73242C32.8596 4.73242 33.6246 4.83288 34.2737 5.02219C34.9189 5.21151 35.4559 5.42401 35.8771 5.65582L35.0193 8.00875C34.6523 7.81944 34.2389 7.64944 33.7907 7.50262C33.3425 7.3558 32.7939 7.2824 32.1603 7.2824C31.4494 7.2824 30.9355 7.38285 30.6226 7.57989C30.3135 7.77694 30.1512 8.08216 30.1512 8.48784C30.1512 8.72738 30.2092 8.93215 30.3212 9.10215C30.4332 9.27215 30.5955 9.41897 30.808 9.55419C31.0205 9.68942 31.2562 9.80919 31.5305 9.92123C31.8048 10.0256 32.1062 10.1415 32.4385 10.2535C33.1262 10.5085 33.725 10.7596 34.2312 11.0069C34.7373 11.2542 35.1662 11.5517 35.5023 11.8801C35.8384 12.2123 36.0934 12.5987 36.2557 13.0507C36.418 13.4951 36.503 14.036 36.503 14.6812C36.503 15.9137 36.0664 16.8796 35.2009 17.5596C34.3355 18.2434 33.0296 18.5834 31.291 18.5834C30.7076 18.5834 30.1821 18.5486 29.7108 18.4791C29.2394 18.4096 28.826 18.3246 28.4589 18.2164C28.0919 18.1159 27.7828 18.0039 27.524 17.8918C27.2651 17.7798 27.0449 17.6677 26.8633 17.5673L27.7017 15.1912C28.0958 15.4114 28.5787 15.6007 29.1621 15.7746C29.7378 15.9446 30.4487 16.0373 31.291 16.0373H31.3064V16.0296Z" fill="white"/>
<path d="M41.9218 11.8565C42.2038 11.5551 42.4897 11.2345 42.7872 10.906C43.0809 10.5738 43.3784 10.2492 43.6527 9.9247C43.9347 9.60015 44.1936 9.29879 44.4486 9.00129C44.6958 8.71152 44.9122 8.45653 45.0899 8.24017H48.4706C47.7944 9.01675 47.1338 9.7547 46.4963 10.4695C45.8549 11.1726 45.1517 11.9067 44.3868 12.6563C44.7654 13.0001 45.1595 13.4097 45.569 13.8887C45.9786 14.3678 46.3688 14.8624 46.7513 15.3762C47.1299 15.8901 47.4815 16.4001 47.7983 16.9062C48.1151 17.4201 48.3817 17.8876 48.5981 18.3087H45.3295C45.1247 17.9764 44.8929 17.6094 44.634 17.2076C44.3752 16.8058 44.1008 16.4039 43.8033 16.0021C43.5097 15.6003 43.2045 15.214 42.8838 14.8392C42.5593 14.4644 42.2386 14.1553 41.9218 13.9003V18.3126H39.082V3.9168L41.9218 3.45703V11.8526H41.9295L41.9218 11.8565Z" fill="#125AED"/>
<path d="M41.9218 11.8565C42.2038 11.5551 42.4897 11.2345 42.7872 10.906C43.0809 10.5738 43.3784 10.2492 43.6527 9.9247C43.9347 9.60015 44.1936 9.29879 44.4486 9.00129C44.6958 8.71152 44.9122 8.45653 45.0899 8.24017H48.4706C47.7944 9.01675 47.1338 9.7547 46.4963 10.4695C45.8549 11.1726 45.1517 11.9067 44.3868 12.6563C44.7654 13.0001 45.1595 13.4097 45.569 13.8887C45.9786 14.3678 46.3688 14.8624 46.7513 15.3762C47.1299 15.8901 47.4815 16.4001 47.7983 16.9062C48.1151 17.4201 48.3817 17.8876 48.5981 18.3087H45.3295C45.1247 17.9764 44.8929 17.6094 44.634 17.2076C44.3752 16.8058 44.1008 16.4039 43.8033 16.0021C43.5097 15.6003 43.2045 15.214 42.8838 14.8392C42.5593 14.4644 42.2386 14.1553 41.9218 13.9003V18.3126H39.082V3.9168L41.9218 3.45703V11.8526H41.9295L41.9218 11.8565Z" fill="white"/>
<path d="M58.5098 17.9689C58.023 18.1079 57.4049 18.2354 56.6399 18.3629C55.8749 18.4827 55.0712 18.5445 54.2367 18.5445C53.4022 18.5445 52.6758 18.4325 52.1079 18.2007C51.5399 17.9689 51.0956 17.652 50.7633 17.2348C50.4311 16.8175 50.1954 16.3268 50.0602 15.755C49.9211 15.1832 49.8477 14.5496 49.8477 13.858V8.25191H52.6874V13.5103C52.6874 14.4259 52.8072 15.0905 53.0544 15.5C53.294 15.9096 53.7499 16.1143 54.4106 16.1143C54.6153 16.1143 54.8317 16.1066 55.0558 16.0873C55.2876 16.068 55.4846 16.0448 55.6662 16.0177V8.24805H58.506V17.9689H58.5098Z" fill="#125AED"/>
<path d="M58.5098 17.9689C58.023 18.1079 57.4049 18.2354 56.6399 18.3629C55.8749 18.4827 55.0712 18.5445 54.2367 18.5445C53.4022 18.5445 52.6758 18.4325 52.1079 18.2007C51.5399 17.9689 51.0956 17.652 50.7633 17.2348C50.4311 16.8175 50.1954 16.3268 50.0602 15.755C49.9211 15.1832 49.8477 14.5496 49.8477 13.858V8.25191H52.6874V13.5103C52.6874 14.4259 52.8072 15.0905 53.0544 15.5C53.294 15.9096 53.7499 16.1143 54.4106 16.1143C54.6153 16.1143 54.8317 16.1066 55.0558 16.0873C55.2876 16.068 55.4846 16.0448 55.6662 16.0177V8.24805H58.506V17.9689H58.5098Z" fill="white"/>
<path d="M70.5104 13.2706C70.5104 14.0742 70.3906 14.8006 70.1588 15.4496C69.927 16.0987 69.5831 16.6551 69.1388 17.1149C68.6945 17.5746 68.1459 17.9262 67.5007 18.1812C66.8554 18.4285 66.1175 18.556 65.2868 18.556C64.943 18.556 64.5836 18.5405 64.2127 18.5057C63.8418 18.471 63.4671 18.4362 63.1077 18.3782C62.7407 18.328 62.3968 18.2662 62.0684 18.1967C61.7362 18.1271 61.4425 18.0576 61.1914 17.9764V3.9168L64.0311 3.45703V8.46812C64.348 8.32903 64.6764 8.22085 65.0241 8.14358C65.3718 8.0663 65.735 8.03153 66.1291 8.03153C66.84 8.03153 67.4736 8.15903 68.0184 8.4063C68.567 8.65357 69.0229 9.01289 69.39 9.47265C69.757 9.93242 70.0352 10.4811 70.2284 11.1301C70.4177 11.7715 70.5181 12.4901 70.5181 13.2822V13.2744L70.5104 13.2706ZM67.6088 13.1933C67.6088 11.3542 66.9327 10.4347 65.5843 10.4347C65.2907 10.4347 65.0009 10.4695 64.7111 10.5467C64.4214 10.624 64.1896 10.7167 64.0157 10.8365V16.0253C64.1548 16.0524 64.3325 16.0755 64.5489 16.0871C64.7652 16.1065 64.997 16.1142 65.252 16.1142C66.0248 16.1142 66.6159 15.8476 67.01 15.3106C67.4041 14.7735 67.6011 14.0703 67.6011 13.1894H67.6088V13.1933Z" fill="#125AED"/>
<path d="M70.5104 13.2706C70.5104 14.0742 70.3906 14.8006 70.1588 15.4496C69.927 16.0987 69.5831 16.6551 69.1388 17.1149C68.6945 17.5746 68.1459 17.9262 67.5007 18.1812C66.8554 18.4285 66.1175 18.556 65.2868 18.556C64.943 18.556 64.5836 18.5405 64.2127 18.5057C63.8418 18.471 63.4671 18.4362 63.1077 18.3782C62.7407 18.328 62.3968 18.2662 62.0684 18.1967C61.7362 18.1271 61.4425 18.0576 61.1914 17.9764V3.9168L64.0311 3.45703V8.46812C64.348 8.32903 64.6764 8.22085 65.0241 8.14358C65.3718 8.0663 65.735 8.03153 66.1291 8.03153C66.84 8.03153 67.4736 8.15903 68.0184 8.4063C68.567 8.65357 69.0229 9.01289 69.39 9.47265C69.757 9.93242 70.0352 10.4811 70.2284 11.1301C70.4177 11.7715 70.5181 12.4901 70.5181 13.2822V13.2744L70.5104 13.2706ZM67.6088 13.1933C67.6088 11.3542 66.9327 10.4347 65.5843 10.4347C65.2907 10.4347 65.0009 10.4695 64.7111 10.5467C64.4214 10.624 64.1896 10.7167 64.0157 10.8365V16.0253C64.1548 16.0524 64.3325 16.0755 64.5489 16.0871C64.7652 16.1065 64.997 16.1142 65.252 16.1142C66.0248 16.1142 66.6159 15.8476 67.01 15.3106C67.4041 14.7735 67.6011 14.0703 67.6011 13.1894H67.6088V13.1933Z" fill="white"/>
<path d="M72.2343 13.3487C72.2343 12.4524 72.3695 11.6719 72.6438 10.9997C72.9181 10.3313 73.2774 9.77105 73.7179 9.32288C74.1622 8.87856 74.6722 8.53857 75.2556 8.30675C75.8313 8.07493 76.4301 7.96289 77.0406 7.96289C78.4662 7.96289 79.5905 8.39948 80.4135 9.27265C81.2442 10.1458 81.6498 11.4285 81.6498 13.1285C81.6498 13.2985 81.6498 13.4724 81.6305 13.6733C81.6151 13.8703 81.6035 14.0481 81.5957 14.2026H75.1435C75.2054 14.786 75.4797 15.2535 75.9665 15.5974C76.4533 15.9412 77.0985 16.1112 77.9137 16.1112C78.4353 16.1112 78.9453 16.061 79.4515 15.9721C79.9499 15.8717 80.3671 15.7596 80.6801 15.6205L81.0587 17.9387C80.9042 18.016 80.6994 18.0932 80.4483 18.1705C80.1933 18.2478 79.9151 18.3096 79.5983 18.3753C79.2892 18.4332 78.953 18.4796 78.5937 18.5144C78.2344 18.5491 77.8828 18.5723 77.5235 18.5723C76.6156 18.5723 75.8351 18.4371 75.1667 18.1705C74.4983 17.9039 73.942 17.5369 73.5092 17.0694C73.0726 16.6058 72.7442 16.0533 72.5395 15.4119C72.3347 14.7706 72.2227 14.0867 72.2227 13.3449H72.2304L72.2343 13.3487ZM78.9144 12.2553C78.899 12.0158 78.8565 11.7763 78.7869 11.5522C78.7174 11.3204 78.6131 11.1156 78.4624 10.9379C78.3156 10.7601 78.1301 10.6133 77.906 10.5013C77.6819 10.3892 77.4076 10.3313 77.0753 10.3313C76.7431 10.3313 76.4842 10.3892 76.2524 10.4935C76.0206 10.5979 75.8313 10.7485 75.6844 10.9224C75.5299 11.1001 75.4179 11.3088 75.3329 11.5444C75.2479 11.7763 75.1938 12.0158 75.1513 12.2631H78.9105V12.2553H78.9144Z" fill="#125AED"/>
<path d="M72.2343 13.3487C72.2343 12.4524 72.3695 11.6719 72.6438 10.9997C72.9181 10.3313 73.2774 9.77105 73.7179 9.32288C74.1622 8.87856 74.6722 8.53857 75.2556 8.30675C75.8313 8.07493 76.4301 7.96289 77.0406 7.96289C78.4662 7.96289 79.5905 8.39948 80.4135 9.27265C81.2442 10.1458 81.6498 11.4285 81.6498 13.1285C81.6498 13.2985 81.6498 13.4724 81.6305 13.6733C81.6151 13.8703 81.6035 14.0481 81.5957 14.2026H75.1435C75.2054 14.786 75.4797 15.2535 75.9665 15.5974C76.4533 15.9412 77.0985 16.1112 77.9137 16.1112C78.4353 16.1112 78.9453 16.061 79.4515 15.9721C79.9499 15.8717 80.3671 15.7596 80.6801 15.6205L81.0587 17.9387C80.9042 18.016 80.6994 18.0932 80.4483 18.1705C80.1933 18.2478 79.9151 18.3096 79.5983 18.3753C79.2892 18.4332 78.953 18.4796 78.5937 18.5144C78.2344 18.5491 77.8828 18.5723 77.5235 18.5723C76.6156 18.5723 75.8351 18.4371 75.1667 18.1705C74.4983 17.9039 73.942 17.5369 73.5092 17.0694C73.0726 16.6058 72.7442 16.0533 72.5395 15.4119C72.3347 14.7706 72.2227 14.0867 72.2227 13.3449H72.2304L72.2343 13.3487ZM78.9144 12.2553C78.899 12.0158 78.8565 11.7763 78.7869 11.5522C78.7174 11.3204 78.6131 11.1156 78.4624 10.9379C78.3156 10.7601 78.1301 10.6133 77.906 10.5013C77.6819 10.3892 77.4076 10.3313 77.0753 10.3313C76.7431 10.3313 76.4842 10.3892 76.2524 10.4935C76.0206 10.5979 75.8313 10.7485 75.6844 10.9224C75.5299 11.1001 75.4179 11.3088 75.3329 11.5444C75.2479 11.7763 75.1938 12.0158 75.1513 12.2631H78.9105V12.2553H78.9144Z" fill="white"/>
<path d="M89.898 10.7666C89.643 10.7048 89.3417 10.6314 88.9978 10.5619C88.654 10.4923 88.2869 10.4575 87.8928 10.4575C87.719 10.4575 87.4988 10.473 87.2515 10.5078C87.0042 10.5348 86.8149 10.5696 86.6874 10.6121V18.3045H83.8477V8.77302C84.3538 8.59529 84.9565 8.42916 85.6558 8.26689C86.3513 8.10462 87.124 8.02734 87.974 8.02734C88.1285 8.02734 88.3101 8.03507 88.5303 8.05439C88.7467 8.07371 88.9592 8.09689 89.1756 8.13166C89.3919 8.15871 89.6044 8.20121 89.8208 8.24371C90.0371 8.2862 90.2226 8.34416 90.3771 8.40598L89.898 10.7589L89.8903 10.7666H89.898Z" fill="#125AED"/>
<path d="M89.898 10.7666C89.643 10.7048 89.3417 10.6314 88.9978 10.5619C88.654 10.4923 88.2869 10.4575 87.8928 10.4575C87.719 10.4575 87.4988 10.473 87.2515 10.5078C87.0042 10.5348 86.8149 10.5696 86.6874 10.6121V18.3045H83.8477V8.77302C84.3538 8.59529 84.9565 8.42916 85.6558 8.26689C86.3513 8.10462 87.124 8.02734 87.974 8.02734C88.1285 8.02734 88.3101 8.03507 88.5303 8.05439C88.7467 8.07371 88.9592 8.09689 89.1756 8.13166C89.3919 8.15871 89.6044 8.20121 89.8208 8.24371C90.0371 8.2862 90.2226 8.34416 90.3771 8.40598L89.898 10.7589L89.8903 10.7666H89.898Z" fill="white"/>
</g>
<defs>
<clipPath id="clip0_19548_10823">
<rect width="90.385" height="23" fill="white"/>
</clipPath>
</defs>
</svg>
