<svg width="24" height="24" viewBox="0 0 24 24" fill="none" xmlns="http://www.w3.org/2000/svg">
<path fill-rule="evenodd" clip-rule="evenodd" d="M10.6349 2.39844C10.2181 2.39844 9.84494 2.65701 9.69858 3.04731L9.25175 4.23885C8.97927 4.33528 8.71338 4.44566 8.45494 4.56913L7.30138 4.04478C6.9219 3.87229 6.47523 3.95329 6.18047 4.24804L4.25129 6.17723C3.95653 6.47198 3.87553 6.91866 4.04803 7.29814L4.57145 8.44967C4.44667 8.71033 4.33522 8.97858 4.23796 9.25354L3.04927 9.69931C2.65896 9.84567 2.40039 10.2188 2.40039 10.6356V13.3639C2.40039 13.7808 2.65896 14.1539 3.04927 14.3002L4.23933 14.7465C4.33557 15.0182 4.44567 15.2833 4.56878 15.541L4.04205 16.6998C3.86956 17.0793 3.95055 17.5259 4.24531 17.8207L6.1745 19.7499C6.46925 20.0446 6.91592 20.1256 7.2954 19.9531L8.45388 19.4266C8.71354 19.5507 8.98072 19.6615 9.25455 19.7583L9.70126 20.9496C9.84762 21.3399 10.2207 21.5984 10.6376 21.5984H13.3659C13.7827 21.5984 14.1558 21.3399 14.3022 20.9496L14.7501 19.7551C15.0217 19.6587 15.2868 19.5484 15.5444 19.4252L16.7088 19.9544C17.0883 20.1269 17.5349 20.0459 17.8297 19.7512L19.7589 17.822C20.0536 17.5272 20.1346 17.0806 19.9621 16.7011L19.4308 15.5322C19.552 15.2779 19.6604 15.0164 19.7554 14.7485L20.9515 14.2999C21.3418 14.1535 21.6004 13.7804 21.6004 13.3636V10.6353C21.6004 10.2185 21.3418 9.84533 20.9515 9.69897L19.7565 9.25084C19.6595 8.97698 19.5485 8.70978 19.4242 8.45012L19.9494 7.29474C20.1219 6.91526 20.0409 6.46859 19.7461 6.17383L17.8169 4.24464C17.5222 3.94989 17.0755 3.86889 16.696 4.04138L15.5378 4.56784C15.2812 4.44536 15.0172 4.33578 14.7468 4.23994L14.2995 3.04731C14.1532 2.65701 13.78 2.39844 13.3632 2.39844H10.6349ZM11.9991 16.1137C14.2713 16.1137 16.1133 14.2717 16.1133 11.9994C16.1133 9.72718 14.2713 7.88516 11.9991 7.88516C9.72679 7.88516 7.88477 9.72718 7.88477 11.9994C7.88477 14.2717 9.72679 16.1137 11.9991 16.1137Z" fill="#00C02A"/>
<path fill-rule="evenodd" clip-rule="evenodd" d="M10.6349 2.39844C10.2181 2.39844 9.84494 2.65701 9.69858 3.04731L9.25175 4.23885C8.97927 4.33528 8.71338 4.44566 8.45494 4.56913L7.30138 4.04478C6.9219 3.87229 6.47523 3.95329 6.18047 4.24804L4.25129 6.17723C3.95653 6.47198 3.87553 6.91866 4.04803 7.29814L4.57145 8.44967C4.44667 8.71033 4.33522 8.97858 4.23796 9.25354L3.04927 9.69931C2.65896 9.84567 2.40039 10.2188 2.40039 10.6356V13.3639C2.40039 13.7808 2.65896 14.1539 3.04927 14.3002L4.23933 14.7465C4.33557 15.0182 4.44567 15.2833 4.56878 15.541L4.04205 16.6998C3.86956 17.0793 3.95055 17.5259 4.24531 17.8207L6.1745 19.7499C6.46925 20.0446 6.91592 20.1256 7.2954 19.9531L8.45388 19.4266C8.71354 19.5507 8.98072 19.6615 9.25455 19.7583L9.70126 20.9496C9.84762 21.3399 10.2207 21.5984 10.6376 21.5984H13.3659C13.7827 21.5984 14.1558 21.3399 14.3022 20.9496L14.7501 19.7551C15.0217 19.6587 15.2868 19.5484 15.5444 19.4252L16.7088 19.9544C17.0883 20.1269 17.5349 20.0459 17.8297 19.7512L19.7589 17.822C20.0536 17.5272 20.1346 17.0806 19.9621 16.7011L19.4308 15.5322C19.552 15.2779 19.6604 15.0164 19.7554 14.7485L20.9515 14.2999C21.3418 14.1535 21.6004 13.7804 21.6004 13.3636V10.6353C21.6004 10.2185 21.3418 9.84533 20.9515 9.69897L19.7565 9.25084C19.6595 8.97698 19.5485 8.70978 19.4242 8.45012L19.9494 7.29474C20.1219 6.91526 20.0409 6.46859 19.7461 6.17383L17.8169 4.24464C17.5222 3.94989 17.0755 3.86889 16.696 4.04138L15.5378 4.56784C15.2812 4.44536 15.0172 4.33578 14.7468 4.23994L14.2995 3.04731C14.1532 2.65701 13.78 2.39844 13.3632 2.39844H10.6349ZM11.9991 16.1137C14.2713 16.1137 16.1133 14.2717 16.1133 11.9994C16.1133 9.72718 14.2713 7.88516 11.9991 7.88516C9.72679 7.88516 7.88477 9.72718 7.88477 11.9994C7.88477 14.2717 9.72679 16.1137 11.9991 16.1137Z" fill="url(#paint0_linear_15122_68834)" fill-opacity="0.2"/>
<defs>
<linearGradient id="paint0_linear_15122_68834" x1="12.0004" y1="2.39844" x2="12.0004" y2="21.5984" gradientUnits="userSpaceOnUse">
<stop stop-opacity="0"/>
<stop offset="1"/>
</linearGradient>
</defs>
</svg>
