<svg width="40" height="40" viewBox="0 0 40 40" fill="none" xmlns="http://www.w3.org/2000/svg">
<path fill-rule="evenodd" clip-rule="evenodd" d="M17.9552 4C17.1215 4 16.3753 4.51714 16.0825 5.29775L15.4189 7.06735C14.9648 7.22807 14.5217 7.41204 14.0909 7.61782L12.3786 6.8395C11.6197 6.49451 10.7263 6.65651 10.1368 7.24601L7.24817 10.1346C6.65866 10.7242 6.49666 11.6175 6.84165 12.3765L7.61843 14.0854C7.41047 14.5198 7.22471 14.9669 7.06262 15.4252L5.29775 16.087C4.51715 16.3797 4 17.126 4 17.9597V22.0448C4 22.8785 4.51714 23.6247 5.29775 23.9175L7.0649 24.5801C7.2253 25.0329 7.4088 25.4747 7.61399 25.9042L6.83168 27.6253C6.4867 28.3843 6.64869 29.2776 7.2382 29.8671L10.1268 32.7557C10.7163 33.3452 11.6097 33.5072 12.3687 33.1623L14.0891 32.3802C14.5219 32.587 14.9672 32.7718 15.4236 32.9332L16.087 34.7022C16.3797 35.4829 17.126 36 17.9597 36H22.0448C22.8785 36 23.6247 35.4829 23.9175 34.7022L24.5829 32.9277C25.0356 32.7671 25.4773 32.5833 25.9067 32.3779L27.637 33.1644C28.396 33.5094 29.2893 33.3474 29.8788 32.7579L32.7675 29.8693C33.357 29.2798 33.519 28.3864 33.174 27.6274L32.3841 25.8896C32.5859 25.4657 32.7667 25.0299 32.925 24.5834L34.7022 23.9169C35.4829 23.6242 36 22.8779 36 22.0442V17.9591C36 17.1254 35.4829 16.3792 34.7022 16.0864L32.9269 15.4207C32.7652 14.9642 32.5801 14.5189 32.373 14.0861L33.1527 12.3708C33.4977 11.6118 33.3357 10.7185 32.7462 10.129L29.8575 7.24035C29.268 6.65085 28.3747 6.48885 27.6157 6.83383L25.8957 7.61568C25.468 7.41154 25.028 7.22891 24.5773 7.06918L23.913 5.29775C23.6203 4.51715 22.874 4 22.0403 4H17.9552ZM19.9978 26.8588C23.7849 26.8588 26.8549 23.7888 26.8549 20.0017C26.8549 16.2146 23.7849 13.1445 19.9978 13.1445C16.2107 13.1445 13.1406 16.2146 13.1406 20.0017C13.1406 23.7888 16.2107 26.8588 19.9978 26.8588Z" fill="url(#paint0_linear_13223_153329)"/>
<defs>
<linearGradient id="paint0_linear_13223_153329" x1="20" y1="4" x2="20" y2="36" gradientUnits="userSpaceOnUse">
<stop stop-color="white"/>
<stop offset="1" stop-color="white" stop-opacity="0.5"/>
</linearGradient>
</defs>
</svg>
