<svg width="20" height="20" viewBox="0 0 20 20" fill="none" xmlns="http://www.w3.org/2000/svg">
<g clip-path="url(#clip0_11191_84205)">
<g clip-path="url(#clip1_11191_84205)">
<path d="M9.93482 7.21166L7.09375 10.0527L9.93482 12.8938L12.7759 10.0527L9.93482 7.21166Z" fill="#141923"/>
<path d="M10.0013 18.106C5.53074 18.106 1.89844 14.4737 1.89844 10.0032C1.89844 5.53269 5.53074 1.90039 10.0013 1.90039C14.4718 1.90039 18.1041 5.53269 18.1041 10.0032C18.1041 14.4737 14.4718 18.106 10.0013 18.106ZM10.0013 3.1242C6.2069 3.1242 3.12224 6.20886 3.12224 10.0032C3.12224 13.7976 6.2069 16.8822 10.0013 16.8822C13.7956 16.8822 16.8803 13.7976 16.8803 10.0032C16.8803 6.20886 13.7956 3.1242 10.0013 3.1242Z" fill="white" fill-opacity="0.9"/>
<path d="M14.5078 10.0539L15.6198 8.94184C16.2289 8.33274 16.5642 7.52245 16.5642 6.65629C16.5642 5.79013 16.2289 4.97984 15.6198 4.37074C14.3625 3.1134 12.3117 3.1134 11.0543 4.37074L9.94227 5.48278L8.83023 4.37074C7.5729 3.1134 5.52204 3.1134 4.26471 4.37074C3.6556 4.97984 3.32031 5.79013 3.32031 6.65629C3.32031 7.52245 3.6556 8.33274 4.26471 8.94184L5.37675 10.0539L4.26471 11.1659C3.00738 12.4233 3.00738 14.4741 4.26471 15.7315C4.89617 16.3629 5.72322 16.6758 6.55027 16.6758C7.37731 16.6758 8.20436 16.3629 8.83582 15.7315L9.94786 14.6194L11.0599 15.7315C11.6914 16.3629 12.5184 16.6758 13.3455 16.6758C14.1725 16.6758 14.9996 16.3629 15.631 15.7315C16.8883 14.4741 16.8883 12.4233 15.631 11.1659L14.519 10.0539H14.5078ZM11.9205 5.2369C12.3117 4.84573 12.8258 4.65014 13.3399 4.65014C13.854 4.65014 14.3681 4.84573 14.7593 5.2369C15.1393 5.61689 15.346 6.11983 15.346 6.65629C15.346 7.19275 15.1393 7.69569 14.7593 8.07568L13.6472 9.18772L10.8084 6.34894L11.9205 5.2369ZM5.12529 8.07568C4.74529 7.69569 4.53853 7.19275 4.53853 6.65629C4.53853 6.11983 4.74529 5.61689 5.12529 5.2369C5.51646 4.84573 6.03057 4.65014 6.54468 4.65014C7.05879 4.65014 7.5729 4.84573 7.96407 5.2369L9.07611 6.34894L6.23733 9.18772L5.12529 8.07568ZM7.96407 14.8709C7.18173 15.6532 5.90763 15.6532 5.12529 14.8709C4.34294 14.0885 4.34294 12.8144 5.12529 12.0321L6.23733 10.9201L9.07611 13.7588L7.96407 14.8709ZM9.9311 12.8815V12.8591L8.75759 11.6856H10.0037L10.0149 11.5236L7.25437 9.90301L9.94786 7.20952L10.0205 7.28216L10.0876 7.34922L11.1381 8.39979H9.94227V8.41097L12.7364 9.99242L12.7866 10.0427L9.94786 12.8815L9.93669 12.8703L9.9311 12.8815ZM14.7648 14.8709C13.9825 15.6532 12.7084 15.6532 11.9261 14.8709L10.814 13.7588L13.6528 10.9201L14.7648 12.0321C15.5472 12.8144 15.5472 14.0885 14.7648 14.8709Z" fill="white" fill-opacity="0.9"/>
</g>
</g>
<defs>
<clipPath id="clip0_11191_84205">
<rect width="20" height="20" fill="white"/>
</clipPath>
<clipPath id="clip1_11191_84205">
<rect width="20" height="20" fill="white"/>
</clipPath>
</defs>
</svg>
