<svg width="24" height="24" viewBox="0 0 24 24" fill="none" xmlns="http://www.w3.org/2000/svg">
<mask id="path-1-inside-1_12051_236994" fill="white">
<path fill-rule="evenodd" clip-rule="evenodd" d="M9 1.5C8.44772 1.5 8 1.94772 8 2.5C8 3.05228 8.44772 3.5 9 3.5H15C15.5523 3.5 16 3.05228 16 2.5C16 1.94772 15.5523 1.5 15 1.5H9ZM19 13.5C19 17.366 15.866 20.5 12 20.5C8.13401 20.5 5 17.366 5 13.5C5 9.63401 8.13401 6.5 12 6.5C15.866 6.5 19 9.63401 19 13.5ZM21 13.5C21 18.4706 16.9706 22.5 12 22.5C7.02944 22.5 3 18.4706 3 13.5C3 8.52944 7.02944 4.5 12 4.5C16.9706 4.5 21 8.52944 21 13.5ZM11.0531 14.8224C11.0187 14.7212 11 14.6128 11 14.5V10.5C11 9.94772 11.4477 9.5 12 9.5C12.5523 9.5 13 9.94771 13 10.5V14.0859L14.7071 15.793C15.0976 16.1836 15.0976 16.8167 14.7071 17.2073C14.3166 17.5978 13.6834 17.5978 13.2929 17.2073L11.2929 15.2073C11.1808 15.0951 11.1008 14.963 11.0531 14.8224Z"/>
</mask>
<path fill-rule="evenodd" clip-rule="evenodd" d="M9 1.5C8.44772 1.5 8 1.94772 8 2.5C8 3.05228 8.44772 3.5 9 3.5H15C15.5523 3.5 16 3.05228 16 2.5C16 1.94772 15.5523 1.5 15 1.5H9ZM19 13.5C19 17.366 15.866 20.5 12 20.5C8.13401 20.5 5 17.366 5 13.5C5 9.63401 8.13401 6.5 12 6.5C15.866 6.5 19 9.63401 19 13.5ZM21 13.5C21 18.4706 16.9706 22.5 12 22.5C7.02944 22.5 3 18.4706 3 13.5C3 8.52944 7.02944 4.5 12 4.5C16.9706 4.5 21 8.52944 21 13.5ZM11.0531 14.8224C11.0187 14.7212 11 14.6128 11 14.5V10.5C11 9.94772 11.4477 9.5 12 9.5C12.5523 9.5 13 9.94771 13 10.5V14.0859L14.7071 15.793C15.0976 16.1836 15.0976 16.8167 14.7071 17.2073C14.3166 17.5978 13.6834 17.5978 13.2929 17.2073L11.2929 15.2073C11.1808 15.0951 11.1008 14.963 11.0531 14.8224Z" fill="url(#paint0_linear_12051_236994)"/>
<path d="M11.0531 14.8224L12 14.5009L11.9998 14.5002L11.0531 14.8224ZM11 10.5H12V10.5L11 10.5ZM13 14.0859H12V14.5002L12.2929 14.793L13 14.0859ZM13.2929 17.2073L14 16.5002L14 16.5002L13.2929 17.2073ZM11.2929 15.2073L10.5858 15.9144L11.2929 15.2073ZM9 2.5V0.5C7.89543 0.5 7 1.39543 7 2.5H9ZM9 2.5H7C7 3.60457 7.89543 4.5 9 4.5V2.5ZM15 2.5H9V4.5H15V2.5ZM15 2.5V4.5C16.1046 4.5 17 3.60457 17 2.5H15ZM15 2.5H17C17 1.39543 16.1046 0.5 15 0.5V2.5ZM9 2.5H15V0.5H9V2.5ZM12 21.5C16.4183 21.5 20 17.9183 20 13.5H18C18 16.8137 15.3137 19.5 12 19.5V21.5ZM4 13.5C4 17.9183 7.58172 21.5 12 21.5V19.5C8.68629 19.5 6 16.8137 6 13.5H4ZM12 5.5C7.58172 5.5 4 9.08172 4 13.5H6C6 10.1863 8.68629 7.5 12 7.5V5.5ZM20 13.5C20 9.08172 16.4183 5.5 12 5.5V7.5C15.3137 7.5 18 10.1863 18 13.5H20ZM12 23.5C17.5228 23.5 22 19.0228 22 13.5H20C20 17.9183 16.4183 21.5 12 21.5V23.5ZM2 13.5C2 19.0228 6.47715 23.5 12 23.5V21.5C7.58172 21.5 4 17.9183 4 13.5H2ZM12 3.5C6.47715 3.5 2 7.97715 2 13.5H4C4 9.08172 7.58172 5.5 12 5.5V3.5ZM22 13.5C22 7.97715 17.5228 3.5 12 3.5V5.5C16.4183 5.5 20 9.08172 20 13.5H22ZM10 14.5C10 14.7238 10.0372 14.941 10.1064 15.1446L11.9998 14.5002L12 14.5H10ZM10 10.5V14.5H12V10.5H10ZM12 8.5C10.8954 8.5 10 9.39543 10 10.5L12 10.5V10.5V8.5ZM14 10.5C14 9.39543 13.1046 8.5 12 8.5V10.5H14ZM14 14.0859V10.5H12V14.0859H14ZM12.2929 14.793L14 16.5002L15.4142 15.0859L13.7071 13.3788L12.2929 14.793ZM14 16.5002V16.5002L15.4142 17.9144C16.1953 17.1333 16.1953 15.867 15.4142 15.0859L14 16.5002ZM14 16.5002H14L12.5858 17.9144C13.3668 18.6954 14.6332 18.6954 15.4142 17.9144L14 16.5002ZM14 16.5002L12 14.5002L10.5858 15.9144L12.5858 17.9144L14 16.5002ZM12 14.5002L12 14.5009L10.1062 15.1438C10.2021 15.4265 10.3628 15.6914 10.5858 15.9144L12 14.5002Z" fill="url(#paint1_linear_12051_236994)" mask="url(#path-1-inside-1_12051_236994)"/>
<defs>
<linearGradient id="paint0_linear_12051_236994" x1="12" y1="1.5" x2="12" y2="22.5" gradientUnits="userSpaceOnUse">
<stop stop-color="white" stop-opacity="0.8"/>
<stop offset="1" stop-color="white" stop-opacity="0.4"/>
</linearGradient>
<linearGradient id="paint1_linear_12051_236994" x1="12" y1="1.5" x2="12" y2="22.5" gradientUnits="userSpaceOnUse">
<stop stop-color="white"/>
<stop offset="1" stop-color="white" stop-opacity="0"/>
</linearGradient>
</defs>
</svg>
