<svg width="16" height="16" viewBox="0 0 16 16" fill="none" xmlns="http://www.w3.org/2000/svg">
<path fill-rule="evenodd" clip-rule="evenodd" d="M5 2H11V3.5H5V2ZM4 2C4 1.44772 4.44772 1 5 1H11C11.5523 1 12 1.44772 12 2V3.5V3.50391H12.3904H13.3931H14.25C14.5261 3.50391 14.75 3.72776 14.75 4.00391C14.75 4.28005 14.5261 4.50391 14.25 4.50391H13.32L12.7235 12.6615C12.6471 13.7067 11.7768 14.5156 10.7288 14.5156H5.27179C4.22332 14.5156 3.35283 13.7059 3.27702 12.6602L2.68577 4.50391H1.75C1.47386 4.50391 1.25 4.28005 1.25 4.00391C1.25 3.72776 1.47386 3.50391 1.75 3.50391H2.61328H3.61591H4V3.5V2ZM3.6884 4.50391H12.3173L11.7262 12.5885C11.688 13.1111 11.2528 13.5156 10.7288 13.5156H5.27179C4.74756 13.5156 4.31231 13.1108 4.27441 12.5879L3.6884 4.50391ZM6.5 12.0039C6.22386 12.0039 6 11.78 6 11.5039V6.50391C6 6.22776 6.22386 6.00391 6.5 6.00391C6.77614 6.00391 7 6.22776 7 6.50391V11.5039C7 11.78 6.77614 12.0039 6.5 12.0039ZM9 11.5039C9 11.78 9.22386 12.0039 9.5 12.0039C9.77614 12.0039 10 11.78 10 11.5039V6.50391C10 6.22776 9.77614 6.00391 9.5 6.00391C9.22386 6.00391 9 6.22776 9 6.50391V11.5039Z" fill="#BABCBF"/>
</svg>
